<?xml version="1.0" encoding="UTF-8" standalone="no"?>
<!-- Created with Inkscape (http://www.inkscape.org/) -->

<svg
   width="270.00031mm"
   height="150.99992mm"
   viewBox="0 0 270.0003 150.99993"
   version="1.1"
   id="svg5"
   inkscape:version="1.1.2 (0a00cf5339, 2022-02-04, custom)"
   sodipodi:docname="mounting prod.svg"
   xmlns:inkscape="http://www.inkscape.org/namespaces/inkscape"
   xmlns:sodipodi="http://sodipodi.sourceforge.net/DTD/sodipodi-0.dtd"
   xmlns="http://www.w3.org/2000/svg"
   xmlns:svg="http://www.w3.org/2000/svg">
  <sodipodi:namedview
     id="namedview7"
     pagecolor="#ffffff"
     bordercolor="#666666"
     borderopacity="1.0"
     inkscape:pageshadow="2"
     inkscape:pageopacity="0.0"
     inkscape:pagecheckerboard="0"
     inkscape:document-units="mm"
     showgrid="false"
     showguides="true"
     inkscape:guide-bbox="true"
     inkscape:lockguides="false"
     inkscape:zoom="1.328174"
     inkscape:cx="510.09884"
     inkscape:cy="285.35419"
     inkscape:window-width="1920"
     inkscape:window-height="1009"
     inkscape:window-x="-8"
     inkscape:window-y="-8"
     inkscape:window-maximized="1"
     inkscape:current-layer="layer1"
     fit-margin-top="10"
     fit-margin-left="10"
     fit-margin-right="10"
     fit-margin-bottom="10">
    <sodipodi:guide
       position="101.81177,-22.026437"
       orientation="0,-1"
       id="guide969"
       inkscape:locked="false" />
    <sodipodi:guide
       position="21.921878,173.64386"
       orientation="1,0"
       id="guide1007" />
    <sodipodi:guide
       position="247.96106,149.01746"
       orientation="1,0"
       id="guide4088" />
    <sodipodi:guide
       position="10.150158,33.551683"
       orientation="0,-1"
       id="guide315" />
    <sodipodi:guide
       position="14.105169,31.231371"
       orientation="0,-1"
       id="guide469" />
    <sodipodi:guide
       position="17.530334,73.109465"
       orientation="0,-1"
       id="guide30950" />
    <sodipodi:guide
       position="70.91817,91.436633"
       orientation="1,0"
       id="guide30952" />
    <sodipodi:guide
       position="181.08038,85.261174"
       orientation="1,0"
       id="guide30954" />
  </sodipodi:namedview>
  <defs
     id="defs2" />
  <g
     inkscape:label="cuts"
     inkscape:groupmode="layer"
     id="layer1"
     transform="translate(9.9320831,9.9651562)"
     style="display:inline">
    <path
       style="fill:none;stroke:#ff0000;stroke-width:1.13505"
       d="m 944.57227,52.021484 c 0,-2.89917 -3.39739,-6 -6.29656,-6 h -50.57056 c -3.55105,0 -6.80281,-2.448953 -6.80281,-6 V 9.1113282 c 0,-3.9497786 -4.78728,-8.002417 -8.73706,-8.0044112 L 70.632812,0.69921875 c -2.791156,-0.00142 -6,3.04964785 -6,5.84080445 V 40.677086 c 0,2.116797 -1.883203,4.932289 -4,4.932289 H 6.6653098 c -2.3598104,0 -5.84109105,1.64019 -5.84109105,4 V 397.65794 c 0,3.69327 3.32037305,8.57787 7.01364205,8.57735 l 14.3207662,-0.002 c 4.190898,-5.9e-4 8.665592,4.91845 8.665592,9.10935 v 27.32094 c 0,3.10117 2.898829,7.11023 6,7.11023 h 24.079439 c 1.90997,0 3.729154,2.44035 3.729154,4.35032 v 34.55788 c 0,2.70057 2.743494,6 5.444067,6 H 873.17766 c 3.6754,0 7.58796,-4.3246 7.58796,-8 V 454.7857 c 0,-2.49679 3.06978,-5.01189 5.56657,-5.01189 h 20.24008 c 3.18792,0 6,-4.2596 6,-7.44752 v -27.32095 c 0,-3.50223 3.15567,-8.64695 6.65786,-8.66459 l 20.86513,-0.10509 c 2.66103,-0.0134 4.47701,-3.94862 4.47701,-6.60969 z"
       transform="scale(0.26458333)"
       id="path2904"
       sodipodi:nodetypes="sssssssssssssssssssssssssssssssss" />
    <ellipse
       style="fill:none;stroke:#ff0000;stroke-width:0.317622"
       id="path1031"
       cx="60.839893"
       cy="68.017227"
       rx="49.954288"
       ry="49.954292" />
    <ellipse
       style="fill:none;stroke:#ff0000;stroke-width:0.128514"
       id="path437"
       cx="19.184803"
       cy="26.519402"
       rx="2.1857431"
       ry="2.1857433" />
    <ellipse
       style="fill:none;stroke:#ff0000;stroke-width:0.128514"
       id="path437-0"
       cx="101.96453"
       cy="26.627373"
       rx="2.1857431"
       ry="2.1857433" />
    <ellipse
       style="fill:none;stroke:#ff0000;stroke-width:0.128514"
       id="path437-4"
       cx="101.94287"
       cy="109.28014"
       rx="2.1857431"
       ry="2.1857433" />
    <ellipse
       style="fill:none;stroke:#ff0000;stroke-width:0.128514"
       id="path437-7"
       cx="19.26844"
       cy="109.32344"
       rx="2.1857431"
       ry="2.1857433" />
    <ellipse
       style="fill:none;stroke:#ff0000;stroke-width:0.128514"
       id="path437-43"
       cx="129.79425"
       cy="26.519402"
       rx="2.1857431"
       ry="2.1857433" />
    <ellipse
       style="fill:none;stroke:#ff0000;stroke-width:0.128514"
       id="path437-0-1"
       cx="212.57399"
       cy="26.627373"
       rx="2.1857431"
       ry="2.1857433" />
    <ellipse
       style="fill:none;stroke:#ff0000;stroke-width:0.128514"
       id="path437-4-5"
       cx="212.55232"
       cy="109.28014"
       rx="2.1857431"
       ry="2.1857433" />
    <ellipse
       style="fill:none;stroke:#ff0000;stroke-width:0.128514"
       id="path437-7-7"
       cx="129.87788"
       cy="109.32344"
       rx="2.1857431"
       ry="2.1857433" />
    <ellipse
       style="fill:none;stroke:#ff0000;stroke-width:0.317622"
       id="path1031-7"
       cx="171.21217"
       cy="68.017227"
       rx="49.954292"
       ry="49.954288" />
    <ellipse
       style="fill:none;stroke:#ff0000;stroke-width:0.135636"
       id="path3941"
       cx="5.7500005"
       cy="36.75"
       rx="1.6821823"
       ry="1.6821821" />
    <ellipse
       style="fill:none;stroke:#ff0000;stroke-width:0.135636"
       id="path3941-1"
       cx="5.7500005"
       cy="96.75"
       rx="1.6821823"
       ry="1.6821821" />
    <ellipse
       style="fill:none;stroke:#ff0000;stroke-width:0.135636"
       id="ellipse4084"
       cx="243.75"
       cy="36.75"
       rx="1.6821823"
       ry="1.6821821" />
    <ellipse
       style="fill:none;stroke:#ff0000;stroke-width:0.135636"
       id="ellipse4086"
       cx="243.75"
       cy="96.75"
       rx="1.6821823"
       ry="1.6821821" />
  </g>
</svg>
