%TF.GenerationSoftware,KiCad,Pcbnew,10.0.3*%
%TF.CreationDate,2026-07-10T08:55:56+10:00*%
%TF.ProjectId,load mini 7 tht,6c6f6164-206d-4696-9e69-203720746874,rev?*%
%TF.SameCoordinates,Original*%
%TF.FileFunction,Copper,L1,Top*%
%TF.FilePolarity,Positive*%
%FSLAX46Y46*%
G04 Gerber Fmt 4.6, Leading zero omitted, Abs format (unit mm)*
G04 Created by KiCad (PCBNEW 10.0.3) date 2026-07-10 08:55:56*
%MOMM*%
%LPD*%
G01*
G04 APERTURE LIST*
G04 Aperture macros list*
%AMRoundRect*
0 Rectangle with rounded corners*
0 $1 Rounding radius*
0 $2 $3 $4 $5 $6 $7 $8 $9 X,Y pos of 4 corners*
0 Add a 4 corners polygon primitive as box body*
4,1,4,$2,$3,$4,$5,$6,$7,$8,$9,$2,$3,0*
0 Add four circle primitives for the rounded corners*
1,1,$1+$1,$2,$3*
1,1,$1+$1,$4,$5*
1,1,$1+$1,$6,$7*
1,1,$1+$1,$8,$9*
0 Add four rect primitives between the rounded corners*
20,1,$1+$1,$2,$3,$4,$5,0*
20,1,$1+$1,$4,$5,$6,$7,0*
20,1,$1+$1,$6,$7,$8,$9,0*
20,1,$1+$1,$8,$9,$2,$3,0*%
G04 Aperture macros list end*
%TA.AperFunction,ComponentPad*%
%ADD10R,1.700000X1.700000*%
%TD*%
%TA.AperFunction,ComponentPad*%
%ADD11R,1.050000X1.500000*%
%TD*%
%TA.AperFunction,ComponentPad*%
%ADD12O,1.050000X1.500000*%
%TD*%
%TA.AperFunction,ComponentPad*%
%ADD13C,1.400000*%
%TD*%
%TA.AperFunction,ComponentPad*%
%ADD14O,1.400000X1.400000*%
%TD*%
%TA.AperFunction,ComponentPad*%
%ADD15RoundRect,0.250001X-0.799999X-0.799999X0.799999X-0.799999X0.799999X0.799999X-0.799999X0.799999X0*%
%TD*%
%TA.AperFunction,ComponentPad*%
%ADD16O,1.700000X1.700000*%
%TD*%
%TA.AperFunction,ComponentPad*%
%ADD17C,1.600000*%
%TD*%
%TA.AperFunction,ComponentPad*%
%ADD18R,1.400000X1.400000*%
%TD*%
%TA.AperFunction,ComponentPad*%
%ADD19R,1.600000X1.600000*%
%TD*%
%TA.AperFunction,ComponentPad*%
%ADD20O,1.600000X1.600000*%
%TD*%
%TA.AperFunction,Conductor*%
%ADD21C,0.609600*%
%TD*%
%TA.AperFunction,Conductor*%
%ADD22C,0.812800*%
%TD*%
G04 APERTURE END LIST*
D10*
%TO.P,J7,1,Pin_1_1*%
%TO.N,/Rly*%
X48107600Y22199600D03*
%TD*%
D11*
%TO.P,Q1,1,C_1*%
%TO.N,Net-(D2-A)*%
X33426400Y21844000D03*
D12*
%TO.P,Q1,2,B_2*%
%TO.N,Net-(Q1-B)*%
X34696400Y21844000D03*
%TO.P,Q1,3,E_3*%
%TO.N,GND*%
X35966400Y21844000D03*
%TD*%
D13*
%TO.P,R6,1*%
%TO.N,Net-(Q1-B)*%
X40182800Y21945600D03*
D14*
%TO.P,R6,2*%
%TO.N,/Rly*%
X42722800Y21945600D03*
%TD*%
D13*
%TO.P,R2,1*%
%TO.N,/Vref*%
X35560000Y1701800D03*
D14*
%TO.P,R2,2*%
%TO.N,/K+*%
X35560000Y4241800D03*
%TD*%
D15*
%TO.P,J6,1,Pin_1_1*%
%TO.N,/G*%
X2514600Y2209800D03*
%TD*%
D13*
%TO.P,R3,1*%
%TO.N,/Vref*%
X40055800Y1778000D03*
D14*
%TO.P,R3,2*%
%TO.N,+12V*%
X40055800Y4318000D03*
%TD*%
D15*
%TO.P,J4,1,Pin_1_1*%
%TO.N,/E*%
X2514600Y6121400D03*
%TD*%
D13*
%TO.P,R4,1*%
%TO.N,/F*%
X32740600Y10058400D03*
D14*
%TO.P,R4,2*%
%TO.N,/K-*%
X35280600Y10058400D03*
%TD*%
D13*
%TO.P,R5,1*%
%TO.N,/Vref*%
X31030333Y1727200D03*
D14*
%TO.P,R5,2*%
%TO.N,/K-*%
X31030333Y4267200D03*
%TD*%
D10*
%TO.P,J3,1,Pin_1_1*%
%TO.N,/K-*%
X39319200Y10922000D03*
D16*
%TO.P,J3,2,Pin_2_2*%
%TO.N,/K+*%
X39319200Y13462000D03*
%TD*%
D15*
%TO.P,J1,1,Pin_1_1*%
%TO.N,/A*%
X2514600Y18796000D03*
%TD*%
D17*
%TO.P,C1,1*%
%TO.N,GND*%
X40309800Y18262600D03*
%TO.P,C1,2*%
%TO.N,/K+*%
X35309800Y18262600D03*
%TD*%
D13*
%TO.P,R1,1*%
%TO.N,/C*%
X32714400Y14376400D03*
D14*
%TO.P,R1,2*%
%TO.N,/K+*%
X35254400Y14376400D03*
%TD*%
D10*
%TO.P,J5,1,Pin_1_1*%
%TO.N,GND*%
X48133000Y3175000D03*
D16*
%TO.P,J5,2,Pin_2_2*%
%TO.N,+12V*%
X48133000Y5715000D03*
%TD*%
D15*
%TO.P,J2,1,Pin_1_1*%
%TO.N,/B*%
X2514600Y23139400D03*
%TD*%
D18*
%TO.P,K1,1*%
%TO.N,Net-(D2-A)*%
X27889200Y16078200D03*
D13*
%TO.P,K1,4*%
%TO.N,/C*%
X20269200Y16078200D03*
%TO.P,K1,6*%
%TO.N,/B*%
X15189200Y16078200D03*
%TO.P,K1,8*%
%TO.N,/A*%
X10109200Y16078200D03*
%TO.P,K1,9*%
%TO.N,/E*%
X10109200Y8458200D03*
%TO.P,K1,11*%
%TO.N,/G*%
X15189200Y8458200D03*
%TO.P,K1,13*%
%TO.N,/F*%
X20269200Y8458200D03*
%TO.P,K1,16*%
%TO.N,+12V*%
X27889200Y8458200D03*
%TD*%
D19*
%TO.P,D2,1,K_1*%
%TO.N,+12V*%
X25374600Y21945600D03*
D20*
%TO.P,D2,2,A_2*%
%TO.N,Net-(D2-A)*%
X27914600Y21945600D03*
%TD*%
D19*
%TO.P,D1,1,K_1*%
%TO.N,GND*%
X26517600Y4318000D03*
D20*
%TO.P,D1,2,A_2*%
%TO.N,/Vref*%
X26517600Y1778000D03*
%TD*%
D17*
%TO.P,C2,1*%
%TO.N,/Vref*%
X22047200Y1778000D03*
%TO.P,C2,2*%
%TO.N,GND*%
X17047200Y1778000D03*
%TD*%
%TO.N,/K+*%
D21*
X35279800Y14351000D02*
X38430200Y14351000D01*
X38430200Y14351000D02*
X39319200Y13462000D01*
X35280600Y14402600D02*
X35254400Y14376400D01*
X41300400Y13462000D02*
X39319200Y13462000D01*
X35534600Y4267200D02*
X35534600Y4292600D01*
X41910000Y12852400D02*
X41300400Y13462000D01*
X35280600Y18233400D02*
X35280600Y14402600D01*
X41148000Y7924800D02*
X41910000Y8686800D01*
X35254400Y14376400D02*
X35279800Y14351000D01*
X39166800Y7924800D02*
X41148000Y7924800D01*
X35534600Y4292600D02*
X39166800Y7924800D01*
X35309800Y18262600D02*
X35280600Y18233400D01*
X41910000Y8686800D02*
X41910000Y12852400D01*
%TO.N,/K-*%
X39319200Y10922000D02*
X38455600Y10058400D01*
X38455600Y10058400D02*
X35280600Y10058400D01*
X35280600Y8509000D02*
X31030333Y4258733D01*
X35280600Y10058400D02*
X35280600Y8509000D01*
%TO.N,/A*%
X2514600Y18796000D02*
X8966200Y18796000D01*
X8966200Y18796000D02*
X10109200Y17653000D01*
X10109200Y17653000D02*
X10109200Y16078200D01*
%TO.N,/B*%
X10693400Y23139400D02*
X15189200Y18643600D01*
X15189200Y18643600D02*
X15189200Y16078200D01*
X2514600Y23139400D02*
X10693400Y23139400D01*
%TO.N,/Rly*%
X48107600Y22199600D02*
X48006000Y22098000D01*
X42875200Y22098000D02*
X42722800Y21945600D01*
X48006000Y22098000D02*
X42875200Y22098000D01*
%TO.N,/C*%
X29057600Y12166600D02*
X31267400Y14376400D01*
X21717000Y12166600D02*
X29057600Y12166600D01*
X20269200Y13614400D02*
X21717000Y12166600D01*
X31267400Y14376400D02*
X32714400Y14376400D01*
X20269200Y16078200D02*
X20269200Y13614400D01*
%TO.N,/Vref*%
X31030333Y1727200D02*
X35534600Y1727200D01*
X26517600Y1778000D02*
X30979533Y1778000D01*
X30979533Y1778000D02*
X31030333Y1727200D01*
X26517600Y1778000D02*
X22047200Y1778000D01*
X40005000Y1727200D02*
X40055800Y1778000D01*
X35534600Y1727200D02*
X40005000Y1727200D01*
X35534600Y1727200D02*
X35560000Y1701800D01*
%TO.N,/E*%
X2514600Y6121400D02*
X8737600Y6121400D01*
X10109200Y7493000D02*
X10109200Y8458200D01*
X8737600Y6121400D02*
X10109200Y7493000D01*
%TO.N,/G*%
X11277600Y2209800D02*
X15189200Y6121400D01*
X15189200Y6121400D02*
X15189200Y8458200D01*
X2514600Y2209800D02*
X11277600Y2209800D01*
%TO.N,Net-(Q1-B)*%
X35306000Y23876000D02*
X34696400Y23266400D01*
X39624000Y23876000D02*
X35306000Y23876000D01*
X34696400Y23266400D02*
X34696400Y21844000D01*
X40182800Y23317200D02*
X39624000Y23876000D01*
X40182800Y21945600D02*
X40182800Y23317200D01*
%TO.N,Net-(D2-A)*%
D22*
X27914600Y16103600D02*
X27914600Y21945600D01*
X27889200Y16078200D02*
X27914600Y16103600D01*
X27914600Y21945600D02*
X33324800Y21945600D01*
X33324800Y21945600D02*
X33426400Y21844000D01*
%TO.N,+12V*%
D21*
X48107600Y5689600D02*
X48133000Y5715000D01*
X40055800Y4419600D02*
X41325800Y5689600D01*
X41325800Y5689600D02*
X48107600Y5689600D01*
X28194000Y8407400D02*
X28194000Y8458200D01*
%TD*%
%TA.AperFunction,Conductor*%
%TO.N,GND*%
G36*
X1022970Y24236498D02*
G01*
X1069463Y24182842D01*
X1079567Y24112568D01*
X1075847Y24095355D01*
X1069197Y24072466D01*
X1060630Y24042977D01*
X1057700Y24005746D01*
X1057700Y22273065D01*
X1060630Y22235825D01*
X1106936Y22076439D01*
X1191421Y21933583D01*
X1191424Y21933579D01*
X1308778Y21816225D01*
X1308782Y21816222D01*
X1451641Y21731735D01*
X1611022Y21685431D01*
X1648263Y21682500D01*
X3380936Y21682501D01*
X3418178Y21685431D01*
X3577559Y21731735D01*
X3720418Y21816222D01*
X3837778Y21933582D01*
X3922265Y22076441D01*
X3968569Y22235822D01*
X3971499Y22273056D01*
X3971500Y22273056D01*
X3971500Y22301700D01*
X3991502Y22369821D01*
X4045158Y22416314D01*
X4097500Y22427700D01*
X10346414Y22427700D01*
X10414535Y22407698D01*
X10435509Y22390795D01*
X14440595Y18385709D01*
X14474621Y18323397D01*
X14477500Y18296614D01*
X14477500Y16984084D01*
X14457498Y16915963D01*
X14440595Y16894989D01*
X14344908Y16799303D01*
X14344905Y16799300D01*
X14242496Y16658346D01*
X14163393Y16503099D01*
X14109556Y16337405D01*
X14082300Y16165313D01*
X14082300Y15991088D01*
X14109556Y15818996D01*
X14163393Y15653302D01*
X14163394Y15653299D01*
X14163395Y15653298D01*
X14233449Y15515809D01*
X14242496Y15498055D01*
X14344905Y15357101D01*
X14468100Y15233906D01*
X14524462Y15192957D01*
X14609058Y15131494D01*
X14764298Y15052395D01*
X14930000Y14998555D01*
X15102085Y14971300D01*
X15102087Y14971300D01*
X15276313Y14971300D01*
X15276315Y14971300D01*
X15448400Y14998555D01*
X15614102Y15052395D01*
X15769342Y15131494D01*
X15910297Y15233904D01*
X16033496Y15357103D01*
X16135906Y15498058D01*
X16215005Y15653298D01*
X16268845Y15819000D01*
X16296100Y15991085D01*
X16296100Y16165313D01*
X19162300Y16165313D01*
X19162300Y15991088D01*
X19189556Y15818996D01*
X19243393Y15653302D01*
X19243394Y15653299D01*
X19243395Y15653298D01*
X19313449Y15515809D01*
X19322496Y15498055D01*
X19424905Y15357101D01*
X19520595Y15261411D01*
X19554621Y15199099D01*
X19557500Y15172316D01*
X19557500Y13689714D01*
X19557499Y13689688D01*
X19557499Y13544302D01*
X19560238Y13530534D01*
X19581846Y13421900D01*
X19584849Y13406806D01*
X19584850Y13406801D01*
X19611017Y13343632D01*
X19638499Y13277283D01*
X19716386Y13160717D01*
X19808816Y13068287D01*
X19819917Y13057186D01*
X19819928Y13057176D01*
X21161010Y11716094D01*
X21161024Y11716079D01*
X21164185Y11712918D01*
X21164186Y11712917D01*
X21263317Y11613786D01*
X21379883Y11535899D01*
X21447096Y11508059D01*
X21447097Y11508058D01*
X21509392Y11482254D01*
X21509400Y11482252D01*
X21509404Y11482250D01*
X21646904Y11454899D01*
X21793309Y11454899D01*
X21793329Y11454900D01*
X28981271Y11454900D01*
X28981291Y11454899D01*
X28987504Y11454899D01*
X29127695Y11454899D01*
X29127696Y11454899D01*
X29265195Y11482249D01*
X29329956Y11509075D01*
X29394717Y11535899D01*
X29511283Y11613786D01*
X29610414Y11712917D01*
X29610415Y11712920D01*
X29617587Y11720091D01*
X29617592Y11720098D01*
X31525293Y13627798D01*
X31552665Y13642744D01*
X31578888Y13659596D01*
X31585186Y13660502D01*
X31587603Y13661821D01*
X31614386Y13664700D01*
X31808516Y13664700D01*
X31876637Y13644698D01*
X31897611Y13627795D01*
X31993300Y13532106D01*
X31993303Y13532104D01*
X32134258Y13429694D01*
X32289498Y13350595D01*
X32455200Y13296755D01*
X32627285Y13269500D01*
X32627287Y13269500D01*
X32801513Y13269500D01*
X32801515Y13269500D01*
X32973600Y13296755D01*
X33139302Y13350595D01*
X33294542Y13429694D01*
X33435497Y13532104D01*
X33558696Y13655303D01*
X33661106Y13796258D01*
X33740205Y13951498D01*
X33794045Y14117200D01*
X33821300Y14289285D01*
X33821300Y14463515D01*
X33794045Y14635600D01*
X33740205Y14801302D01*
X33661106Y14956542D01*
X33558696Y15097497D01*
X33558694Y15097500D01*
X33435499Y15220695D01*
X33294545Y15323104D01*
X33294544Y15323105D01*
X33294542Y15323106D01*
X33139302Y15402205D01*
X33139301Y15402206D01*
X33139298Y15402207D01*
X32973604Y15456044D01*
X32973602Y15456045D01*
X32973600Y15456045D01*
X32801515Y15483300D01*
X32627285Y15483300D01*
X32455200Y15456045D01*
X32455198Y15456045D01*
X32455195Y15456044D01*
X32289501Y15402207D01*
X32134254Y15323104D01*
X31993300Y15220695D01*
X31993297Y15220692D01*
X31897611Y15125005D01*
X31835299Y15090979D01*
X31808516Y15088100D01*
X31343729Y15088100D01*
X31343709Y15088101D01*
X31337496Y15088101D01*
X31197304Y15088101D01*
X31197301Y15088101D01*
X31059804Y15060751D01*
X31059799Y15060749D01*
X30930283Y15007101D01*
X30813721Y14929217D01*
X30813714Y14929212D01*
X30756687Y14872184D01*
X30714586Y14830083D01*
X30714583Y14830080D01*
X29756795Y13872291D01*
X28799709Y12915205D01*
X28737397Y12881180D01*
X28710614Y12878300D01*
X22063986Y12878300D01*
X21995865Y12898302D01*
X21974891Y12915205D01*
X21017805Y13872291D01*
X20983779Y13934603D01*
X20980900Y13961386D01*
X20980900Y15172316D01*
X21000902Y15240437D01*
X21017805Y15261411D01*
X21113491Y15357098D01*
X21113494Y15357101D01*
X21113496Y15357103D01*
X21215906Y15498058D01*
X21295005Y15653298D01*
X21348845Y15819000D01*
X21376100Y15991085D01*
X21376100Y16165315D01*
X21348845Y16337400D01*
X21295005Y16503102D01*
X21215906Y16658342D01*
X21113496Y16799297D01*
X21113494Y16799300D01*
X20990299Y16922495D01*
X20849345Y17024904D01*
X20849344Y17024905D01*
X20849342Y17024906D01*
X20694102Y17104005D01*
X20694101Y17104006D01*
X20694098Y17104007D01*
X20528404Y17157844D01*
X20528402Y17157845D01*
X20528400Y17157845D01*
X20356315Y17185100D01*
X20182085Y17185100D01*
X20010000Y17157845D01*
X20009998Y17157845D01*
X20009995Y17157844D01*
X19844301Y17104007D01*
X19689054Y17024904D01*
X19548100Y16922495D01*
X19424905Y16799300D01*
X19322496Y16658346D01*
X19243393Y16503099D01*
X19189556Y16337405D01*
X19162300Y16165313D01*
X16296100Y16165313D01*
X16296100Y16165315D01*
X16268845Y16337400D01*
X16215005Y16503102D01*
X16135906Y16658342D01*
X16033496Y16799297D01*
X16033494Y16799300D01*
X15937805Y16894989D01*
X15903779Y16957301D01*
X15900900Y16984084D01*
X15900900Y18567271D01*
X15900901Y18567292D01*
X15900901Y18713692D01*
X15900901Y18713696D01*
X15873550Y18851195D01*
X15867378Y18866096D01*
X15819901Y18980717D01*
X15742014Y19097283D01*
X15642883Y19196414D01*
X15642882Y19196415D01*
X15639721Y19199576D01*
X15639706Y19199590D01*
X12068626Y22770670D01*
X24320100Y22770670D01*
X24320100Y21120537D01*
X24320101Y21120527D01*
X24334865Y21046300D01*
X24391116Y20962116D01*
X24475297Y20905867D01*
X24475299Y20905866D01*
X24549533Y20891100D01*
X26199666Y20891101D01*
X26199669Y20891102D01*
X26199673Y20891102D01*
X26248926Y20900899D01*
X26273901Y20905866D01*
X26358084Y20962116D01*
X26414334Y21046299D01*
X26429100Y21120533D01*
X26429099Y22770666D01*
X26429098Y22770670D01*
X26429098Y22770674D01*
X26414334Y22844901D01*
X26401962Y22863417D01*
X26358084Y22929084D01*
X26358083Y22929085D01*
X26273902Y22985334D01*
X26199667Y23000100D01*
X24549536Y23000100D01*
X24549526Y23000099D01*
X24475299Y22985335D01*
X24391115Y22929084D01*
X24334866Y22844903D01*
X24320100Y22770670D01*
X12068626Y22770670D01*
X11250624Y23588672D01*
X11250615Y23588682D01*
X11229472Y23609825D01*
X11147083Y23692214D01*
X11030517Y23770101D01*
X10952619Y23802367D01*
X10952619Y23802368D01*
X10952617Y23802368D01*
X10900999Y23823750D01*
X10900995Y23823751D01*
X10855162Y23832868D01*
X10763498Y23851101D01*
X10763496Y23851101D01*
X10623304Y23851101D01*
X10617091Y23851101D01*
X10617071Y23851100D01*
X4097499Y23851100D01*
X4029378Y23871102D01*
X3982885Y23924758D01*
X3972910Y23958299D01*
X3971499Y23967650D01*
X3971499Y24005736D01*
X3968569Y24042978D01*
X3951013Y24103405D01*
X3949762Y24111699D01*
X3953478Y24138895D01*
X3953557Y24166344D01*
X3958213Y24173545D01*
X3959375Y24182042D01*
X3977205Y24202913D01*
X3992111Y24225960D01*
X3999921Y24229501D01*
X4005493Y24236021D01*
X4031778Y24243939D01*
X4056776Y24255268D01*
X4073219Y24256421D01*
X4073473Y24256497D01*
X4073637Y24256450D01*
X4074351Y24256500D01*
X34591339Y24256500D01*
X34659460Y24236498D01*
X34705953Y24182842D01*
X34716057Y24112568D01*
X34686563Y24047988D01*
X34680435Y24041405D01*
X34352982Y23713951D01*
X34352981Y23713951D01*
X34248854Y23609825D01*
X34248846Y23609815D01*
X34175216Y23482283D01*
X34137100Y23340032D01*
X34137100Y22970080D01*
X34117098Y22901959D01*
X34063442Y22855466D01*
X33993168Y22845362D01*
X33986519Y22846501D01*
X33976469Y22848500D01*
X32876336Y22848500D01*
X32876326Y22848499D01*
X32802099Y22833735D01*
X32717915Y22777484D01*
X32661665Y22693302D01*
X32657930Y22684283D01*
X32613382Y22629001D01*
X32546019Y22606580D01*
X32541521Y22606500D01*
X28797178Y22606500D01*
X28729057Y22626502D01*
X28708083Y22643405D01*
X28586809Y22764679D01*
X28586803Y22764684D01*
X28483461Y22833735D01*
X28414093Y22880086D01*
X28222186Y22959576D01*
X28018461Y23000100D01*
X28018459Y23000100D01*
X27810741Y23000100D01*
X27810738Y23000100D01*
X27607013Y22959576D01*
X27607008Y22959574D01*
X27415107Y22880086D01*
X27242396Y22764684D01*
X27242390Y22764679D01*
X27095521Y22617810D01*
X27095516Y22617804D01*
X26980114Y22445093D01*
X26900626Y22253192D01*
X26900624Y22253187D01*
X26860100Y22049462D01*
X26860100Y21841739D01*
X26888442Y21699255D01*
X26900624Y21638014D01*
X26980114Y21446107D01*
X27016419Y21391774D01*
X27095516Y21273397D01*
X27095521Y21273391D01*
X27216795Y21152117D01*
X27250821Y21089805D01*
X27253700Y21063022D01*
X27253700Y17153921D01*
X27233698Y17085800D01*
X27180042Y17039307D01*
X27152281Y17030342D01*
X27089898Y17017934D01*
X27005715Y16961684D01*
X26949466Y16877503D01*
X26934700Y16803270D01*
X26934700Y15353137D01*
X26934701Y15353127D01*
X26949465Y15278900D01*
X27005716Y15194716D01*
X27089897Y15138467D01*
X27089899Y15138466D01*
X27164133Y15123700D01*
X28614266Y15123701D01*
X28614269Y15123702D01*
X28614273Y15123702D01*
X28679536Y15136683D01*
X28688501Y15138466D01*
X28772684Y15194716D01*
X28828934Y15278899D01*
X28843700Y15353133D01*
X28843699Y16803266D01*
X28843698Y16803270D01*
X28843698Y16803274D01*
X28828934Y16877501D01*
X28803234Y16915963D01*
X28772684Y16961684D01*
X28772683Y16961685D01*
X28688501Y17017935D01*
X28676913Y17020240D01*
X28614005Y17053150D01*
X28578876Y17114847D01*
X28575500Y17143818D01*
X28575500Y18366462D01*
X34255300Y18366462D01*
X34255300Y18158739D01*
X34295170Y17958300D01*
X34295824Y17955014D01*
X34375314Y17763107D01*
X34490717Y17590396D01*
X34637596Y17443517D01*
X34665302Y17425004D01*
X34710830Y17370528D01*
X34721300Y17320240D01*
X34721300Y15235510D01*
X34701298Y15167389D01*
X34665305Y15130747D01*
X34645944Y15117810D01*
X34645936Y15117804D01*
X34512996Y14984864D01*
X34512991Y14984858D01*
X34408533Y14828525D01*
X34336583Y14654823D01*
X34336581Y14654818D01*
X34299900Y14470413D01*
X34299900Y14470410D01*
X34299900Y14282390D01*
X34336581Y14097983D01*
X34408533Y13924275D01*
X34418373Y13909549D01*
X34512991Y13767943D01*
X34512996Y13767937D01*
X34645936Y13634997D01*
X34645942Y13634992D01*
X34802275Y13530533D01*
X34975983Y13458581D01*
X35160390Y13421900D01*
X35160391Y13421900D01*
X35348409Y13421900D01*
X35348410Y13421900D01*
X35532817Y13458581D01*
X35706525Y13530533D01*
X35862858Y13634992D01*
X35917580Y13689714D01*
X35982662Y13754795D01*
X36044974Y13788821D01*
X36071757Y13791700D01*
X38105625Y13791700D01*
X38173746Y13771698D01*
X38220239Y13718042D01*
X38230343Y13647768D01*
X38230083Y13646053D01*
X38214700Y13548926D01*
X38214700Y13375074D01*
X38227105Y13296755D01*
X38241898Y13203358D01*
X38289395Y13057176D01*
X38295620Y13038019D01*
X38368943Y12894115D01*
X38374549Y12883113D01*
X38476736Y12742465D01*
X38599664Y12619537D01*
X38599667Y12619535D01*
X38740316Y12517347D01*
X38895219Y12438420D01*
X39060562Y12384697D01*
X39232274Y12357500D01*
X39232277Y12357500D01*
X39406123Y12357500D01*
X39406126Y12357500D01*
X39577838Y12384697D01*
X39743181Y12438420D01*
X39898084Y12517347D01*
X40038733Y12619535D01*
X40161665Y12742467D01*
X40240346Y12850763D01*
X40296569Y12894115D01*
X40342282Y12902700D01*
X41016541Y12902700D01*
X41084662Y12882698D01*
X41105636Y12865795D01*
X41313795Y12657636D01*
X41347821Y12595324D01*
X41350700Y12568541D01*
X41350700Y8970659D01*
X41330698Y8902538D01*
X41313795Y8881564D01*
X40953236Y8521005D01*
X40890924Y8486979D01*
X40864141Y8484100D01*
X39240434Y8484100D01*
X39093167Y8484100D01*
X39043975Y8470919D01*
X38950914Y8445984D01*
X38823385Y8372355D01*
X38823375Y8372347D01*
X35684236Y5233205D01*
X35621924Y5199180D01*
X35595141Y5196300D01*
X35465987Y5196300D01*
X35281582Y5159619D01*
X35281577Y5159617D01*
X35107875Y5087667D01*
X34951542Y4983209D01*
X34951536Y4983204D01*
X34818596Y4850264D01*
X34818591Y4850258D01*
X34714133Y4693925D01*
X34642183Y4520223D01*
X34642181Y4520218D01*
X34605500Y4335813D01*
X34605500Y4147788D01*
X34610211Y4124107D01*
X34642181Y3963383D01*
X34714133Y3789675D01*
X34767680Y3709537D01*
X34818591Y3633343D01*
X34818596Y3633337D01*
X34951536Y3500397D01*
X34951542Y3500392D01*
X35107875Y3395933D01*
X35281583Y3323981D01*
X35465990Y3287300D01*
X35465991Y3287300D01*
X35654009Y3287300D01*
X35654010Y3287300D01*
X35838417Y3323981D01*
X36012125Y3395933D01*
X36168458Y3500392D01*
X36301408Y3633342D01*
X36405867Y3789675D01*
X36477819Y3963383D01*
X36514500Y4147790D01*
X36514500Y4335810D01*
X36503462Y4391302D01*
X36504181Y4399337D01*
X36501362Y4406895D01*
X36502475Y4412013D01*
X39101300Y4412013D01*
X39101300Y4223988D01*
X39131454Y4072394D01*
X39137981Y4039583D01*
X39209933Y3865875D01*
X39243876Y3815076D01*
X39314391Y3709543D01*
X39314396Y3709537D01*
X39447336Y3576597D01*
X39447342Y3576592D01*
X39603675Y3472133D01*
X39777383Y3400181D01*
X39961790Y3363500D01*
X39961791Y3363500D01*
X40149809Y3363500D01*
X40149810Y3363500D01*
X40334217Y3400181D01*
X40507925Y3472133D01*
X40664258Y3576592D01*
X40797208Y3709542D01*
X40901667Y3865875D01*
X40973619Y4039583D01*
X40975696Y4050023D01*
X47029000Y4050023D01*
X47029000Y3429000D01*
X47702297Y3429000D01*
X47667075Y3367993D01*
X47633000Y3240826D01*
X47633000Y3109174D01*
X47667075Y2982007D01*
X47702297Y2921000D01*
X47029001Y2921000D01*
X47029001Y2299978D01*
X47043737Y2225895D01*
X47043737Y2225893D01*
X47099875Y2141876D01*
X47183893Y2085738D01*
X47183894Y2085737D01*
X47257980Y2071001D01*
X47879000Y2071001D01*
X47879000Y2744298D01*
X47940007Y2709075D01*
X48067174Y2675000D01*
X48198826Y2675000D01*
X48325993Y2709075D01*
X48387000Y2744298D01*
X48387000Y2071001D01*
X49008014Y2071001D01*
X49008022Y2071002D01*
X49082105Y2085738D01*
X49082107Y2085738D01*
X49166124Y2141876D01*
X49222262Y2225894D01*
X49222263Y2225895D01*
X49236999Y2299978D01*
X49237000Y2299985D01*
X49237000Y2921000D01*
X48563703Y2921000D01*
X48598925Y2982007D01*
X48633000Y3109174D01*
X48633000Y3240826D01*
X48598925Y3367993D01*
X48563703Y3429000D01*
X49236999Y3429000D01*
X49236999Y4050014D01*
X49236998Y4050023D01*
X49222262Y4124106D01*
X49222262Y4124108D01*
X49166124Y4208125D01*
X49082106Y4264263D01*
X49082105Y4264264D01*
X49008022Y4279000D01*
X48387000Y4279000D01*
X48387000Y3605703D01*
X48325993Y3640925D01*
X48198826Y3675000D01*
X48067174Y3675000D01*
X47940007Y3640925D01*
X47879000Y3605703D01*
X47879000Y4279000D01*
X47257986Y4279000D01*
X47257976Y4278999D01*
X47183894Y4264263D01*
X47183892Y4264263D01*
X47099875Y4208125D01*
X47043737Y4124107D01*
X47043736Y4124106D01*
X47029000Y4050023D01*
X40975696Y4050023D01*
X41010300Y4223990D01*
X41010300Y4412010D01*
X40995048Y4488687D01*
X41001376Y4559400D01*
X41029529Y4602361D01*
X41520566Y5093396D01*
X41582878Y5127421D01*
X41609661Y5130300D01*
X47128373Y5130300D01*
X47196494Y5110298D01*
X47230308Y5078362D01*
X47290535Y4995467D01*
X47290537Y4995465D01*
X47290539Y4995462D01*
X47413464Y4872537D01*
X47481150Y4823360D01*
X47554116Y4770347D01*
X47709019Y4691420D01*
X47874362Y4637697D01*
X48046074Y4610500D01*
X48046077Y4610500D01*
X48219923Y4610500D01*
X48219926Y4610500D01*
X48391638Y4637697D01*
X48556981Y4691420D01*
X48711884Y4770347D01*
X48852533Y4872535D01*
X48975465Y4995467D01*
X49077653Y5136116D01*
X49156580Y5291019D01*
X49210303Y5456362D01*
X49237500Y5628074D01*
X49237500Y5801926D01*
X49210303Y5973638D01*
X49156580Y6138981D01*
X49077653Y6293884D01*
X48975465Y6434533D01*
X48975463Y6434536D01*
X48852535Y6557464D01*
X48711887Y6659651D01*
X48711886Y6659652D01*
X48711884Y6659653D01*
X48556981Y6738580D01*
X48556978Y6738581D01*
X48556976Y6738582D01*
X48391642Y6792302D01*
X48391640Y6792303D01*
X48391638Y6792303D01*
X48219926Y6819500D01*
X48046074Y6819500D01*
X47874362Y6792303D01*
X47874360Y6792303D01*
X47874357Y6792302D01*
X47709023Y6738582D01*
X47709017Y6738579D01*
X47554112Y6659651D01*
X47413464Y6557464D01*
X47290536Y6434536D01*
X47193400Y6300839D01*
X47137177Y6257485D01*
X47091464Y6248900D01*
X41252167Y6248900D01*
X41109918Y6210784D01*
X41109916Y6210784D01*
X41109912Y6210782D01*
X41046150Y6173968D01*
X40982384Y6137154D01*
X40982378Y6137149D01*
X40154636Y5309405D01*
X40092323Y5275380D01*
X40065540Y5272500D01*
X39961787Y5272500D01*
X39777382Y5235819D01*
X39777377Y5235817D01*
X39603675Y5163867D01*
X39447342Y5059409D01*
X39447336Y5059404D01*
X39314396Y4926464D01*
X39314391Y4926458D01*
X39209933Y4770125D01*
X39137983Y4596423D01*
X39137981Y4596418D01*
X39101300Y4412013D01*
X36502475Y4412013D01*
X36505865Y4427600D01*
X36504639Y4436132D01*
X36508164Y4443852D01*
X36509790Y4462016D01*
X36515122Y4470153D01*
X36516453Y4476269D01*
X36533165Y4498593D01*
X36534133Y4500712D01*
X36537292Y4504107D01*
X36537942Y4504975D01*
X39361567Y7328598D01*
X39423877Y7362621D01*
X39450660Y7365500D01*
X41221631Y7365500D01*
X41221633Y7365500D01*
X41363882Y7403616D01*
X41491418Y7477249D01*
X41595551Y7581382D01*
X42357551Y8343382D01*
X42431185Y8470919D01*
X42469300Y8613167D01*
X42469300Y8760433D01*
X42469300Y12926033D01*
X42455578Y12977244D01*
X42431185Y13068281D01*
X42377817Y13160717D01*
X42357554Y13195815D01*
X42357549Y13195821D01*
X41643820Y13909549D01*
X41643814Y13909554D01*
X41610393Y13928849D01*
X41516282Y13983184D01*
X41374033Y14021300D01*
X41374031Y14021300D01*
X40342282Y14021300D01*
X40274161Y14041302D01*
X40240346Y14073238D01*
X40236887Y14077999D01*
X40161665Y14181533D01*
X40161661Y14181537D01*
X40161659Y14181540D01*
X40038735Y14304464D01*
X39898087Y14406651D01*
X39898086Y14406652D01*
X39898084Y14406653D01*
X39743181Y14485580D01*
X39743178Y14485581D01*
X39743176Y14485582D01*
X39577842Y14539302D01*
X39577840Y14539303D01*
X39577838Y14539303D01*
X39406126Y14566500D01*
X39232274Y14566500D01*
X39100060Y14545560D01*
X39029651Y14554659D01*
X38991258Y14580911D01*
X38773618Y14798551D01*
X38773616Y14798552D01*
X38773614Y14798554D01*
X38729624Y14823951D01*
X38646082Y14872184D01*
X38503833Y14910300D01*
X38503831Y14910300D01*
X36112974Y14910300D01*
X36044853Y14930302D01*
X36021113Y14950059D01*
X36013991Y14957645D01*
X35995808Y14984858D01*
X35875404Y15105262D01*
X35874039Y15106716D01*
X35858882Y15136683D01*
X35842779Y15166174D01*
X35842458Y15169156D01*
X35841996Y15170070D01*
X35842174Y15171798D01*
X35839900Y15192957D01*
X35839900Y17281218D01*
X35859902Y17349339D01*
X35895898Y17385983D01*
X35909556Y17395109D01*
X35982004Y17443517D01*
X36128883Y17590396D01*
X36244286Y17763107D01*
X36323776Y17955014D01*
X36364300Y18158741D01*
X36364300Y18366416D01*
X39255800Y18366416D01*
X39255800Y18158785D01*
X39296304Y17955161D01*
X39296305Y17955158D01*
X39375759Y17763340D01*
X39406027Y17718039D01*
X39909800Y18221812D01*
X39909800Y18209939D01*
X39937059Y18108206D01*
X39989720Y18016994D01*
X40064194Y17942520D01*
X40155406Y17889859D01*
X40257139Y17862600D01*
X40269010Y17862600D01*
X39765238Y17358830D01*
X39810543Y17328558D01*
X40002357Y17249106D01*
X40002360Y17249105D01*
X40205984Y17208601D01*
X40205991Y17208600D01*
X40413609Y17208600D01*
X40413615Y17208601D01*
X40617239Y17249105D01*
X40617242Y17249106D01*
X40809057Y17328559D01*
X40854360Y17358829D01*
X40854361Y17358830D01*
X40350591Y17862600D01*
X40362461Y17862600D01*
X40464194Y17889859D01*
X40555406Y17942520D01*
X40629880Y18016994D01*
X40682541Y18108206D01*
X40709800Y18209939D01*
X40709800Y18221809D01*
X41213570Y17718039D01*
X41213571Y17718040D01*
X41243841Y17763343D01*
X41323294Y17955158D01*
X41323295Y17955161D01*
X41363799Y18158785D01*
X41363800Y18158792D01*
X41363800Y18366409D01*
X41363799Y18366416D01*
X41323295Y18570040D01*
X41323294Y18570043D01*
X41243842Y18761857D01*
X41213570Y18807162D01*
X40709800Y18303392D01*
X40709800Y18315261D01*
X40682541Y18416994D01*
X40629880Y18508206D01*
X40555406Y18582680D01*
X40464194Y18635341D01*
X40362461Y18662600D01*
X40350590Y18662600D01*
X40854361Y19166373D01*
X40809060Y19196641D01*
X40617242Y19276095D01*
X40617239Y19276096D01*
X40413615Y19316600D01*
X40205984Y19316600D01*
X40002360Y19276096D01*
X40002357Y19276095D01*
X39810541Y19196642D01*
X39765238Y19166372D01*
X39765237Y19166372D01*
X40269009Y18662600D01*
X40257139Y18662600D01*
X40155406Y18635341D01*
X40064194Y18582680D01*
X39989720Y18508206D01*
X39937059Y18416994D01*
X39909800Y18315261D01*
X39909800Y18303391D01*
X39406028Y18807163D01*
X39406028Y18807162D01*
X39375758Y18761859D01*
X39296305Y18570043D01*
X39296304Y18570040D01*
X39255800Y18366416D01*
X36364300Y18366416D01*
X36364300Y18366459D01*
X36323776Y18570186D01*
X36244286Y18762093D01*
X36128883Y18934804D01*
X36128878Y18934810D01*
X35982009Y19081679D01*
X35982003Y19081684D01*
X35855259Y19166372D01*
X35809293Y19197086D01*
X35617386Y19276576D01*
X35413661Y19317100D01*
X35413659Y19317100D01*
X35205941Y19317100D01*
X35205938Y19317100D01*
X35002213Y19276576D01*
X35002208Y19276574D01*
X34810307Y19197086D01*
X34637596Y19081684D01*
X34637590Y19081679D01*
X34490721Y18934810D01*
X34490716Y18934804D01*
X34375314Y18762093D01*
X34295826Y18570192D01*
X34295824Y18570187D01*
X34255300Y18366462D01*
X28575500Y18366462D01*
X28575500Y21063022D01*
X28584283Y21092938D01*
X28590912Y21123407D01*
X28594726Y21128503D01*
X28595502Y21131143D01*
X28612405Y21152117D01*
X28708083Y21247795D01*
X28770395Y21281821D01*
X28797178Y21284700D01*
X32520901Y21284700D01*
X32589022Y21264698D01*
X32635515Y21211042D01*
X32646901Y21158700D01*
X32646901Y21068928D01*
X32661665Y20994700D01*
X32717916Y20910516D01*
X32802097Y20854267D01*
X32802099Y20854266D01*
X32876333Y20839500D01*
X33976466Y20839501D01*
X33976469Y20839502D01*
X33976473Y20839502D01*
X34025726Y20849299D01*
X34050701Y20854266D01*
X34134884Y20910516D01*
X34134884Y20910518D01*
X34134886Y20910518D01*
X34143659Y20919290D01*
X34145335Y20917614D01*
X34186873Y20952334D01*
X34257315Y20961190D01*
X34307175Y20941575D01*
X34327168Y20928216D01*
X34327172Y20928214D01*
X34469021Y20869457D01*
X34469025Y20869457D01*
X34469028Y20869455D01*
X34583254Y20846735D01*
X34619620Y20839501D01*
X34619623Y20839501D01*
X34619626Y20839500D01*
X34619627Y20839500D01*
X34773173Y20839500D01*
X34773174Y20839500D01*
X34923772Y20869455D01*
X34923775Y20869457D01*
X34923778Y20869457D01*
X35065627Y20928214D01*
X35065626Y20928214D01*
X35065632Y20928216D01*
X35193302Y21013523D01*
X35242659Y21062881D01*
X35304969Y21096904D01*
X35375784Y21091840D01*
X35420848Y21062879D01*
X35469811Y21013916D01*
X35469817Y21013911D01*
X35597404Y20928660D01*
X35712399Y20881028D01*
X35712400Y20881029D01*
X35712400Y21567670D01*
X35736145Y21543925D01*
X35821655Y21494556D01*
X35917030Y21469000D01*
X36015770Y21469000D01*
X36111145Y21494556D01*
X36196655Y21543925D01*
X36220400Y21567670D01*
X36220400Y20881028D01*
X36335395Y20928660D01*
X36462982Y21013911D01*
X36462988Y21013916D01*
X36571484Y21122412D01*
X36571489Y21122418D01*
X36656740Y21250005D01*
X36715461Y21391771D01*
X36715462Y21391774D01*
X36745399Y21542272D01*
X36745400Y21542275D01*
X36745400Y21590000D01*
X36242730Y21590000D01*
X36266475Y21613745D01*
X36315844Y21699255D01*
X36341400Y21794630D01*
X36341400Y21893370D01*
X36315844Y21988745D01*
X36266475Y22074255D01*
X36242730Y22098000D01*
X36745400Y22098000D01*
X36745400Y22145726D01*
X36745399Y22145729D01*
X36715462Y22296227D01*
X36715461Y22296230D01*
X36656740Y22437996D01*
X36571489Y22565583D01*
X36571484Y22565589D01*
X36462988Y22674085D01*
X36462982Y22674090D01*
X36335395Y22759341D01*
X36220400Y22806973D01*
X36220400Y22120330D01*
X36196655Y22144075D01*
X36111145Y22193444D01*
X36015770Y22219000D01*
X35917030Y22219000D01*
X35821655Y22193444D01*
X35736145Y22144075D01*
X35712400Y22120330D01*
X35712400Y22806973D01*
X35597404Y22759341D01*
X35469817Y22674090D01*
X35465032Y22670162D01*
X35464035Y22671377D01*
X35451048Y22664286D01*
X35434042Y22649549D01*
X35420494Y22647602D01*
X35408483Y22641042D01*
X35386039Y22642648D01*
X35363768Y22639445D01*
X35351318Y22645131D01*
X35337668Y22646107D01*
X35319654Y22659592D01*
X35299188Y22668939D01*
X35291789Y22680452D01*
X35280832Y22688654D01*
X35272968Y22709738D01*
X35260804Y22728665D01*
X35257601Y22750936D01*
X35256021Y22755174D01*
X35255700Y22764163D01*
X35255700Y22982540D01*
X35275702Y23050661D01*
X35292605Y23071636D01*
X35500766Y23279796D01*
X35563078Y23313821D01*
X35589861Y23316700D01*
X39340141Y23316700D01*
X39408262Y23296698D01*
X39429236Y23279795D01*
X39586595Y23122436D01*
X39620621Y23060124D01*
X39623500Y23033341D01*
X39623500Y22786945D01*
X39603498Y22718824D01*
X39577437Y22689549D01*
X39574340Y22687008D01*
X39441396Y22554064D01*
X39441391Y22554058D01*
X39336933Y22397725D01*
X39264983Y22224023D01*
X39264981Y22224018D01*
X39228300Y22039613D01*
X39228300Y21851588D01*
X39235335Y21816222D01*
X39264981Y21667183D01*
X39336933Y21493475D01*
X39404888Y21391774D01*
X39441391Y21337143D01*
X39441396Y21337137D01*
X39574336Y21204197D01*
X39574342Y21204192D01*
X39730675Y21099733D01*
X39904383Y21027781D01*
X40088790Y20991100D01*
X40088791Y20991100D01*
X40276809Y20991100D01*
X40276810Y20991100D01*
X40461217Y21027781D01*
X40634925Y21099733D01*
X40791258Y21204192D01*
X40924208Y21337142D01*
X41028667Y21493475D01*
X41100619Y21667183D01*
X41137300Y21851590D01*
X41137300Y22039610D01*
X41137299Y22039613D01*
X41768300Y22039613D01*
X41768300Y21851588D01*
X41775335Y21816222D01*
X41804981Y21667183D01*
X41876933Y21493475D01*
X41944888Y21391774D01*
X41981391Y21337143D01*
X41981396Y21337137D01*
X42114336Y21204197D01*
X42114342Y21204192D01*
X42270675Y21099733D01*
X42444383Y21027781D01*
X42628790Y20991100D01*
X42628791Y20991100D01*
X42816809Y20991100D01*
X42816810Y20991100D01*
X43001217Y21027781D01*
X43174925Y21099733D01*
X43331258Y21204192D01*
X43464208Y21337142D01*
X43561469Y21482702D01*
X43615946Y21528230D01*
X43666234Y21538700D01*
X46877101Y21538700D01*
X46945222Y21518698D01*
X46991715Y21465042D01*
X47003101Y21412700D01*
X47003101Y21324528D01*
X47017865Y21250300D01*
X47074116Y21166116D01*
X47158297Y21109867D01*
X47158299Y21109866D01*
X47232533Y21095100D01*
X48982666Y21095101D01*
X48982669Y21095102D01*
X48982673Y21095102D01*
X49031926Y21104899D01*
X49056901Y21109866D01*
X49141084Y21166116D01*
X49197334Y21250299D01*
X49212100Y21324533D01*
X49212099Y23074666D01*
X49212098Y23074670D01*
X49212098Y23074674D01*
X49197334Y23148901D01*
X49141083Y23233085D01*
X49056902Y23289334D01*
X48982667Y23304100D01*
X47232536Y23304100D01*
X47232526Y23304099D01*
X47158299Y23289335D01*
X47074115Y23233084D01*
X47017866Y23148903D01*
X47003100Y23074670D01*
X47003100Y22783300D01*
X46983098Y22715179D01*
X46929442Y22668686D01*
X46877100Y22657300D01*
X43412541Y22657300D01*
X43344420Y22677302D01*
X43332608Y22685900D01*
X43331256Y22687010D01*
X43239638Y22748227D01*
X43174925Y22791467D01*
X43001217Y22863419D01*
X42816812Y22900100D01*
X42816810Y22900100D01*
X42628790Y22900100D01*
X42628787Y22900100D01*
X42444382Y22863419D01*
X42444377Y22863417D01*
X42270675Y22791467D01*
X42114342Y22687009D01*
X42114336Y22687004D01*
X41981396Y22554064D01*
X41981391Y22554058D01*
X41876933Y22397725D01*
X41804983Y22224023D01*
X41804981Y22224018D01*
X41768300Y22039613D01*
X41137299Y22039613D01*
X41100619Y22224017D01*
X41028667Y22397725D01*
X40924208Y22554058D01*
X40924203Y22554064D01*
X40791259Y22687008D01*
X40788163Y22689549D01*
X40786977Y22691290D01*
X40786882Y22691385D01*
X40786900Y22691404D01*
X40748196Y22748227D01*
X40742100Y22786945D01*
X40742100Y23390832D01*
X40719141Y23476516D01*
X40717596Y23482283D01*
X40703985Y23533081D01*
X40659681Y23609818D01*
X40630354Y23660615D01*
X40630349Y23660621D01*
X40467219Y23823751D01*
X40249564Y24041405D01*
X40215540Y24103717D01*
X40220604Y24174532D01*
X40263151Y24231368D01*
X40329671Y24256179D01*
X40338660Y24256500D01*
X50038500Y24256500D01*
X50106621Y24236498D01*
X50153114Y24182842D01*
X50164500Y24130500D01*
X50164500Y15611033D01*
X50144498Y15542912D01*
X50090842Y15496419D01*
X50020568Y15486315D01*
X49955988Y15515809D01*
X49949405Y15521938D01*
X49881135Y15590208D01*
X49596144Y15829345D01*
X49596131Y15829354D01*
X49291386Y16042738D01*
X49291360Y16042754D01*
X48969193Y16228757D01*
X48969175Y16228767D01*
X48631997Y16385995D01*
X48282404Y16513237D01*
X48197480Y16535993D01*
X47923032Y16609531D01*
X47556644Y16674135D01*
X47186020Y16706560D01*
X46813980Y16706560D01*
X46443356Y16674135D01*
X46076968Y16609531D01*
X46076964Y16609530D01*
X45717595Y16513237D01*
X45368002Y16385995D01*
X45030824Y16228767D01*
X45030806Y16228757D01*
X44708639Y16042754D01*
X44708613Y16042738D01*
X44403868Y15829354D01*
X44403855Y15829345D01*
X44118864Y15590208D01*
X44118855Y15590198D01*
X43855802Y15327145D01*
X43855792Y15327136D01*
X43616655Y15042145D01*
X43616646Y15042132D01*
X43403262Y14737387D01*
X43403246Y14737361D01*
X43217243Y14415194D01*
X43217233Y14415176D01*
X43060005Y14077998D01*
X42932763Y13728405D01*
X42846590Y13406805D01*
X42836469Y13369032D01*
X42771865Y13002644D01*
X42739440Y12632020D01*
X42739440Y12259980D01*
X42771865Y11889356D01*
X42836469Y11522968D01*
X42847380Y11482249D01*
X42932763Y11163596D01*
X43060005Y10814003D01*
X43217233Y10476825D01*
X43217243Y10476807D01*
X43403246Y10154640D01*
X43403262Y10154614D01*
X43616646Y9849869D01*
X43616655Y9849856D01*
X43855792Y9564865D01*
X44118864Y9301793D01*
X44403855Y9062656D01*
X44403868Y9062647D01*
X44662482Y8881564D01*
X44708622Y8849257D01*
X44708634Y8849250D01*
X44708639Y8849247D01*
X44752616Y8823857D01*
X45030818Y8663237D01*
X45368001Y8506006D01*
X45532910Y8445984D01*
X45717595Y8378764D01*
X45717597Y8378764D01*
X45717604Y8378761D01*
X46076968Y8282469D01*
X46443356Y8217865D01*
X46813980Y8185440D01*
X46813986Y8185440D01*
X47186014Y8185440D01*
X47186020Y8185440D01*
X47556644Y8217865D01*
X47923032Y8282469D01*
X48282396Y8378761D01*
X48631999Y8506006D01*
X48969182Y8663237D01*
X49291378Y8849257D01*
X49596136Y9062650D01*
X49596139Y9062653D01*
X49596144Y9062656D01*
X49881135Y9301793D01*
X49881145Y9301802D01*
X49949405Y9370062D01*
X50011717Y9404088D01*
X50082532Y9399023D01*
X50139368Y9356476D01*
X50164179Y9289956D01*
X50164500Y9280967D01*
X50164500Y761500D01*
X50144498Y693379D01*
X50090842Y646886D01*
X50038500Y635500D01*
X40425234Y635500D01*
X40357113Y655502D01*
X40310620Y709158D01*
X40300516Y779432D01*
X40330010Y844012D01*
X40377016Y877909D01*
X40385280Y881332D01*
X40507925Y932133D01*
X40664258Y1036592D01*
X40797208Y1169542D01*
X40901667Y1325875D01*
X40973619Y1499583D01*
X41010300Y1683990D01*
X41010300Y1872010D01*
X40973619Y2056417D01*
X40901667Y2230125D01*
X40797208Y2386458D01*
X40797203Y2386464D01*
X40664263Y2519404D01*
X40664257Y2519409D01*
X40583952Y2573067D01*
X40507925Y2623867D01*
X40334217Y2695819D01*
X40149812Y2732500D01*
X40149810Y2732500D01*
X39961790Y2732500D01*
X39961787Y2732500D01*
X39777382Y2695819D01*
X39777377Y2695817D01*
X39603675Y2623867D01*
X39447342Y2519409D01*
X39447336Y2519404D01*
X39314396Y2386464D01*
X39314387Y2386454D01*
X39285019Y2342499D01*
X39230543Y2296971D01*
X39180254Y2286500D01*
X36377357Y2286500D01*
X36309236Y2306502D01*
X36288262Y2323405D01*
X36168463Y2443204D01*
X36168457Y2443209D01*
X36054417Y2519408D01*
X36012125Y2547667D01*
X35838417Y2619619D01*
X35817061Y2623867D01*
X35654012Y2656300D01*
X35654010Y2656300D01*
X35465990Y2656300D01*
X35465987Y2656300D01*
X35281582Y2619619D01*
X35281577Y2619617D01*
X35107875Y2547667D01*
X34951542Y2443209D01*
X34951536Y2443204D01*
X34831738Y2323405D01*
X34769426Y2289379D01*
X34742643Y2286500D01*
X31871678Y2286500D01*
X31803557Y2306502D01*
X31774282Y2332563D01*
X31771740Y2335660D01*
X31638796Y2468604D01*
X31638790Y2468609D01*
X31562762Y2519409D01*
X31482458Y2573067D01*
X31308750Y2645019D01*
X31252037Y2656300D01*
X31124345Y2681700D01*
X31124343Y2681700D01*
X30936323Y2681700D01*
X30936320Y2681700D01*
X30751915Y2645019D01*
X30751910Y2645017D01*
X30578208Y2573067D01*
X30421875Y2468609D01*
X30396476Y2443209D01*
X30327470Y2374204D01*
X30265161Y2340180D01*
X30238377Y2337300D01*
X27479472Y2337300D01*
X27411351Y2357302D01*
X27374707Y2393298D01*
X27341360Y2443204D01*
X27336683Y2450204D01*
X27336680Y2450207D01*
X27336678Y2450210D01*
X27189809Y2597079D01*
X27189803Y2597084D01*
X27073194Y2675000D01*
X27017093Y2712486D01*
X26853290Y2780335D01*
X26825191Y2791974D01*
X26825186Y2791976D01*
X26621461Y2832500D01*
X26621459Y2832500D01*
X26413741Y2832500D01*
X26413738Y2832500D01*
X26210013Y2791976D01*
X26210008Y2791974D01*
X26018107Y2712486D01*
X25845396Y2597084D01*
X25845390Y2597079D01*
X25698521Y2450210D01*
X25698516Y2450203D01*
X25660493Y2393298D01*
X25606016Y2347770D01*
X25555728Y2337300D01*
X23009072Y2337300D01*
X22940951Y2357302D01*
X22904307Y2393298D01*
X22870960Y2443204D01*
X22866283Y2450204D01*
X22866280Y2450207D01*
X22866278Y2450210D01*
X22719409Y2597079D01*
X22719403Y2597084D01*
X22602794Y2675000D01*
X22546693Y2712486D01*
X22382890Y2780335D01*
X22354791Y2791974D01*
X22354786Y2791976D01*
X22151061Y2832500D01*
X22151059Y2832500D01*
X21943341Y2832500D01*
X21943338Y2832500D01*
X21739613Y2791976D01*
X21739608Y2791974D01*
X21547707Y2712486D01*
X21374996Y2597084D01*
X21374990Y2597079D01*
X21228121Y2450210D01*
X21228116Y2450204D01*
X21112714Y2277493D01*
X21033226Y2085592D01*
X21033224Y2085587D01*
X20992700Y1881862D01*
X20992700Y1674139D01*
X21027422Y1499583D01*
X21033224Y1470414D01*
X21112714Y1278507D01*
X21185522Y1169543D01*
X21228116Y1105797D01*
X21228121Y1105791D01*
X21374990Y958922D01*
X21374996Y958917D01*
X21513658Y866265D01*
X21559186Y811788D01*
X21568033Y741345D01*
X21537392Y677301D01*
X21476990Y639989D01*
X21443656Y635500D01*
X17649844Y635500D01*
X17581723Y655502D01*
X17535230Y709158D01*
X17525126Y779432D01*
X17554620Y844012D01*
X17579842Y866265D01*
X17591760Y874229D01*
X17591761Y874230D01*
X17087991Y1378000D01*
X17099861Y1378000D01*
X17201594Y1405259D01*
X17292806Y1457920D01*
X17367280Y1532394D01*
X17419941Y1623606D01*
X17447200Y1725339D01*
X17447200Y1737209D01*
X17950970Y1233439D01*
X17950971Y1233440D01*
X17981241Y1278743D01*
X18060694Y1470558D01*
X18060695Y1470561D01*
X18101199Y1674185D01*
X18101200Y1674192D01*
X18101200Y1881809D01*
X18101199Y1881816D01*
X18060695Y2085440D01*
X18060694Y2085443D01*
X17981242Y2277257D01*
X17950970Y2322562D01*
X17447200Y1818792D01*
X17447200Y1830661D01*
X17419941Y1932394D01*
X17367280Y2023606D01*
X17292806Y2098080D01*
X17201594Y2150741D01*
X17099861Y2178000D01*
X17087990Y2178000D01*
X17591761Y2681773D01*
X17546460Y2712041D01*
X17354642Y2791495D01*
X17354639Y2791496D01*
X17151015Y2832000D01*
X16943384Y2832000D01*
X16739760Y2791496D01*
X16739757Y2791495D01*
X16547941Y2712042D01*
X16502638Y2681772D01*
X16502637Y2681772D01*
X17006409Y2178000D01*
X16994539Y2178000D01*
X16892806Y2150741D01*
X16801594Y2098080D01*
X16727120Y2023606D01*
X16674459Y1932394D01*
X16647200Y1830661D01*
X16647200Y1818791D01*
X16143428Y2322563D01*
X16143428Y2322562D01*
X16113158Y2277259D01*
X16033705Y2085443D01*
X16033704Y2085440D01*
X15993200Y1881816D01*
X15993200Y1674185D01*
X16033704Y1470561D01*
X16033705Y1470558D01*
X16113159Y1278740D01*
X16143427Y1233439D01*
X16647200Y1737212D01*
X16647200Y1725339D01*
X16674459Y1623606D01*
X16727120Y1532394D01*
X16801594Y1457920D01*
X16892806Y1405259D01*
X16994539Y1378000D01*
X17006410Y1378000D01*
X16502638Y874229D01*
X16514557Y866265D01*
X16560084Y811789D01*
X16568933Y741345D01*
X16538292Y677301D01*
X16477890Y639990D01*
X16444555Y635500D01*
X761500Y635500D01*
X693379Y655502D01*
X646886Y709158D01*
X635500Y761500D01*
X635500Y3058067D01*
X1210100Y3058067D01*
X1210100Y1361534D01*
X1216558Y1301465D01*
X1216559Y1301460D01*
X1216560Y1301459D01*
X1267258Y1165533D01*
X1354196Y1049396D01*
X1470333Y962458D01*
X1606259Y911760D01*
X1606262Y911760D01*
X1606264Y911759D01*
X1666333Y905301D01*
X1666341Y905301D01*
X1666346Y905300D01*
X1666350Y905300D01*
X3362850Y905300D01*
X3362854Y905300D01*
X3362859Y905301D01*
X3362866Y905301D01*
X3422935Y911759D01*
X3422936Y911760D01*
X3422941Y911760D01*
X3558867Y962458D01*
X3675004Y1049396D01*
X3761942Y1165533D01*
X3812640Y1301459D01*
X3819100Y1361546D01*
X3819100Y1524500D01*
X3839102Y1592621D01*
X3892758Y1639114D01*
X3945100Y1650500D01*
X11351231Y1650500D01*
X11351233Y1650500D01*
X11493482Y1688616D01*
X11621018Y1762249D01*
X11725151Y1866382D01*
X13492112Y3633343D01*
X14064056Y4205286D01*
X15001793Y5143023D01*
X25463600Y5143023D01*
X25463600Y4572000D01*
X26205914Y4572000D01*
X26197520Y4563606D01*
X26144859Y4472394D01*
X26117600Y4370661D01*
X26117600Y4265339D01*
X26144859Y4163606D01*
X26197520Y4072394D01*
X26205914Y4064000D01*
X25463601Y4064000D01*
X25463601Y3492978D01*
X25478337Y3418895D01*
X25478337Y3418893D01*
X25534475Y3334876D01*
X25618493Y3278738D01*
X25618494Y3278737D01*
X25692580Y3264001D01*
X26263600Y3264001D01*
X26263600Y4006314D01*
X26271994Y3997920D01*
X26363206Y3945259D01*
X26464939Y3918000D01*
X26570261Y3918000D01*
X26671994Y3945259D01*
X26763206Y3997920D01*
X26771600Y4006314D01*
X26771600Y3264001D01*
X27342614Y3264001D01*
X27342622Y3264002D01*
X27416705Y3278738D01*
X27416707Y3278738D01*
X27500724Y3334876D01*
X27556862Y3418894D01*
X27556863Y3418895D01*
X27571599Y3492978D01*
X27571600Y3492985D01*
X27571600Y4064000D01*
X26829286Y4064000D01*
X26837680Y4072394D01*
X26890341Y4163606D01*
X26917600Y4265339D01*
X26917600Y4361213D01*
X30075833Y4361213D01*
X30075833Y4173188D01*
X30100334Y4050014D01*
X30112514Y3988783D01*
X30184466Y3815075D01*
X30201438Y3789675D01*
X30288924Y3658743D01*
X30288929Y3658737D01*
X30421869Y3525797D01*
X30421875Y3525792D01*
X30578208Y3421333D01*
X30751916Y3349381D01*
X30936323Y3312700D01*
X30936324Y3312700D01*
X31124342Y3312700D01*
X31124343Y3312700D01*
X31308750Y3349381D01*
X31482458Y3421333D01*
X31638791Y3525792D01*
X31771741Y3658742D01*
X31876200Y3815075D01*
X31948152Y3988783D01*
X31984833Y4173190D01*
X31984833Y4361210D01*
X31984833Y4367400D01*
X31987081Y4367400D01*
X31998427Y4427236D01*
X32021492Y4458925D01*
X35728151Y8165581D01*
X35787408Y8268218D01*
X35801784Y8293118D01*
X35839900Y8435367D01*
X35839900Y9217057D01*
X35848685Y9246978D01*
X35855313Y9277443D01*
X35858903Y9281779D01*
X35859902Y9285178D01*
X35876805Y9306153D01*
X35884797Y9314145D01*
X35889058Y9316992D01*
X36022008Y9449942D01*
X36024851Y9454198D01*
X36032850Y9462196D01*
X36058795Y9476364D01*
X36083227Y9493004D01*
X36091720Y9494342D01*
X36095163Y9496221D01*
X36101004Y9495804D01*
X36121945Y9499100D01*
X38529231Y9499100D01*
X38529233Y9499100D01*
X38671482Y9537216D01*
X38799018Y9610849D01*
X38903151Y9714982D01*
X38968764Y9780597D01*
X39031076Y9814621D01*
X39057860Y9817501D01*
X40194264Y9817501D01*
X40194266Y9817501D01*
X40194269Y9817502D01*
X40194272Y9817502D01*
X40230863Y9824781D01*
X40268501Y9832266D01*
X40352684Y9888516D01*
X40408934Y9972699D01*
X40423700Y10046933D01*
X40423699Y11797066D01*
X40423698Y11797070D01*
X40423698Y11797074D01*
X40408934Y11871301D01*
X40396870Y11889356D01*
X40352684Y11955484D01*
X40352683Y11955485D01*
X40268502Y12011734D01*
X40194267Y12026500D01*
X38444136Y12026500D01*
X38444126Y12026499D01*
X38369899Y12011735D01*
X38285715Y11955484D01*
X38229466Y11871303D01*
X38214700Y11797070D01*
X38214700Y11797066D01*
X38214701Y10743700D01*
X38194699Y10675579D01*
X38141043Y10629086D01*
X38088701Y10617700D01*
X36121945Y10617700D01*
X36053824Y10637702D01*
X36024549Y10663763D01*
X36022007Y10666860D01*
X35889063Y10799804D01*
X35889057Y10799809D01*
X35837183Y10834470D01*
X35732725Y10904267D01*
X35559017Y10976219D01*
X35374612Y11012900D01*
X35374610Y11012900D01*
X35186590Y11012900D01*
X35186587Y11012900D01*
X35002182Y10976219D01*
X35002177Y10976217D01*
X34828475Y10904267D01*
X34672142Y10799809D01*
X34672136Y10799804D01*
X34539196Y10666864D01*
X34539191Y10666858D01*
X34434733Y10510525D01*
X34362783Y10336823D01*
X34362781Y10336818D01*
X34326100Y10152413D01*
X34326100Y9964388D01*
X34362659Y9780596D01*
X34362781Y9779983D01*
X34434733Y9606275D01*
X34480877Y9537216D01*
X34539191Y9449943D01*
X34539196Y9449937D01*
X34672135Y9316998D01*
X34675221Y9314466D01*
X34676405Y9312728D01*
X34676519Y9312614D01*
X34676497Y9312593D01*
X34715198Y9255794D01*
X34721300Y9217057D01*
X34721300Y8792860D01*
X34701298Y8724739D01*
X34684395Y8703765D01*
X31237014Y5256385D01*
X31174702Y5222359D01*
X31130594Y5221964D01*
X31130509Y5221093D01*
X31124343Y5221700D01*
X30936323Y5221700D01*
X30936320Y5221700D01*
X30751915Y5185019D01*
X30751910Y5185017D01*
X30578208Y5113067D01*
X30421875Y5008609D01*
X30421869Y5008604D01*
X30288929Y4875664D01*
X30288924Y4875658D01*
X30184466Y4719325D01*
X30112516Y4545623D01*
X30112514Y4545618D01*
X30075833Y4361213D01*
X26917600Y4361213D01*
X26917600Y4370661D01*
X26890341Y4472394D01*
X26837680Y4563606D01*
X26829286Y4572000D01*
X27571599Y4572000D01*
X27571599Y5143014D01*
X27571598Y5143023D01*
X27556862Y5217106D01*
X27556862Y5217108D01*
X27500724Y5301125D01*
X27416706Y5357263D01*
X27416705Y5357264D01*
X27342622Y5372000D01*
X26771600Y5372000D01*
X26771600Y4629686D01*
X26763206Y4638080D01*
X26671994Y4690741D01*
X26570261Y4718000D01*
X26464939Y4718000D01*
X26363206Y4690741D01*
X26271994Y4638080D01*
X26263600Y4629686D01*
X26263600Y5372000D01*
X25692586Y5372000D01*
X25692576Y5371999D01*
X25618494Y5357263D01*
X25618492Y5357263D01*
X25534475Y5301125D01*
X25478337Y5217107D01*
X25478336Y5217106D01*
X25463600Y5143023D01*
X15001793Y5143023D01*
X15097072Y5238302D01*
X15636745Y5777976D01*
X15636751Y5777982D01*
X15710385Y5905519D01*
X15748500Y6047767D01*
X15748500Y6195033D01*
X15748500Y7616857D01*
X15768502Y7684978D01*
X15794579Y7714266D01*
X15797650Y7716788D01*
X15797658Y7716792D01*
X15930608Y7849742D01*
X16035067Y8006075D01*
X16107019Y8179783D01*
X16143700Y8364190D01*
X16143700Y8552210D01*
X16143699Y8552213D01*
X19314700Y8552213D01*
X19314700Y8552210D01*
X19314700Y8364190D01*
X19351381Y8179783D01*
X19423333Y8006075D01*
X19493130Y7901617D01*
X19527791Y7849743D01*
X19527796Y7849737D01*
X19660736Y7716797D01*
X19660742Y7716792D01*
X19817075Y7612333D01*
X19990783Y7540381D01*
X20175190Y7503700D01*
X20175191Y7503700D01*
X20363209Y7503700D01*
X20363210Y7503700D01*
X20547617Y7540381D01*
X20721325Y7612333D01*
X20877658Y7716792D01*
X21010608Y7849742D01*
X21115067Y8006075D01*
X21187019Y8179783D01*
X21223700Y8364190D01*
X21223700Y8552210D01*
X21223699Y8552213D01*
X26934700Y8552213D01*
X26934700Y8552210D01*
X26934700Y8364190D01*
X26971381Y8179783D01*
X27043333Y8006075D01*
X27113130Y7901617D01*
X27147791Y7849743D01*
X27147796Y7849737D01*
X27280736Y7716797D01*
X27280742Y7716792D01*
X27437075Y7612333D01*
X27610783Y7540381D01*
X27795190Y7503700D01*
X27795191Y7503700D01*
X27983209Y7503700D01*
X27983210Y7503700D01*
X28167617Y7540381D01*
X28341325Y7612333D01*
X28497658Y7716792D01*
X28630608Y7849742D01*
X28735067Y8006075D01*
X28807019Y8179783D01*
X28843700Y8364190D01*
X28843700Y8552210D01*
X28807019Y8736617D01*
X28735067Y8910325D01*
X28630608Y9066658D01*
X28630603Y9066664D01*
X28497663Y9199604D01*
X28497657Y9199609D01*
X28413570Y9255794D01*
X28341325Y9304067D01*
X28167617Y9376019D01*
X27983212Y9412700D01*
X27983210Y9412700D01*
X27795190Y9412700D01*
X27795187Y9412700D01*
X27610782Y9376019D01*
X27610777Y9376017D01*
X27437075Y9304067D01*
X27280742Y9199609D01*
X27280736Y9199604D01*
X27147796Y9066664D01*
X27147791Y9066658D01*
X27043333Y8910325D01*
X26971383Y8736623D01*
X26971381Y8736618D01*
X26934700Y8552213D01*
X21223699Y8552213D01*
X21187019Y8736617D01*
X21115067Y8910325D01*
X21010608Y9066658D01*
X21010603Y9066664D01*
X20877663Y9199604D01*
X20877657Y9199609D01*
X20793570Y9255794D01*
X20721325Y9304067D01*
X20547617Y9376019D01*
X20363212Y9412700D01*
X20363210Y9412700D01*
X20175190Y9412700D01*
X20175187Y9412700D01*
X19990782Y9376019D01*
X19990777Y9376017D01*
X19817075Y9304067D01*
X19660742Y9199609D01*
X19660736Y9199604D01*
X19527796Y9066664D01*
X19527791Y9066658D01*
X19423333Y8910325D01*
X19351383Y8736623D01*
X19351381Y8736618D01*
X19314700Y8552213D01*
X16143699Y8552213D01*
X16107019Y8736617D01*
X16035067Y8910325D01*
X15930608Y9066658D01*
X15930603Y9066664D01*
X15797663Y9199604D01*
X15797657Y9199609D01*
X15713570Y9255794D01*
X15641325Y9304067D01*
X15467617Y9376019D01*
X15283212Y9412700D01*
X15283210Y9412700D01*
X15095190Y9412700D01*
X15095187Y9412700D01*
X14910782Y9376019D01*
X14910777Y9376017D01*
X14737075Y9304067D01*
X14580742Y9199609D01*
X14580736Y9199604D01*
X14447796Y9066664D01*
X14447791Y9066658D01*
X14343333Y8910325D01*
X14271383Y8736623D01*
X14271381Y8736618D01*
X14234700Y8552213D01*
X14234700Y8552210D01*
X14234700Y8364190D01*
X14271381Y8179783D01*
X14343333Y8006075D01*
X14413130Y7901617D01*
X14447791Y7849743D01*
X14447796Y7849737D01*
X14580735Y7716798D01*
X14583821Y7714266D01*
X14585005Y7712528D01*
X14585119Y7712414D01*
X14585097Y7712393D01*
X14623798Y7655594D01*
X14629900Y7616857D01*
X14629900Y6405259D01*
X14609898Y6337138D01*
X14592995Y6316164D01*
X11082836Y2806005D01*
X11020524Y2771979D01*
X10993741Y2769100D01*
X3945100Y2769100D01*
X3876979Y2789102D01*
X3830486Y2842758D01*
X3819100Y2895100D01*
X3819100Y3058050D01*
X3819099Y3058067D01*
X3812641Y3118136D01*
X3812640Y3118138D01*
X3812640Y3118141D01*
X3761942Y3254067D01*
X3675004Y3370204D01*
X3558867Y3457142D01*
X3422941Y3507840D01*
X3422940Y3507841D01*
X3422935Y3507842D01*
X3362866Y3514300D01*
X3362854Y3514300D01*
X1666346Y3514300D01*
X1666333Y3514300D01*
X1606264Y3507842D01*
X1586290Y3500392D01*
X1470333Y3457142D01*
X1470332Y3457142D01*
X1470331Y3457141D01*
X1354196Y3370204D01*
X1285726Y3278737D01*
X1267258Y3254067D01*
X1234159Y3165327D01*
X1216558Y3118136D01*
X1210100Y3058067D01*
X635500Y3058067D01*
X635500Y6969667D01*
X1210100Y6969667D01*
X1210100Y5273134D01*
X1216558Y5213065D01*
X1216559Y5213060D01*
X1216560Y5213059D01*
X1267258Y5077133D01*
X1354196Y4960996D01*
X1470333Y4874058D01*
X1606259Y4823360D01*
X1606262Y4823360D01*
X1606264Y4823359D01*
X1666333Y4816901D01*
X1666341Y4816901D01*
X1666346Y4816900D01*
X1666350Y4816900D01*
X3362850Y4816900D01*
X3362854Y4816900D01*
X3362859Y4816901D01*
X3362866Y4816901D01*
X3422935Y4823359D01*
X3422936Y4823360D01*
X3422941Y4823360D01*
X3558867Y4874058D01*
X3675004Y4960996D01*
X3761942Y5077133D01*
X3812640Y5213059D01*
X3813076Y5217107D01*
X3819099Y5273134D01*
X3819100Y5273151D01*
X3819100Y5436100D01*
X3839102Y5504221D01*
X3892758Y5550714D01*
X3945100Y5562100D01*
X8811231Y5562100D01*
X8811233Y5562100D01*
X8953482Y5600216D01*
X9081018Y5673849D01*
X9185151Y5777982D01*
X9244676Y5837507D01*
X9244678Y5837511D01*
X10556751Y7149581D01*
X10593566Y7213348D01*
X10593567Y7213349D01*
X10630381Y7277113D01*
X10630380Y7277113D01*
X10630384Y7277118D01*
X10668500Y7419367D01*
X10668500Y7616857D01*
X10688502Y7684978D01*
X10714579Y7714266D01*
X10717650Y7716788D01*
X10717658Y7716792D01*
X10850608Y7849742D01*
X10955067Y8006075D01*
X11027019Y8179783D01*
X11063700Y8364190D01*
X11063700Y8552210D01*
X11027019Y8736617D01*
X10955067Y8910325D01*
X10850608Y9066658D01*
X10850603Y9066664D01*
X10717663Y9199604D01*
X10717657Y9199609D01*
X10633570Y9255794D01*
X10561325Y9304067D01*
X10387617Y9376019D01*
X10203212Y9412700D01*
X10203210Y9412700D01*
X10015190Y9412700D01*
X10015187Y9412700D01*
X9830782Y9376019D01*
X9830777Y9376017D01*
X9657075Y9304067D01*
X9500742Y9199609D01*
X9500736Y9199604D01*
X9367796Y9066664D01*
X9367791Y9066658D01*
X9263333Y8910325D01*
X9191383Y8736623D01*
X9191381Y8736618D01*
X9154700Y8552213D01*
X9154700Y8552210D01*
X9154700Y8364190D01*
X9191381Y8179783D01*
X9263333Y8006075D01*
X9333130Y7901617D01*
X9367791Y7849743D01*
X9367796Y7849737D01*
X9432285Y7785248D01*
X9466311Y7722936D01*
X9461246Y7652121D01*
X9432286Y7607058D01*
X8542836Y6717605D01*
X8480523Y6683580D01*
X8453740Y6680700D01*
X3945100Y6680700D01*
X3876979Y6700702D01*
X3830486Y6754358D01*
X3819100Y6806700D01*
X3819100Y6969650D01*
X3819099Y6969667D01*
X3812641Y7029736D01*
X3812640Y7029738D01*
X3812640Y7029741D01*
X3761942Y7165667D01*
X3675004Y7281804D01*
X3558867Y7368742D01*
X3422941Y7419440D01*
X3422940Y7419441D01*
X3422935Y7419442D01*
X3362866Y7425900D01*
X3362854Y7425900D01*
X1666346Y7425900D01*
X1666333Y7425900D01*
X1606264Y7419442D01*
X1606063Y7419367D01*
X1470333Y7368742D01*
X1470332Y7368742D01*
X1470331Y7368741D01*
X1354196Y7281804D01*
X1267259Y7165669D01*
X1216558Y7029736D01*
X1210100Y6969667D01*
X635500Y6969667D01*
X635500Y9455865D01*
X655502Y9523986D01*
X709158Y9570479D01*
X779432Y9580583D01*
X844012Y9551089D01*
X854409Y9540977D01*
X855781Y9539480D01*
X855793Y9539465D01*
X855803Y9539455D01*
X855817Y9539440D01*
X1118864Y9276393D01*
X1403855Y9037256D01*
X1403868Y9037247D01*
X1672346Y8849257D01*
X1708622Y8823857D01*
X1708634Y8823850D01*
X1708639Y8823847D01*
X1852706Y8740670D01*
X2030818Y8637837D01*
X2030821Y8637836D01*
X2030824Y8637834D01*
X2083723Y8613167D01*
X2368001Y8480606D01*
X2566909Y8408210D01*
X2717595Y8353364D01*
X2717597Y8353364D01*
X2717604Y8353361D01*
X3076968Y8257069D01*
X3443356Y8192465D01*
X3813980Y8160040D01*
X3813986Y8160040D01*
X4186014Y8160040D01*
X4186020Y8160040D01*
X4556644Y8192465D01*
X4923032Y8257069D01*
X5282396Y8353361D01*
X5631999Y8480606D01*
X5969182Y8637837D01*
X6291378Y8823857D01*
X6596136Y9037250D01*
X6596139Y9037253D01*
X6596144Y9037256D01*
X6881135Y9276393D01*
X6881145Y9276402D01*
X7144198Y9539455D01*
X7144207Y9539465D01*
X7383344Y9824456D01*
X7383350Y9824464D01*
X7596743Y10129222D01*
X7610132Y10152413D01*
X31786100Y10152413D01*
X31786100Y9964388D01*
X31822659Y9780596D01*
X31822781Y9779983D01*
X31894733Y9606275D01*
X31940877Y9537216D01*
X31999191Y9449943D01*
X31999196Y9449937D01*
X32132136Y9316997D01*
X32132142Y9316992D01*
X32288475Y9212533D01*
X32462183Y9140581D01*
X32646590Y9103900D01*
X32646591Y9103900D01*
X32834609Y9103900D01*
X32834610Y9103900D01*
X33019017Y9140581D01*
X33192725Y9212533D01*
X33349058Y9316992D01*
X33482008Y9449942D01*
X33586467Y9606275D01*
X33658419Y9779983D01*
X33695100Y9964390D01*
X33695100Y10152410D01*
X33658419Y10336817D01*
X33586467Y10510525D01*
X33482008Y10666858D01*
X33482006Y10666860D01*
X33482003Y10666864D01*
X33349063Y10799804D01*
X33349057Y10799809D01*
X33297183Y10834470D01*
X33192725Y10904267D01*
X33019017Y10976219D01*
X32834612Y11012900D01*
X32834610Y11012900D01*
X32646590Y11012900D01*
X32646587Y11012900D01*
X32462182Y10976219D01*
X32462177Y10976217D01*
X32288475Y10904267D01*
X32132142Y10799809D01*
X32132136Y10799804D01*
X31999196Y10666864D01*
X31999191Y10666858D01*
X31894733Y10510525D01*
X31822783Y10336823D01*
X31822781Y10336818D01*
X31786100Y10152413D01*
X7610132Y10152413D01*
X7619640Y10168882D01*
X7650078Y10221600D01*
X7716599Y10336818D01*
X7782763Y10451418D01*
X7939994Y10788601D01*
X8067239Y11138204D01*
X8163531Y11497568D01*
X8228135Y11863956D01*
X8260560Y12234580D01*
X8260560Y12606620D01*
X8228135Y12977244D01*
X8163531Y13343632D01*
X8067239Y13702996D01*
X8053209Y13741542D01*
X7944258Y14040884D01*
X7939994Y14052599D01*
X7782763Y14389782D01*
X7680735Y14566500D01*
X7596753Y14711961D01*
X7596737Y14711987D01*
X7383353Y15016732D01*
X7383344Y15016745D01*
X7144207Y15301736D01*
X6881135Y15564808D01*
X6596144Y15803945D01*
X6596131Y15803954D01*
X6291386Y16017338D01*
X6291360Y16017354D01*
X5969193Y16203357D01*
X5969175Y16203367D01*
X5631997Y16360595D01*
X5282404Y16487837D01*
X5187603Y16513239D01*
X4923032Y16584131D01*
X4556644Y16648735D01*
X4186020Y16681160D01*
X3813980Y16681160D01*
X3443356Y16648735D01*
X3076968Y16584131D01*
X3076964Y16584130D01*
X2717595Y16487837D01*
X2368002Y16360595D01*
X2030824Y16203367D01*
X2030806Y16203357D01*
X1708639Y16017354D01*
X1708613Y16017338D01*
X1403868Y15803954D01*
X1403855Y15803945D01*
X1118865Y15564808D01*
X855791Y15301733D01*
X854384Y15300197D01*
X854060Y15300002D01*
X853850Y15299791D01*
X853797Y15299844D01*
X793609Y15263496D01*
X722640Y15265478D01*
X664009Y15305514D01*
X636330Y15370893D01*
X635500Y15385336D01*
X635500Y19662346D01*
X1057700Y19662346D01*
X1057700Y17929665D01*
X1060630Y17892425D01*
X1071494Y17855030D01*
X1098132Y17763340D01*
X1106936Y17733039D01*
X1191421Y17590183D01*
X1191424Y17590179D01*
X1308778Y17472825D01*
X1308782Y17472822D01*
X1451641Y17388335D01*
X1611022Y17342031D01*
X1648263Y17339100D01*
X3380936Y17339101D01*
X3418178Y17342031D01*
X3577559Y17388335D01*
X3720418Y17472822D01*
X3837778Y17590182D01*
X3922265Y17733041D01*
X3968569Y17892422D01*
X3971499Y17929656D01*
X3971500Y17929656D01*
X3971500Y17958300D01*
X3991502Y18026421D01*
X4045158Y18072914D01*
X4097500Y18084300D01*
X8619214Y18084300D01*
X8687335Y18064298D01*
X8708309Y18047395D01*
X9360595Y17395109D01*
X9394621Y17332797D01*
X9397500Y17306014D01*
X9397500Y16984084D01*
X9377498Y16915963D01*
X9360595Y16894989D01*
X9264908Y16799303D01*
X9264905Y16799300D01*
X9162496Y16658346D01*
X9083393Y16503099D01*
X9029556Y16337405D01*
X9002300Y16165313D01*
X9002300Y15991088D01*
X9029556Y15818996D01*
X9083393Y15653302D01*
X9083394Y15653299D01*
X9083395Y15653298D01*
X9153449Y15515809D01*
X9162496Y15498055D01*
X9264905Y15357101D01*
X9388100Y15233906D01*
X9444462Y15192957D01*
X9529058Y15131494D01*
X9684298Y15052395D01*
X9850000Y14998555D01*
X10022085Y14971300D01*
X10022087Y14971300D01*
X10196313Y14971300D01*
X10196315Y14971300D01*
X10368400Y14998555D01*
X10534102Y15052395D01*
X10689342Y15131494D01*
X10830297Y15233904D01*
X10953496Y15357103D01*
X11055906Y15498058D01*
X11135005Y15653298D01*
X11188845Y15819000D01*
X11216100Y15991085D01*
X11216100Y16165315D01*
X11188845Y16337400D01*
X11135005Y16503102D01*
X11055906Y16658342D01*
X10953496Y16799297D01*
X10953494Y16799300D01*
X10857805Y16894989D01*
X10823779Y16957301D01*
X10820900Y16984084D01*
X10820900Y17576671D01*
X10820901Y17576692D01*
X10820901Y17723095D01*
X10820900Y17723099D01*
X10818923Y17733039D01*
X10793551Y17860595D01*
X10766725Y17925356D01*
X10764944Y17929655D01*
X10754380Y17955161D01*
X10739901Y17990117D01*
X10662014Y18106683D01*
X10562883Y18205814D01*
X10562882Y18205815D01*
X10559721Y18208976D01*
X10559706Y18208990D01*
X9523424Y19245272D01*
X9523415Y19245282D01*
X9492121Y19276576D01*
X9419883Y19348814D01*
X9303317Y19426701D01*
X9238556Y19453526D01*
X9173795Y19480351D01*
X9036298Y19507701D01*
X9036296Y19507701D01*
X8896104Y19507701D01*
X8889891Y19507701D01*
X8889871Y19507700D01*
X4097499Y19507700D01*
X4029378Y19527702D01*
X3982885Y19581358D01*
X3971499Y19633700D01*
X3971499Y19662336D01*
X3968569Y19699576D01*
X3968569Y19699577D01*
X3968569Y19699578D01*
X3922265Y19858959D01*
X3837778Y20001818D01*
X3837775Y20001822D01*
X3720421Y20119176D01*
X3720417Y20119179D01*
X3577561Y20203664D01*
X3577560Y20203665D01*
X3577559Y20203665D01*
X3497868Y20226817D01*
X3418176Y20249970D01*
X3380945Y20252900D01*
X1648264Y20252900D01*
X1611024Y20249970D01*
X1451638Y20203664D01*
X1308782Y20119179D01*
X1308778Y20119176D01*
X1191424Y20001822D01*
X1191421Y20001818D01*
X1106936Y19858962D01*
X1060630Y19699577D01*
X1057700Y19662346D01*
X635500Y19662346D01*
X635500Y24130500D01*
X655502Y24198621D01*
X709158Y24245114D01*
X761500Y24256500D01*
X954849Y24256500D01*
X1022970Y24236498D01*
G37*
%TD.AperFunction*%
%TD*%
%TA.AperFunction,NonConductor*%
G36*
X39331965Y1147898D02*
G01*
X39352934Y1131000D01*
X39447342Y1036592D01*
X39603675Y932133D01*
X39726320Y881332D01*
X39734584Y877909D01*
X39789865Y833361D01*
X39812286Y765997D01*
X39794728Y697206D01*
X39742766Y648828D01*
X39686366Y635500D01*
X36097590Y635500D01*
X36029469Y655502D01*
X35982976Y709158D01*
X35972872Y779432D01*
X36002366Y844012D01*
X36027588Y866265D01*
X36095674Y911759D01*
X36168458Y960392D01*
X36301408Y1093342D01*
X36313808Y1111901D01*
X36368284Y1157429D01*
X36418574Y1167900D01*
X39263844Y1167900D01*
X39331965Y1147898D01*
G37*
%TD.AperFunction*%
%TA.AperFunction,NonConductor*%
G36*
X34709167Y1165627D02*
G01*
X34717131Y1166917D01*
X34742742Y1155769D01*
X34769547Y1147898D01*
X34776488Y1141079D01*
X34782227Y1138581D01*
X34806192Y1111900D01*
X34818587Y1093348D01*
X34818589Y1093346D01*
X34818592Y1093342D01*
X34926137Y985797D01*
X34951542Y960392D01*
X35092412Y866265D01*
X35137940Y811788D01*
X35146788Y741345D01*
X35116146Y677301D01*
X35055744Y639989D01*
X35022410Y635500D01*
X31522409Y635500D01*
X31454288Y655502D01*
X31407795Y709158D01*
X31397691Y779432D01*
X31427185Y844012D01*
X31474192Y877909D01*
X31476936Y879046D01*
X31482458Y881333D01*
X31638791Y985792D01*
X31771741Y1118742D01*
X31771741Y1118744D01*
X31774282Y1121837D01*
X31776022Y1123023D01*
X31776118Y1123118D01*
X31776136Y1123100D01*
X31832960Y1161804D01*
X31871678Y1167900D01*
X34701426Y1167900D01*
X34709167Y1165627D01*
G37*
%TD.AperFunction*%
%TA.AperFunction,NonConductor*%
G36*
X30222908Y1198698D02*
G01*
X30259552Y1162701D01*
X30288920Y1118747D01*
X30288929Y1118737D01*
X30421869Y985797D01*
X30421875Y985792D01*
X30578208Y881333D01*
X30578210Y881332D01*
X30586474Y877909D01*
X30641755Y833362D01*
X30664177Y765999D01*
X30646620Y697207D01*
X30594658Y648828D01*
X30538257Y635500D01*
X27121144Y635500D01*
X27053023Y655502D01*
X27006530Y709158D01*
X26996426Y779432D01*
X27025920Y844012D01*
X27051142Y866265D01*
X27073691Y881332D01*
X27189804Y958917D01*
X27336683Y1105796D01*
X27374707Y1162702D01*
X27429184Y1208230D01*
X27479472Y1218700D01*
X30154787Y1218700D01*
X30222908Y1198698D01*
G37*
%TD.AperFunction*%
%TA.AperFunction,NonConductor*%
G36*
X25563467Y1216428D02*
G01*
X25571430Y1217718D01*
X25597046Y1206568D01*
X25623849Y1198698D01*
X25630789Y1191881D01*
X25636527Y1189383D01*
X25660493Y1162702D01*
X25698516Y1105797D01*
X25698521Y1105791D01*
X25845390Y958922D01*
X25845396Y958917D01*
X25984058Y866265D01*
X26029586Y811788D01*
X26038433Y741345D01*
X26007792Y677301D01*
X25947390Y639989D01*
X25914056Y635500D01*
X22650744Y635500D01*
X22582623Y655502D01*
X22536130Y709158D01*
X22526026Y779432D01*
X22555520Y844012D01*
X22580742Y866265D01*
X22603291Y881332D01*
X22719404Y958917D01*
X22866283Y1105796D01*
X22904307Y1162702D01*
X22958784Y1208230D01*
X23009072Y1218700D01*
X25555728Y1218700D01*
X25563467Y1216428D01*
G37*
%TD.AperFunction*%
M02*
