%TF.GenerationSoftware,KiCad,Pcbnew,10.0.3*%
%TF.CreationDate,2026-07-10T08:55:56+10:00*%
%TF.ProjectId,load mini 7 tht,6c6f6164-206d-4696-9e69-203720746874,rev?*%
%TF.SameCoordinates,Original*%
%TF.FileFunction,Copper,L2,Bot*%
%TF.FilePolarity,Positive*%
%FSLAX46Y46*%
G04 Gerber Fmt 4.6, Leading zero omitted, Abs format (unit mm)*
G04 Created by KiCad (PCBNEW 10.0.3) date 2026-07-10 08:55:56*
%MOMM*%
%LPD*%
G01*
G04 APERTURE LIST*
G04 Aperture macros list*
%AMRoundRect*
0 Rectangle with rounded corners*
0 $1 Rounding radius*
0 $2 $3 $4 $5 $6 $7 $8 $9 X,Y pos of 4 corners*
0 Add a 4 corners polygon primitive as box body*
4,1,4,$2,$3,$4,$5,$6,$7,$8,$9,$2,$3,0*
0 Add four circle primitives for the rounded corners*
1,1,$1+$1,$2,$3*
1,1,$1+$1,$4,$5*
1,1,$1+$1,$6,$7*
1,1,$1+$1,$8,$9*
0 Add four rect primitives between the rounded corners*
20,1,$1+$1,$2,$3,$4,$5,0*
20,1,$1+$1,$4,$5,$6,$7,0*
20,1,$1+$1,$6,$7,$8,$9,0*
20,1,$1+$1,$8,$9,$2,$3,0*%
G04 Aperture macros list end*
%TA.AperFunction,ComponentPad*%
%ADD10R,1.700000X1.700000*%
%TD*%
%TA.AperFunction,ComponentPad*%
%ADD11R,1.050000X1.500000*%
%TD*%
%TA.AperFunction,ComponentPad*%
%ADD12O,1.050000X1.500000*%
%TD*%
%TA.AperFunction,ComponentPad*%
%ADD13C,1.400000*%
%TD*%
%TA.AperFunction,ComponentPad*%
%ADD14O,1.400000X1.400000*%
%TD*%
%TA.AperFunction,ComponentPad*%
%ADD15RoundRect,0.250001X-0.799999X-0.799999X0.799999X-0.799999X0.799999X0.799999X-0.799999X0.799999X0*%
%TD*%
%TA.AperFunction,ComponentPad*%
%ADD16O,1.700000X1.700000*%
%TD*%
%TA.AperFunction,ComponentPad*%
%ADD17C,1.600000*%
%TD*%
%TA.AperFunction,ComponentPad*%
%ADD18R,1.400000X1.400000*%
%TD*%
%TA.AperFunction,ComponentPad*%
%ADD19R,1.600000X1.600000*%
%TD*%
%TA.AperFunction,ComponentPad*%
%ADD20O,1.600000X1.600000*%
%TD*%
%TA.AperFunction,Conductor*%
%ADD21C,0.812800*%
%TD*%
%TA.AperFunction,Conductor*%
%ADD22C,0.609600*%
%TD*%
G04 APERTURE END LIST*
D10*
%TO.P,J7,1,Pin_1_1*%
%TO.N,/Rly*%
X48107600Y22199600D03*
%TD*%
D11*
%TO.P,Q1,1,C_1*%
%TO.N,Net-(D2-A)*%
X33426400Y21844000D03*
D12*
%TO.P,Q1,2,B_2*%
%TO.N,Net-(Q1-B)*%
X34696400Y21844000D03*
%TO.P,Q1,3,E_3*%
%TO.N,GND*%
X35966400Y21844000D03*
%TD*%
D13*
%TO.P,R6,1*%
%TO.N,Net-(Q1-B)*%
X40182800Y21945600D03*
D14*
%TO.P,R6,2*%
%TO.N,/Rly*%
X42722800Y21945600D03*
%TD*%
D13*
%TO.P,R2,1*%
%TO.N,/Vref*%
X35560000Y1701800D03*
D14*
%TO.P,R2,2*%
%TO.N,/K+*%
X35560000Y4241800D03*
%TD*%
D15*
%TO.P,J6,1,Pin_1_1*%
%TO.N,/G*%
X2514600Y2209800D03*
%TD*%
D13*
%TO.P,R3,1*%
%TO.N,/Vref*%
X40055800Y1778000D03*
D14*
%TO.P,R3,2*%
%TO.N,+12V*%
X40055800Y4318000D03*
%TD*%
D15*
%TO.P,J4,1,Pin_1_1*%
%TO.N,/E*%
X2514600Y6121400D03*
%TD*%
D13*
%TO.P,R4,1*%
%TO.N,/F*%
X32740600Y10058400D03*
D14*
%TO.P,R4,2*%
%TO.N,/K-*%
X35280600Y10058400D03*
%TD*%
D13*
%TO.P,R5,1*%
%TO.N,/Vref*%
X31030333Y1727200D03*
D14*
%TO.P,R5,2*%
%TO.N,/K-*%
X31030333Y4267200D03*
%TD*%
D10*
%TO.P,J3,1,Pin_1_1*%
%TO.N,/K-*%
X39319200Y10922000D03*
D16*
%TO.P,J3,2,Pin_2_2*%
%TO.N,/K+*%
X39319200Y13462000D03*
%TD*%
D15*
%TO.P,J1,1,Pin_1_1*%
%TO.N,/A*%
X2514600Y18796000D03*
%TD*%
D17*
%TO.P,C1,1*%
%TO.N,GND*%
X40309800Y18262600D03*
%TO.P,C1,2*%
%TO.N,/K+*%
X35309800Y18262600D03*
%TD*%
D13*
%TO.P,R1,1*%
%TO.N,/C*%
X32714400Y14376400D03*
D14*
%TO.P,R1,2*%
%TO.N,/K+*%
X35254400Y14376400D03*
%TD*%
D10*
%TO.P,J5,1,Pin_1_1*%
%TO.N,GND*%
X48133000Y3175000D03*
D16*
%TO.P,J5,2,Pin_2_2*%
%TO.N,+12V*%
X48133000Y5715000D03*
%TD*%
D15*
%TO.P,J2,1,Pin_1_1*%
%TO.N,/B*%
X2514600Y23139400D03*
%TD*%
D18*
%TO.P,K1,1*%
%TO.N,Net-(D2-A)*%
X27889200Y16078200D03*
D13*
%TO.P,K1,4*%
%TO.N,/C*%
X20269200Y16078200D03*
%TO.P,K1,6*%
%TO.N,/B*%
X15189200Y16078200D03*
%TO.P,K1,8*%
%TO.N,/A*%
X10109200Y16078200D03*
%TO.P,K1,9*%
%TO.N,/E*%
X10109200Y8458200D03*
%TO.P,K1,11*%
%TO.N,/G*%
X15189200Y8458200D03*
%TO.P,K1,13*%
%TO.N,/F*%
X20269200Y8458200D03*
%TO.P,K1,16*%
%TO.N,+12V*%
X27889200Y8458200D03*
%TD*%
D19*
%TO.P,D2,1,K_1*%
%TO.N,+12V*%
X25374600Y21945600D03*
D20*
%TO.P,D2,2,A_2*%
%TO.N,Net-(D2-A)*%
X27914600Y21945600D03*
%TD*%
D19*
%TO.P,D1,1,K_1*%
%TO.N,GND*%
X26517600Y4318000D03*
D20*
%TO.P,D1,2,A_2*%
%TO.N,/Vref*%
X26517600Y1778000D03*
%TD*%
D17*
%TO.P,C2,1*%
%TO.N,/Vref*%
X22047200Y1778000D03*
%TO.P,C2,2*%
%TO.N,GND*%
X17047200Y1778000D03*
%TD*%
%TO.N,/E*%
D21*
X10490200Y8382000D02*
X10414000Y8458200D01*
%TO.N,/F*%
D22*
X29387800Y12166600D02*
X31496000Y10058400D01*
X20269200Y8458200D02*
X20269200Y10718800D01*
X20269200Y10718800D02*
X21717000Y12166600D01*
X21717000Y12166600D02*
X29387800Y12166600D01*
X31496000Y10058400D02*
X32740600Y10058400D01*
%TO.N,+12V*%
D21*
X41935400Y6883400D02*
X41757600Y7061200D01*
X18846800Y21894800D02*
X17754600Y20802600D01*
X17754600Y20802600D02*
X17754600Y7086600D01*
X25323800Y21894800D02*
X18846800Y21894800D01*
X19024600Y5816600D02*
X22301200Y5816600D01*
X41757600Y7061200D02*
X29286200Y7061200D01*
X22301200Y5816600D02*
X24942800Y8458200D01*
X43103800Y5715000D02*
X48133000Y5715000D01*
X29286200Y7061200D02*
X27889200Y8458200D01*
X41935400Y6883400D02*
X43103800Y5715000D01*
X25374600Y21945600D02*
X25323800Y21894800D01*
X24942800Y8458200D02*
X27889200Y8458200D01*
X17754600Y7086600D02*
X19024600Y5816600D01*
%TD*%
%TA.AperFunction,Conductor*%
%TO.N,GND*%
G36*
X1022970Y24236498D02*
G01*
X1069463Y24182842D01*
X1079567Y24112568D01*
X1075847Y24095355D01*
X1069197Y24072466D01*
X1060630Y24042977D01*
X1057700Y24005746D01*
X1057700Y22273065D01*
X1060630Y22235825D01*
X1106936Y22076439D01*
X1191421Y21933583D01*
X1191424Y21933579D01*
X1308778Y21816225D01*
X1308782Y21816222D01*
X1451641Y21731735D01*
X1611022Y21685431D01*
X1648263Y21682500D01*
X3380936Y21682501D01*
X3418178Y21685431D01*
X3577559Y21731735D01*
X3720418Y21816222D01*
X3837778Y21933582D01*
X3922265Y22076441D01*
X3968569Y22235822D01*
X3971500Y22273063D01*
X3971500Y23074670D01*
X47003100Y23074670D01*
X47003100Y21324537D01*
X47003101Y21324527D01*
X47017865Y21250300D01*
X47074116Y21166116D01*
X47158297Y21109867D01*
X47158299Y21109866D01*
X47232533Y21095100D01*
X48982666Y21095101D01*
X48982669Y21095102D01*
X48982673Y21095102D01*
X49031926Y21104899D01*
X49056901Y21109866D01*
X49141084Y21166116D01*
X49197334Y21250299D01*
X49212100Y21324533D01*
X49212099Y23074666D01*
X49212098Y23074670D01*
X49212098Y23074674D01*
X49197334Y23148901D01*
X49141083Y23233085D01*
X49056902Y23289334D01*
X48982667Y23304100D01*
X47232536Y23304100D01*
X47232526Y23304099D01*
X47158299Y23289335D01*
X47074115Y23233084D01*
X47017866Y23148903D01*
X47003100Y23074670D01*
X3971500Y23074670D01*
X3971499Y24005736D01*
X3968569Y24042978D01*
X3953354Y24095349D01*
X3953557Y24166344D01*
X3992111Y24225960D01*
X4056776Y24255268D01*
X4074351Y24256500D01*
X50038500Y24256500D01*
X50106621Y24236498D01*
X50153114Y24182842D01*
X50164500Y24130500D01*
X50164500Y15611033D01*
X50144498Y15542912D01*
X50090842Y15496419D01*
X50020568Y15486315D01*
X49955988Y15515809D01*
X49949405Y15521938D01*
X49881135Y15590208D01*
X49596144Y15829345D01*
X49596131Y15829354D01*
X49291386Y16042738D01*
X49291360Y16042754D01*
X48969193Y16228757D01*
X48969175Y16228767D01*
X48631997Y16385995D01*
X48282404Y16513237D01*
X48197480Y16535993D01*
X47923032Y16609531D01*
X47556644Y16674135D01*
X47186020Y16706560D01*
X46813980Y16706560D01*
X46443356Y16674135D01*
X46076968Y16609531D01*
X46076964Y16609530D01*
X45717595Y16513237D01*
X45368002Y16385995D01*
X45030824Y16228767D01*
X45030806Y16228757D01*
X44708639Y16042754D01*
X44708613Y16042738D01*
X44403868Y15829354D01*
X44403855Y15829345D01*
X44118864Y15590208D01*
X44118855Y15590198D01*
X43855802Y15327145D01*
X43855792Y15327136D01*
X43616655Y15042145D01*
X43616646Y15042132D01*
X43403262Y14737387D01*
X43403246Y14737361D01*
X43217243Y14415194D01*
X43217233Y14415176D01*
X43060005Y14077998D01*
X42932763Y13728405D01*
X42860464Y13458582D01*
X42836469Y13369032D01*
X42771865Y13002644D01*
X42739440Y12632020D01*
X42739440Y12259980D01*
X42771865Y11889356D01*
X42836469Y11522968D01*
X42843276Y11497565D01*
X42932763Y11163596D01*
X43060005Y10814003D01*
X43217233Y10476825D01*
X43217243Y10476807D01*
X43403246Y10154640D01*
X43403262Y10154614D01*
X43616646Y9849869D01*
X43616655Y9849856D01*
X43855792Y9564865D01*
X44118864Y9301793D01*
X44403855Y9062656D01*
X44403868Y9062647D01*
X44621407Y8910325D01*
X44708622Y8849257D01*
X44708634Y8849250D01*
X44708639Y8849247D01*
X44903710Y8736623D01*
X45030818Y8663237D01*
X45368001Y8506006D01*
X45566909Y8433610D01*
X45717595Y8378764D01*
X45717597Y8378764D01*
X45717604Y8378761D01*
X46076968Y8282469D01*
X46443356Y8217865D01*
X46813980Y8185440D01*
X46813986Y8185440D01*
X47186014Y8185440D01*
X47186020Y8185440D01*
X47556644Y8217865D01*
X47923032Y8282469D01*
X48282396Y8378761D01*
X48631999Y8506006D01*
X48969182Y8663237D01*
X49291378Y8849257D01*
X49596136Y9062650D01*
X49596139Y9062653D01*
X49596144Y9062656D01*
X49881135Y9301793D01*
X49881145Y9301802D01*
X49949405Y9370062D01*
X50011717Y9404088D01*
X50082532Y9399023D01*
X50139368Y9356476D01*
X50164179Y9289956D01*
X50164500Y9280967D01*
X50164500Y761500D01*
X50144498Y693379D01*
X50090842Y646886D01*
X50038500Y635500D01*
X40425234Y635500D01*
X40357113Y655502D01*
X40310620Y709158D01*
X40300516Y779432D01*
X40330010Y844012D01*
X40377016Y877909D01*
X40385280Y881332D01*
X40507925Y932133D01*
X40664258Y1036592D01*
X40797208Y1169542D01*
X40901667Y1325875D01*
X40973619Y1499583D01*
X41010300Y1683990D01*
X41010300Y1872010D01*
X40973619Y2056417D01*
X40901667Y2230125D01*
X40797208Y2386458D01*
X40797203Y2386464D01*
X40664263Y2519404D01*
X40664257Y2519409D01*
X40583952Y2573067D01*
X40507925Y2623867D01*
X40334217Y2695819D01*
X40149812Y2732500D01*
X40149810Y2732500D01*
X39961790Y2732500D01*
X39961787Y2732500D01*
X39777382Y2695819D01*
X39777377Y2695817D01*
X39603675Y2623867D01*
X39447342Y2519409D01*
X39447336Y2519404D01*
X39314396Y2386464D01*
X39314391Y2386458D01*
X39209933Y2230125D01*
X39137983Y2056423D01*
X39137981Y2056418D01*
X39101300Y1872013D01*
X39101300Y1683988D01*
X39131454Y1532394D01*
X39137981Y1499583D01*
X39209933Y1325875D01*
X39271697Y1233439D01*
X39314391Y1169543D01*
X39314396Y1169537D01*
X39447336Y1036597D01*
X39447342Y1036592D01*
X39603675Y932133D01*
X39726320Y881332D01*
X39734584Y877909D01*
X39789865Y833361D01*
X39812286Y765997D01*
X39794728Y697206D01*
X39742766Y648828D01*
X39686366Y635500D01*
X36097590Y635500D01*
X36029469Y655502D01*
X35982976Y709158D01*
X35972872Y779432D01*
X36002366Y844012D01*
X36027588Y866265D01*
X36095674Y911759D01*
X36168458Y960392D01*
X36301408Y1093342D01*
X36405867Y1249675D01*
X36477819Y1423383D01*
X36514500Y1607790D01*
X36514500Y1795810D01*
X36477819Y1980217D01*
X36405867Y2153925D01*
X36301408Y2310258D01*
X36301403Y2310264D01*
X36168463Y2443204D01*
X36168457Y2443209D01*
X36054417Y2519408D01*
X36012125Y2547667D01*
X35838417Y2619619D01*
X35817061Y2623867D01*
X35654012Y2656300D01*
X35654010Y2656300D01*
X35465990Y2656300D01*
X35465987Y2656300D01*
X35281582Y2619619D01*
X35281577Y2619617D01*
X35107875Y2547667D01*
X34951542Y2443209D01*
X34951536Y2443204D01*
X34818596Y2310264D01*
X34818591Y2310258D01*
X34714133Y2153925D01*
X34642183Y1980223D01*
X34642181Y1980218D01*
X34605500Y1795813D01*
X34605500Y1795810D01*
X34605500Y1607790D01*
X34642181Y1423383D01*
X34714133Y1249675D01*
X34767680Y1169537D01*
X34818591Y1093343D01*
X34818596Y1093337D01*
X34951536Y960397D01*
X34951542Y960392D01*
X35092412Y866265D01*
X35137940Y811788D01*
X35146788Y741345D01*
X35116146Y677301D01*
X35055744Y639989D01*
X35022410Y635500D01*
X31522409Y635500D01*
X31454288Y655502D01*
X31407795Y709158D01*
X31397691Y779432D01*
X31427185Y844012D01*
X31474192Y877909D01*
X31476936Y879046D01*
X31482458Y881333D01*
X31638791Y985792D01*
X31771741Y1118742D01*
X31876200Y1275075D01*
X31948152Y1448783D01*
X31984833Y1633190D01*
X31984833Y1821210D01*
X31948152Y2005617D01*
X31876200Y2179325D01*
X31771741Y2335658D01*
X31771736Y2335664D01*
X31638796Y2468604D01*
X31638790Y2468609D01*
X31562762Y2519409D01*
X31482458Y2573067D01*
X31308750Y2645019D01*
X31252037Y2656300D01*
X31124345Y2681700D01*
X31124343Y2681700D01*
X30936323Y2681700D01*
X30936320Y2681700D01*
X30751915Y2645019D01*
X30751910Y2645017D01*
X30578208Y2573067D01*
X30421875Y2468609D01*
X30421869Y2468604D01*
X30288929Y2335664D01*
X30288924Y2335658D01*
X30184466Y2179325D01*
X30112516Y2005623D01*
X30112514Y2005618D01*
X30075833Y1821213D01*
X30075833Y1633188D01*
X30102409Y1499583D01*
X30112514Y1448783D01*
X30184466Y1275075D01*
X30254263Y1170617D01*
X30288924Y1118743D01*
X30288929Y1118737D01*
X30421869Y985797D01*
X30421875Y985792D01*
X30578208Y881333D01*
X30578210Y881332D01*
X30586474Y877909D01*
X30641755Y833362D01*
X30664177Y765999D01*
X30646620Y697207D01*
X30594658Y648828D01*
X30538257Y635500D01*
X27121144Y635500D01*
X27053023Y655502D01*
X27006530Y709158D01*
X26996426Y779432D01*
X27025920Y844012D01*
X27051142Y866265D01*
X27073691Y881332D01*
X27189804Y958917D01*
X27336683Y1105796D01*
X27452086Y1278507D01*
X27531576Y1470414D01*
X27572100Y1674141D01*
X27572100Y1881859D01*
X27531576Y2085586D01*
X27452086Y2277493D01*
X27336683Y2450204D01*
X27336678Y2450210D01*
X27189809Y2597079D01*
X27189803Y2597084D01*
X27073194Y2675000D01*
X27017093Y2712486D01*
X26825186Y2791976D01*
X26621461Y2832500D01*
X26621459Y2832500D01*
X26413741Y2832500D01*
X26413738Y2832500D01*
X26210013Y2791976D01*
X26210008Y2791974D01*
X26018107Y2712486D01*
X25845396Y2597084D01*
X25845390Y2597079D01*
X25698521Y2450210D01*
X25698516Y2450204D01*
X25583114Y2277493D01*
X25503626Y2085592D01*
X25503624Y2085587D01*
X25463100Y1881862D01*
X25463100Y1674139D01*
X25476298Y1607790D01*
X25503624Y1470414D01*
X25583114Y1278507D01*
X25613228Y1233439D01*
X25698516Y1105797D01*
X25698521Y1105791D01*
X25845390Y958922D01*
X25845396Y958917D01*
X25984058Y866265D01*
X26029586Y811788D01*
X26038433Y741345D01*
X26007792Y677301D01*
X25947390Y639989D01*
X25914056Y635500D01*
X22650744Y635500D01*
X22582623Y655502D01*
X22536130Y709158D01*
X22526026Y779432D01*
X22555520Y844012D01*
X22580742Y866265D01*
X22603291Y881332D01*
X22719404Y958917D01*
X22866283Y1105796D01*
X22981686Y1278507D01*
X23061176Y1470414D01*
X23101700Y1674141D01*
X23101700Y1881859D01*
X23061176Y2085586D01*
X22981686Y2277493D01*
X22866283Y2450204D01*
X22866278Y2450210D01*
X22719409Y2597079D01*
X22719403Y2597084D01*
X22602794Y2675000D01*
X22546693Y2712486D01*
X22354786Y2791976D01*
X22151061Y2832500D01*
X22151059Y2832500D01*
X21943341Y2832500D01*
X21943338Y2832500D01*
X21739613Y2791976D01*
X21739608Y2791974D01*
X21547707Y2712486D01*
X21374996Y2597084D01*
X21374990Y2597079D01*
X21228121Y2450210D01*
X21228116Y2450204D01*
X21112714Y2277493D01*
X21033226Y2085592D01*
X21033224Y2085587D01*
X20992700Y1881862D01*
X20992700Y1674139D01*
X21005898Y1607790D01*
X21033224Y1470414D01*
X21112714Y1278507D01*
X21142828Y1233439D01*
X21228116Y1105797D01*
X21228121Y1105791D01*
X21374990Y958922D01*
X21374996Y958917D01*
X21513658Y866265D01*
X21559186Y811788D01*
X21568033Y741345D01*
X21537392Y677301D01*
X21476990Y639989D01*
X21443656Y635500D01*
X17649844Y635500D01*
X17581723Y655502D01*
X17535230Y709158D01*
X17525126Y779432D01*
X17554620Y844012D01*
X17579842Y866265D01*
X17591760Y874229D01*
X17591761Y874230D01*
X17087991Y1378000D01*
X17099861Y1378000D01*
X17201594Y1405259D01*
X17292806Y1457920D01*
X17367280Y1532394D01*
X17419941Y1623606D01*
X17447200Y1725339D01*
X17447200Y1737209D01*
X17950970Y1233439D01*
X17950971Y1233440D01*
X17981241Y1278743D01*
X18060694Y1470558D01*
X18060695Y1470561D01*
X18101199Y1674185D01*
X18101200Y1674192D01*
X18101200Y1881809D01*
X18101199Y1881816D01*
X18060695Y2085440D01*
X18060694Y2085443D01*
X17981242Y2277257D01*
X17950970Y2322562D01*
X17447200Y1818792D01*
X17447200Y1830661D01*
X17419941Y1932394D01*
X17367280Y2023606D01*
X17292806Y2098080D01*
X17201594Y2150741D01*
X17099861Y2178000D01*
X17087990Y2178000D01*
X17591761Y2681773D01*
X17546460Y2712041D01*
X17354642Y2791495D01*
X17354639Y2791496D01*
X17151015Y2832000D01*
X16943384Y2832000D01*
X16739760Y2791496D01*
X16739757Y2791495D01*
X16547941Y2712042D01*
X16502638Y2681772D01*
X16502637Y2681772D01*
X17006409Y2178000D01*
X16994539Y2178000D01*
X16892806Y2150741D01*
X16801594Y2098080D01*
X16727120Y2023606D01*
X16674459Y1932394D01*
X16647200Y1830661D01*
X16647200Y1818791D01*
X16143428Y2322563D01*
X16143428Y2322562D01*
X16113158Y2277259D01*
X16033705Y2085443D01*
X16033704Y2085440D01*
X15993200Y1881816D01*
X15993200Y1674185D01*
X16033704Y1470561D01*
X16033705Y1470558D01*
X16113159Y1278740D01*
X16143427Y1233439D01*
X16647200Y1737212D01*
X16647200Y1725339D01*
X16674459Y1623606D01*
X16727120Y1532394D01*
X16801594Y1457920D01*
X16892806Y1405259D01*
X16994539Y1378000D01*
X17006410Y1378000D01*
X16502638Y874229D01*
X16514557Y866265D01*
X16560084Y811789D01*
X16568933Y741345D01*
X16538292Y677301D01*
X16477890Y639990D01*
X16444555Y635500D01*
X761500Y635500D01*
X693379Y655502D01*
X646886Y709158D01*
X635500Y761500D01*
X635500Y3058067D01*
X1210100Y3058067D01*
X1210100Y1361534D01*
X1216558Y1301465D01*
X1216559Y1301460D01*
X1216560Y1301459D01*
X1267258Y1165533D01*
X1354196Y1049396D01*
X1470333Y962458D01*
X1606259Y911760D01*
X1606262Y911760D01*
X1606264Y911759D01*
X1666333Y905301D01*
X1666341Y905301D01*
X1666346Y905300D01*
X1666350Y905300D01*
X3362850Y905300D01*
X3362854Y905300D01*
X3362859Y905301D01*
X3362866Y905301D01*
X3422935Y911759D01*
X3422936Y911760D01*
X3422941Y911760D01*
X3558867Y962458D01*
X3675004Y1049396D01*
X3761942Y1165533D01*
X3812640Y1301459D01*
X3819100Y1361546D01*
X3819100Y3058054D01*
X3819099Y3058067D01*
X3812641Y3118136D01*
X3812640Y3118138D01*
X3812640Y3118141D01*
X3761942Y3254067D01*
X3675004Y3370204D01*
X3558867Y3457142D01*
X3422941Y3507840D01*
X3422940Y3507841D01*
X3422935Y3507842D01*
X3362866Y3514300D01*
X3362854Y3514300D01*
X1666346Y3514300D01*
X1666333Y3514300D01*
X1606264Y3507842D01*
X1586290Y3500392D01*
X1470333Y3457142D01*
X1470332Y3457142D01*
X1470331Y3457141D01*
X1354196Y3370204D01*
X1285726Y3278737D01*
X1267258Y3254067D01*
X1234159Y3165327D01*
X1216558Y3118136D01*
X1210100Y3058067D01*
X635500Y3058067D01*
X635500Y6969667D01*
X1210100Y6969667D01*
X1210100Y5273134D01*
X1216558Y5213065D01*
X1216559Y5213060D01*
X1216560Y5213059D01*
X1267258Y5077133D01*
X1354196Y4960996D01*
X1470333Y4874058D01*
X1606259Y4823360D01*
X1606262Y4823360D01*
X1606264Y4823359D01*
X1666333Y4816901D01*
X1666341Y4816901D01*
X1666346Y4816900D01*
X1666350Y4816900D01*
X3362850Y4816900D01*
X3362854Y4816900D01*
X3362859Y4816901D01*
X3362866Y4816901D01*
X3422935Y4823359D01*
X3422936Y4823360D01*
X3422941Y4823360D01*
X3558867Y4874058D01*
X3675004Y4960996D01*
X3761942Y5077133D01*
X3786518Y5143023D01*
X25463600Y5143023D01*
X25463600Y4572000D01*
X26205914Y4572000D01*
X26197520Y4563606D01*
X26144859Y4472394D01*
X26117600Y4370661D01*
X26117600Y4265339D01*
X26144859Y4163606D01*
X26197520Y4072394D01*
X26205914Y4064000D01*
X25463601Y4064000D01*
X25463601Y3492978D01*
X25478337Y3418895D01*
X25478337Y3418893D01*
X25534475Y3334876D01*
X25618493Y3278738D01*
X25618494Y3278737D01*
X25692580Y3264001D01*
X26263600Y3264001D01*
X26263600Y4006314D01*
X26271994Y3997920D01*
X26363206Y3945259D01*
X26464939Y3918000D01*
X26570261Y3918000D01*
X26671994Y3945259D01*
X26763206Y3997920D01*
X26771600Y4006314D01*
X26771600Y3264001D01*
X27342614Y3264001D01*
X27342622Y3264002D01*
X27416705Y3278738D01*
X27416707Y3278738D01*
X27500724Y3334876D01*
X27556862Y3418894D01*
X27556863Y3418895D01*
X27571599Y3492978D01*
X27571600Y3492985D01*
X27571600Y4064000D01*
X26829286Y4064000D01*
X26837680Y4072394D01*
X26890341Y4163606D01*
X26917600Y4265339D01*
X26917600Y4361213D01*
X30075833Y4361213D01*
X30075833Y4173188D01*
X30100334Y4050014D01*
X30112514Y3988783D01*
X30184466Y3815075D01*
X30201438Y3789675D01*
X30288924Y3658743D01*
X30288929Y3658737D01*
X30421869Y3525797D01*
X30421875Y3525792D01*
X30578208Y3421333D01*
X30751916Y3349381D01*
X30936323Y3312700D01*
X30936324Y3312700D01*
X31124342Y3312700D01*
X31124343Y3312700D01*
X31308750Y3349381D01*
X31482458Y3421333D01*
X31638791Y3525792D01*
X31771741Y3658742D01*
X31876200Y3815075D01*
X31948152Y3988783D01*
X31984833Y4173190D01*
X31984833Y4335813D01*
X34605500Y4335813D01*
X34605500Y4147788D01*
X34610211Y4124107D01*
X34642181Y3963383D01*
X34714133Y3789675D01*
X34767680Y3709537D01*
X34818591Y3633343D01*
X34818596Y3633337D01*
X34951536Y3500397D01*
X34951542Y3500392D01*
X35107875Y3395933D01*
X35281583Y3323981D01*
X35465990Y3287300D01*
X35465991Y3287300D01*
X35654009Y3287300D01*
X35654010Y3287300D01*
X35838417Y3323981D01*
X36012125Y3395933D01*
X36168458Y3500392D01*
X36301408Y3633342D01*
X36405867Y3789675D01*
X36477819Y3963383D01*
X36514500Y4147790D01*
X36514500Y4335810D01*
X36499342Y4412013D01*
X39101300Y4412013D01*
X39101300Y4223988D01*
X39131454Y4072394D01*
X39137981Y4039583D01*
X39209933Y3865875D01*
X39243876Y3815076D01*
X39314391Y3709543D01*
X39314396Y3709537D01*
X39447336Y3576597D01*
X39447342Y3576592D01*
X39603675Y3472133D01*
X39777383Y3400181D01*
X39961790Y3363500D01*
X39961791Y3363500D01*
X40149809Y3363500D01*
X40149810Y3363500D01*
X40334217Y3400181D01*
X40507925Y3472133D01*
X40664258Y3576592D01*
X40797208Y3709542D01*
X40901667Y3865875D01*
X40973619Y4039583D01*
X40975696Y4050023D01*
X47029000Y4050023D01*
X47029000Y3429000D01*
X47702297Y3429000D01*
X47667075Y3367993D01*
X47633000Y3240826D01*
X47633000Y3109174D01*
X47667075Y2982007D01*
X47702297Y2921000D01*
X47029001Y2921000D01*
X47029001Y2299978D01*
X47043737Y2225895D01*
X47043737Y2225893D01*
X47099875Y2141876D01*
X47183893Y2085738D01*
X47183894Y2085737D01*
X47257980Y2071001D01*
X47879000Y2071001D01*
X47879000Y2744298D01*
X47940007Y2709075D01*
X48067174Y2675000D01*
X48198826Y2675000D01*
X48325993Y2709075D01*
X48387000Y2744298D01*
X48387000Y2071001D01*
X49008014Y2071001D01*
X49008022Y2071002D01*
X49082105Y2085738D01*
X49082107Y2085738D01*
X49166124Y2141876D01*
X49222262Y2225894D01*
X49222263Y2225895D01*
X49236999Y2299978D01*
X49237000Y2299985D01*
X49237000Y2921000D01*
X48563703Y2921000D01*
X48598925Y2982007D01*
X48633000Y3109174D01*
X48633000Y3240826D01*
X48598925Y3367993D01*
X48563703Y3429000D01*
X49236999Y3429000D01*
X49236999Y4050014D01*
X49236998Y4050023D01*
X49222262Y4124106D01*
X49222262Y4124108D01*
X49166124Y4208125D01*
X49082106Y4264263D01*
X49082105Y4264264D01*
X49008022Y4279000D01*
X48387000Y4279000D01*
X48387000Y3605703D01*
X48325993Y3640925D01*
X48198826Y3675000D01*
X48067174Y3675000D01*
X47940007Y3640925D01*
X47879000Y3605703D01*
X47879000Y4279000D01*
X47257986Y4279000D01*
X47257976Y4278999D01*
X47183894Y4264263D01*
X47183892Y4264263D01*
X47099875Y4208125D01*
X47043737Y4124107D01*
X47043736Y4124106D01*
X47029000Y4050023D01*
X40975696Y4050023D01*
X41010300Y4223990D01*
X41010300Y4412010D01*
X40973619Y4596417D01*
X40901667Y4770125D01*
X40797208Y4926458D01*
X40797203Y4926464D01*
X40664263Y5059404D01*
X40664257Y5059409D01*
X40583952Y5113067D01*
X40507925Y5163867D01*
X40334217Y5235819D01*
X40149812Y5272500D01*
X40149810Y5272500D01*
X39961790Y5272500D01*
X39961787Y5272500D01*
X39777382Y5235819D01*
X39777377Y5235817D01*
X39603675Y5163867D01*
X39447342Y5059409D01*
X39447336Y5059404D01*
X39314396Y4926464D01*
X39314391Y4926458D01*
X39209933Y4770125D01*
X39137983Y4596423D01*
X39137981Y4596418D01*
X39101300Y4412013D01*
X36499342Y4412013D01*
X36477819Y4520217D01*
X36405867Y4693925D01*
X36301408Y4850258D01*
X36301403Y4850264D01*
X36168463Y4983204D01*
X36168457Y4983209D01*
X36062361Y5054100D01*
X36012125Y5087667D01*
X35838417Y5159619D01*
X35817061Y5163867D01*
X35654012Y5196300D01*
X35654010Y5196300D01*
X35465990Y5196300D01*
X35465987Y5196300D01*
X35281582Y5159619D01*
X35281577Y5159617D01*
X35107875Y5087667D01*
X34951542Y4983209D01*
X34951536Y4983204D01*
X34818596Y4850264D01*
X34818591Y4850258D01*
X34714133Y4693925D01*
X34642183Y4520223D01*
X34642181Y4520218D01*
X34605500Y4335813D01*
X31984833Y4335813D01*
X31984833Y4361210D01*
X31948152Y4545617D01*
X31876200Y4719325D01*
X31771741Y4875658D01*
X31771736Y4875664D01*
X31638796Y5008604D01*
X31638790Y5008609D01*
X31536238Y5077132D01*
X31482458Y5113067D01*
X31308750Y5185019D01*
X31252037Y5196300D01*
X31124345Y5221700D01*
X31124343Y5221700D01*
X30936323Y5221700D01*
X30936320Y5221700D01*
X30751915Y5185019D01*
X30751910Y5185017D01*
X30578208Y5113067D01*
X30421875Y5008609D01*
X30421869Y5008604D01*
X30288929Y4875664D01*
X30288924Y4875658D01*
X30184466Y4719325D01*
X30112516Y4545623D01*
X30112514Y4545618D01*
X30075833Y4361213D01*
X26917600Y4361213D01*
X26917600Y4370661D01*
X26890341Y4472394D01*
X26837680Y4563606D01*
X26829286Y4572000D01*
X27571599Y4572000D01*
X27571599Y5143014D01*
X27571598Y5143023D01*
X27556862Y5217106D01*
X27556862Y5217108D01*
X27500724Y5301125D01*
X27416706Y5357263D01*
X27416705Y5357264D01*
X27342622Y5372000D01*
X26771600Y5372000D01*
X26771600Y4629686D01*
X26763206Y4638080D01*
X26671994Y4690741D01*
X26570261Y4718000D01*
X26464939Y4718000D01*
X26363206Y4690741D01*
X26271994Y4638080D01*
X26263600Y4629686D01*
X26263600Y5372000D01*
X25692586Y5372000D01*
X25692576Y5371999D01*
X25618494Y5357263D01*
X25618492Y5357263D01*
X25534475Y5301125D01*
X25478337Y5217107D01*
X25478336Y5217106D01*
X25463600Y5143023D01*
X3786518Y5143023D01*
X3812640Y5213059D01*
X3813076Y5217107D01*
X3819099Y5273134D01*
X3819100Y5273151D01*
X3819100Y6969650D01*
X3819099Y6969667D01*
X3812641Y7029736D01*
X3812640Y7029738D01*
X3812640Y7029741D01*
X3761942Y7165667D01*
X3675004Y7281804D01*
X3558867Y7368742D01*
X3422941Y7419440D01*
X3422940Y7419441D01*
X3422935Y7419442D01*
X3362866Y7425900D01*
X3362854Y7425900D01*
X1666346Y7425900D01*
X1666333Y7425900D01*
X1606264Y7419442D01*
X1606259Y7419440D01*
X1470333Y7368742D01*
X1470332Y7368742D01*
X1470331Y7368741D01*
X1354196Y7281804D01*
X1267259Y7165669D01*
X1216558Y7029736D01*
X1210100Y6969667D01*
X635500Y6969667D01*
X635500Y9455865D01*
X655502Y9523986D01*
X709158Y9570479D01*
X779432Y9580583D01*
X844012Y9551089D01*
X854409Y9540977D01*
X855781Y9539480D01*
X855793Y9539465D01*
X855803Y9539455D01*
X855817Y9539440D01*
X1118864Y9276393D01*
X1403855Y9037256D01*
X1403868Y9037247D01*
X1698714Y8830794D01*
X1708622Y8823857D01*
X1708634Y8823850D01*
X1708639Y8823847D01*
X1744229Y8803299D01*
X2030818Y8637837D01*
X2368001Y8480606D01*
X2566909Y8408210D01*
X2717595Y8353364D01*
X2717597Y8353364D01*
X2717604Y8353361D01*
X3076968Y8257069D01*
X3443356Y8192465D01*
X3813980Y8160040D01*
X3813986Y8160040D01*
X4186014Y8160040D01*
X4186020Y8160040D01*
X4556644Y8192465D01*
X4923032Y8257069D01*
X5282396Y8353361D01*
X5631999Y8480606D01*
X5785561Y8552213D01*
X9154700Y8552213D01*
X9154700Y8364188D01*
X9170955Y8282471D01*
X9191381Y8179783D01*
X9263333Y8006075D01*
X9333130Y7901617D01*
X9367791Y7849743D01*
X9367796Y7849737D01*
X9500736Y7716797D01*
X9500742Y7716792D01*
X9657075Y7612333D01*
X9830783Y7540381D01*
X10015190Y7503700D01*
X10015191Y7503700D01*
X10203209Y7503700D01*
X10203210Y7503700D01*
X10387617Y7540381D01*
X10561325Y7612333D01*
X10717658Y7716792D01*
X10776998Y7776134D01*
X10798596Y7792144D01*
X10798106Y7792878D01*
X10813850Y7803399D01*
X10911499Y7868645D01*
X11003555Y7960701D01*
X11075882Y8068946D01*
X11125702Y8189223D01*
X11151100Y8316907D01*
X11151100Y8447093D01*
X11130190Y8552213D01*
X14234700Y8552213D01*
X14234700Y8364188D01*
X14250955Y8282471D01*
X14271381Y8179783D01*
X14343333Y8006075D01*
X14413130Y7901617D01*
X14447791Y7849743D01*
X14447796Y7849737D01*
X14580736Y7716797D01*
X14580742Y7716792D01*
X14737075Y7612333D01*
X14910783Y7540381D01*
X15095190Y7503700D01*
X15095191Y7503700D01*
X15283209Y7503700D01*
X15283210Y7503700D01*
X15467617Y7540381D01*
X15641325Y7612333D01*
X15797658Y7716792D01*
X15930608Y7849742D01*
X16035067Y8006075D01*
X16107019Y8179783D01*
X16143700Y8364190D01*
X16143700Y8552210D01*
X16107019Y8736617D01*
X16035067Y8910325D01*
X15930608Y9066658D01*
X15930603Y9066664D01*
X15797663Y9199604D01*
X15797657Y9199609D01*
X15745783Y9234270D01*
X15641325Y9304067D01*
X15467617Y9376019D01*
X15283212Y9412700D01*
X15283210Y9412700D01*
X15095190Y9412700D01*
X15095187Y9412700D01*
X14910782Y9376019D01*
X14910777Y9376017D01*
X14737075Y9304067D01*
X14580742Y9199609D01*
X14580736Y9199604D01*
X14447796Y9066664D01*
X14447791Y9066658D01*
X14343333Y8910325D01*
X14271383Y8736623D01*
X14271381Y8736618D01*
X14234700Y8552213D01*
X11130190Y8552213D01*
X11125702Y8574777D01*
X11075882Y8695054D01*
X11003555Y8803299D01*
X11000116Y8808446D01*
X11001046Y8809068D01*
X10988010Y8830792D01*
X10955067Y8910325D01*
X10850608Y9066658D01*
X10850603Y9066664D01*
X10717663Y9199604D01*
X10717657Y9199609D01*
X10665783Y9234270D01*
X10561325Y9304067D01*
X10387617Y9376019D01*
X10203212Y9412700D01*
X10203210Y9412700D01*
X10015190Y9412700D01*
X10015187Y9412700D01*
X9830782Y9376019D01*
X9830777Y9376017D01*
X9657075Y9304067D01*
X9500742Y9199609D01*
X9500736Y9199604D01*
X9367796Y9066664D01*
X9367791Y9066658D01*
X9263333Y8910325D01*
X9191383Y8736623D01*
X9191381Y8736618D01*
X9154700Y8552213D01*
X5785561Y8552213D01*
X5969182Y8637837D01*
X6068287Y8695055D01*
X6140284Y8736623D01*
X6291378Y8823857D01*
X6596136Y9037250D01*
X6596139Y9037253D01*
X6596144Y9037256D01*
X6881135Y9276393D01*
X6881145Y9276402D01*
X7144198Y9539455D01*
X7144207Y9539465D01*
X7383344Y9824456D01*
X7383350Y9824464D01*
X7596743Y10129222D01*
X7782763Y10451418D01*
X7939994Y10788601D01*
X8067239Y11138204D01*
X8163531Y11497568D01*
X8228135Y11863956D01*
X8260560Y12234580D01*
X8260560Y12606620D01*
X8228135Y12977244D01*
X8163531Y13343632D01*
X8067239Y13702996D01*
X8043602Y13767937D01*
X7939994Y14052598D01*
X7928149Y14077999D01*
X7782763Y14389782D01*
X7629744Y14654818D01*
X7596753Y14711961D01*
X7596737Y14711987D01*
X7383353Y15016732D01*
X7383344Y15016745D01*
X7144207Y15301736D01*
X6881135Y15564808D01*
X6596144Y15803945D01*
X6596131Y15803954D01*
X6291386Y16017338D01*
X6291360Y16017354D01*
X6215510Y16061146D01*
X6035087Y16165313D01*
X9002300Y16165313D01*
X9002300Y15991088D01*
X9029556Y15818996D01*
X9083393Y15653302D01*
X9083394Y15653299D01*
X9083395Y15653298D01*
X9153449Y15515809D01*
X9162496Y15498055D01*
X9264905Y15357101D01*
X9388100Y15233906D01*
X9480691Y15166635D01*
X9529058Y15131494D01*
X9684298Y15052395D01*
X9850000Y14998555D01*
X10022085Y14971300D01*
X10022087Y14971300D01*
X10196313Y14971300D01*
X10196315Y14971300D01*
X10368400Y14998555D01*
X10534102Y15052395D01*
X10689342Y15131494D01*
X10830297Y15233904D01*
X10953496Y15357103D01*
X11055906Y15498058D01*
X11135005Y15653298D01*
X11188845Y15819000D01*
X11216100Y15991085D01*
X11216100Y16165313D01*
X14082300Y16165313D01*
X14082300Y15991088D01*
X14109556Y15818996D01*
X14163393Y15653302D01*
X14163394Y15653299D01*
X14163395Y15653298D01*
X14233449Y15515809D01*
X14242496Y15498055D01*
X14344905Y15357101D01*
X14468100Y15233906D01*
X14560691Y15166635D01*
X14609058Y15131494D01*
X14764298Y15052395D01*
X14930000Y14998555D01*
X15102085Y14971300D01*
X15102087Y14971300D01*
X15276313Y14971300D01*
X15276315Y14971300D01*
X15448400Y14998555D01*
X15614102Y15052395D01*
X15769342Y15131494D01*
X15910297Y15233904D01*
X16033496Y15357103D01*
X16135906Y15498058D01*
X16215005Y15653298D01*
X16268845Y15819000D01*
X16296100Y15991085D01*
X16296100Y16165315D01*
X16268845Y16337400D01*
X16215005Y16503102D01*
X16135906Y16658342D01*
X16033496Y16799297D01*
X16033494Y16799300D01*
X15910299Y16922495D01*
X15769345Y17024904D01*
X15769344Y17024905D01*
X15769342Y17024906D01*
X15614102Y17104005D01*
X15614101Y17104006D01*
X15614098Y17104007D01*
X15448404Y17157844D01*
X15448402Y17157845D01*
X15448400Y17157845D01*
X15276315Y17185100D01*
X15102085Y17185100D01*
X14930000Y17157845D01*
X14929998Y17157845D01*
X14929995Y17157844D01*
X14764301Y17104007D01*
X14609054Y17024904D01*
X14468100Y16922495D01*
X14344905Y16799300D01*
X14242496Y16658346D01*
X14163393Y16503099D01*
X14109556Y16337405D01*
X14082300Y16165313D01*
X11216100Y16165313D01*
X11216100Y16165315D01*
X11188845Y16337400D01*
X11135005Y16503102D01*
X11055906Y16658342D01*
X10953496Y16799297D01*
X10953494Y16799300D01*
X10830299Y16922495D01*
X10689345Y17024904D01*
X10689344Y17024905D01*
X10689342Y17024906D01*
X10534102Y17104005D01*
X10534101Y17104006D01*
X10534098Y17104007D01*
X10368404Y17157844D01*
X10368402Y17157845D01*
X10368400Y17157845D01*
X10196315Y17185100D01*
X10022085Y17185100D01*
X9850000Y17157845D01*
X9849998Y17157845D01*
X9849995Y17157844D01*
X9684301Y17104007D01*
X9529054Y17024904D01*
X9388100Y16922495D01*
X9264905Y16799300D01*
X9162496Y16658346D01*
X9083393Y16503099D01*
X9029556Y16337405D01*
X9002300Y16165313D01*
X6035087Y16165313D01*
X5969193Y16203357D01*
X5969175Y16203367D01*
X5631997Y16360595D01*
X5282404Y16487837D01*
X5187603Y16513239D01*
X4923032Y16584131D01*
X4556644Y16648735D01*
X4186020Y16681160D01*
X3813980Y16681160D01*
X3443356Y16648735D01*
X3076968Y16584131D01*
X3076964Y16584130D01*
X2717595Y16487837D01*
X2368002Y16360595D01*
X2030824Y16203367D01*
X2030806Y16203357D01*
X1708639Y16017354D01*
X1708613Y16017338D01*
X1403868Y15803954D01*
X1403855Y15803945D01*
X1118865Y15564808D01*
X855791Y15301733D01*
X854384Y15300197D01*
X854060Y15300002D01*
X853850Y15299791D01*
X853797Y15299844D01*
X793609Y15263496D01*
X722640Y15265478D01*
X664009Y15305514D01*
X636330Y15370893D01*
X635500Y15385336D01*
X635500Y19662346D01*
X1057700Y19662346D01*
X1057700Y17929665D01*
X1060630Y17892425D01*
X1069295Y17862600D01*
X1098132Y17763340D01*
X1106936Y17733039D01*
X1191421Y17590183D01*
X1191424Y17590179D01*
X1308778Y17472825D01*
X1308782Y17472822D01*
X1451641Y17388335D01*
X1611022Y17342031D01*
X1648263Y17339100D01*
X3380936Y17339101D01*
X3418178Y17342031D01*
X3577559Y17388335D01*
X3720418Y17472822D01*
X3837778Y17590182D01*
X3922265Y17733041D01*
X3968569Y17892422D01*
X3971500Y17929663D01*
X3971499Y19662336D01*
X3968569Y19699578D01*
X3922265Y19858959D01*
X3837778Y20001818D01*
X3837775Y20001822D01*
X3720421Y20119176D01*
X3720417Y20119179D01*
X3577561Y20203664D01*
X3577560Y20203665D01*
X3577559Y20203665D01*
X3497868Y20226817D01*
X3418176Y20249970D01*
X3380945Y20252900D01*
X1648264Y20252900D01*
X1611024Y20249970D01*
X1451638Y20203664D01*
X1308782Y20119179D01*
X1308778Y20119176D01*
X1191424Y20001822D01*
X1191421Y20001818D01*
X1106936Y19858962D01*
X1060630Y19699577D01*
X1057700Y19662346D01*
X635500Y19662346D01*
X635500Y20867696D01*
X17093700Y20867696D01*
X17093700Y7021505D01*
X17119098Y6893823D01*
X17119100Y6893818D01*
X17168918Y6773546D01*
X17192281Y6738580D01*
X17241245Y6665301D01*
X18506844Y5399703D01*
X18506855Y5399691D01*
X18511244Y5395302D01*
X18511245Y5395301D01*
X18603301Y5303245D01*
X18603305Y5303243D01*
X18603309Y5303239D01*
X18704211Y5235819D01*
X18711546Y5230918D01*
X18831823Y5181098D01*
X18959506Y5155700D01*
X22366292Y5155700D01*
X22366293Y5155700D01*
X22493977Y5181098D01*
X22614254Y5230918D01*
X22722499Y5303245D01*
X25179649Y7760395D01*
X25241961Y7794421D01*
X25268744Y7797300D01*
X27148044Y7797300D01*
X27216165Y7777298D01*
X27237134Y7760400D01*
X27280742Y7716792D01*
X27437075Y7612333D01*
X27610783Y7540381D01*
X27795190Y7503700D01*
X27856855Y7503700D01*
X27924976Y7483698D01*
X27945950Y7466796D01*
X28768439Y6644308D01*
X28768444Y6644302D01*
X28772844Y6639902D01*
X28772845Y6639901D01*
X28864901Y6547845D01*
X28973146Y6475518D01*
X29093418Y6425700D01*
X29093423Y6425698D01*
X29221106Y6400300D01*
X29221107Y6400300D01*
X41431656Y6400300D01*
X41499777Y6380298D01*
X41520751Y6363395D01*
X42590443Y5293704D01*
X42590445Y5293701D01*
X42682501Y5201645D01*
X42751263Y5155700D01*
X42790746Y5129318D01*
X42911023Y5079498D01*
X43038706Y5054100D01*
X43038707Y5054100D01*
X47183735Y5054100D01*
X47251856Y5034098D01*
X47285671Y5002161D01*
X47290533Y4995468D01*
X47413464Y4872537D01*
X47481150Y4823360D01*
X47554116Y4770347D01*
X47709019Y4691420D01*
X47874362Y4637697D01*
X48046074Y4610500D01*
X48046077Y4610500D01*
X48219923Y4610500D01*
X48219926Y4610500D01*
X48391638Y4637697D01*
X48556981Y4691420D01*
X48711884Y4770347D01*
X48852533Y4872535D01*
X48975465Y4995467D01*
X49077653Y5136116D01*
X49156580Y5291019D01*
X49210303Y5456362D01*
X49237500Y5628074D01*
X49237500Y5801926D01*
X49210303Y5973638D01*
X49156580Y6138981D01*
X49077653Y6293884D01*
X49000336Y6400301D01*
X48975463Y6434536D01*
X48852535Y6557464D01*
X48711887Y6659651D01*
X48711886Y6659652D01*
X48711884Y6659653D01*
X48556981Y6738580D01*
X48556978Y6738581D01*
X48556976Y6738582D01*
X48391642Y6792302D01*
X48391640Y6792303D01*
X48391638Y6792303D01*
X48219926Y6819500D01*
X48046074Y6819500D01*
X47874362Y6792303D01*
X47874360Y6792303D01*
X47874357Y6792302D01*
X47709023Y6738582D01*
X47709017Y6738579D01*
X47554112Y6659651D01*
X47413464Y6557464D01*
X47290533Y6434533D01*
X47285671Y6427839D01*
X47229449Y6384485D01*
X47183735Y6375900D01*
X43429743Y6375900D01*
X43361622Y6395902D01*
X43340648Y6412805D01*
X42859635Y6893818D01*
X42356699Y7396755D01*
X42356697Y7396757D01*
X42178899Y7574555D01*
X42070654Y7646882D01*
X41950377Y7696702D01*
X41822695Y7722100D01*
X41822693Y7722100D01*
X29612144Y7722100D01*
X29544023Y7742102D01*
X29523048Y7759005D01*
X28880604Y8401450D01*
X28846579Y8463762D01*
X28843700Y8490545D01*
X28843700Y8552209D01*
X28843699Y8552213D01*
X28839211Y8574777D01*
X28807019Y8736617D01*
X28735067Y8910325D01*
X28630608Y9066658D01*
X28630603Y9066664D01*
X28497663Y9199604D01*
X28497657Y9199609D01*
X28445783Y9234270D01*
X28341325Y9304067D01*
X28167617Y9376019D01*
X27983212Y9412700D01*
X27983210Y9412700D01*
X27795190Y9412700D01*
X27795187Y9412700D01*
X27610782Y9376019D01*
X27610777Y9376017D01*
X27437075Y9304067D01*
X27280742Y9199609D01*
X27258941Y9177807D01*
X27237137Y9156004D01*
X27174829Y9121980D01*
X27148044Y9119100D01*
X25014127Y9119100D01*
X25014107Y9119101D01*
X25007894Y9119101D01*
X24877707Y9119101D01*
X24877704Y9119101D01*
X24750023Y9093703D01*
X24629746Y9043882D01*
X24521505Y8971558D01*
X24521498Y8971553D01*
X22064351Y6514405D01*
X22002039Y6480379D01*
X21975256Y6477500D01*
X19350544Y6477500D01*
X19282423Y6497502D01*
X19261448Y6514405D01*
X18452404Y7323450D01*
X18418379Y7385762D01*
X18415500Y7412545D01*
X18415500Y8552213D01*
X19314700Y8552213D01*
X19314700Y8364188D01*
X19330955Y8282471D01*
X19351381Y8179783D01*
X19423333Y8006075D01*
X19493130Y7901617D01*
X19527791Y7849743D01*
X19527796Y7849737D01*
X19660736Y7716797D01*
X19660742Y7716792D01*
X19817075Y7612333D01*
X19990783Y7540381D01*
X20175190Y7503700D01*
X20175191Y7503700D01*
X20363209Y7503700D01*
X20363210Y7503700D01*
X20547617Y7540381D01*
X20721325Y7612333D01*
X20877658Y7716792D01*
X21010608Y7849742D01*
X21115067Y8006075D01*
X21187019Y8179783D01*
X21223700Y8364190D01*
X21223700Y8552210D01*
X21187019Y8736617D01*
X21115067Y8910325D01*
X21010608Y9066658D01*
X21010603Y9066664D01*
X20877659Y9199608D01*
X20874563Y9202149D01*
X20873377Y9203890D01*
X20873282Y9203985D01*
X20873300Y9204004D01*
X20834596Y9260827D01*
X20828500Y9299545D01*
X20828500Y10434941D01*
X20848502Y10503062D01*
X20865405Y10524036D01*
X21911765Y11570395D01*
X21974077Y11604421D01*
X22000860Y11607300D01*
X29103941Y11607300D01*
X29172062Y11587298D01*
X29193036Y11570395D01*
X31048449Y9714982D01*
X31152582Y9610849D01*
X31152583Y9610848D01*
X31152585Y9610847D01*
X31160504Y9606275D01*
X31280118Y9537216D01*
X31422367Y9499100D01*
X31899255Y9499100D01*
X31967376Y9479098D01*
X31996651Y9453037D01*
X31999192Y9449941D01*
X32132136Y9316997D01*
X32132142Y9316992D01*
X32288475Y9212533D01*
X32462183Y9140581D01*
X32646590Y9103900D01*
X32646591Y9103900D01*
X32834609Y9103900D01*
X32834610Y9103900D01*
X33019017Y9140581D01*
X33192725Y9212533D01*
X33349058Y9316992D01*
X33482008Y9449942D01*
X33586467Y9606275D01*
X33658419Y9779983D01*
X33695100Y9964390D01*
X33695100Y10152410D01*
X33695099Y10152413D01*
X34326100Y10152413D01*
X34326100Y9964388D01*
X34362781Y9779983D01*
X34434733Y9606275D01*
X34480877Y9537216D01*
X34539191Y9449943D01*
X34539196Y9449937D01*
X34672136Y9316997D01*
X34672142Y9316992D01*
X34828475Y9212533D01*
X35002183Y9140581D01*
X35186590Y9103900D01*
X35186591Y9103900D01*
X35374609Y9103900D01*
X35374610Y9103900D01*
X35559017Y9140581D01*
X35732725Y9212533D01*
X35889058Y9316992D01*
X36022008Y9449942D01*
X36126467Y9606275D01*
X36198419Y9779983D01*
X36235100Y9964390D01*
X36235100Y10152410D01*
X36198419Y10336817D01*
X36126467Y10510525D01*
X36022008Y10666858D01*
X36022006Y10666860D01*
X36022003Y10666864D01*
X35889063Y10799804D01*
X35889057Y10799809D01*
X35837183Y10834470D01*
X35732725Y10904267D01*
X35559017Y10976219D01*
X35374612Y11012900D01*
X35374610Y11012900D01*
X35186590Y11012900D01*
X35186587Y11012900D01*
X35002182Y10976219D01*
X35002177Y10976217D01*
X34828475Y10904267D01*
X34672142Y10799809D01*
X34672136Y10799804D01*
X34539196Y10666864D01*
X34539191Y10666858D01*
X34434733Y10510525D01*
X34362783Y10336823D01*
X34362781Y10336818D01*
X34326100Y10152413D01*
X33695099Y10152413D01*
X33658419Y10336817D01*
X33586467Y10510525D01*
X33482008Y10666858D01*
X33482006Y10666860D01*
X33482003Y10666864D01*
X33349063Y10799804D01*
X33349057Y10799809D01*
X33297183Y10834470D01*
X33192725Y10904267D01*
X33019017Y10976219D01*
X32834612Y11012900D01*
X32834610Y11012900D01*
X32646590Y11012900D01*
X32646587Y11012900D01*
X32462182Y10976219D01*
X32462177Y10976217D01*
X32288475Y10904267D01*
X32132142Y10799809D01*
X32132136Y10799804D01*
X31999192Y10666860D01*
X31996651Y10663763D01*
X31995205Y10662779D01*
X31994479Y10661188D01*
X31965989Y10642879D01*
X31937973Y10623796D01*
X31935752Y10623447D01*
X31934753Y10622804D01*
X31899255Y10617700D01*
X31779859Y10617700D01*
X31711738Y10637702D01*
X31690764Y10654605D01*
X30631208Y11714162D01*
X30548300Y11797070D01*
X38214700Y11797070D01*
X38214700Y10046937D01*
X38214701Y10046927D01*
X38229465Y9972700D01*
X38285716Y9888516D01*
X38369897Y9832267D01*
X38369899Y9832266D01*
X38444133Y9817500D01*
X40194266Y9817501D01*
X40194269Y9817502D01*
X40194273Y9817502D01*
X40243526Y9827299D01*
X40268501Y9832266D01*
X40352684Y9888516D01*
X40408934Y9972699D01*
X40423700Y10046933D01*
X40423699Y11797066D01*
X40423698Y11797070D01*
X40423698Y11797074D01*
X40408934Y11871301D01*
X40396870Y11889356D01*
X40352684Y11955484D01*
X40352683Y11955485D01*
X40268502Y12011734D01*
X40194267Y12026500D01*
X38444136Y12026500D01*
X38444126Y12026499D01*
X38369899Y12011735D01*
X38285715Y11955484D01*
X38229466Y11871303D01*
X38214700Y11797070D01*
X30548300Y11797070D01*
X29731224Y12614146D01*
X29731214Y12614154D01*
X29700268Y12632020D01*
X29603682Y12687784D01*
X29461433Y12725900D01*
X21643367Y12725900D01*
X21501118Y12687784D01*
X21501116Y12687784D01*
X21501112Y12687782D01*
X21437350Y12650968D01*
X21373584Y12614154D01*
X21373578Y12614149D01*
X21116930Y12357500D01*
X19925782Y11166351D01*
X19897635Y11138204D01*
X19821650Y11062220D01*
X19821646Y11062215D01*
X19748016Y10934683D01*
X19748016Y10934682D01*
X19711877Y10799809D01*
X19709900Y10792432D01*
X19709900Y9299545D01*
X19689898Y9231424D01*
X19663837Y9202149D01*
X19660740Y9199608D01*
X19527796Y9066664D01*
X19527791Y9066658D01*
X19423333Y8910325D01*
X19351383Y8736623D01*
X19351381Y8736618D01*
X19314700Y8552213D01*
X18415500Y8552213D01*
X18415500Y14463515D01*
X31607500Y14463515D01*
X31607500Y14289285D01*
X31624566Y14181533D01*
X31634756Y14117196D01*
X31688593Y13951502D01*
X31767696Y13796255D01*
X31870105Y13655301D01*
X31993300Y13532106D01*
X31993303Y13532104D01*
X32134258Y13429694D01*
X32289498Y13350595D01*
X32455200Y13296755D01*
X32627285Y13269500D01*
X32627287Y13269500D01*
X32801513Y13269500D01*
X32801515Y13269500D01*
X32973600Y13296755D01*
X33139302Y13350595D01*
X33294542Y13429694D01*
X33435497Y13532104D01*
X33558696Y13655303D01*
X33661106Y13796258D01*
X33740205Y13951498D01*
X33794045Y14117200D01*
X33821300Y14289285D01*
X33821300Y14463515D01*
X33820207Y14470413D01*
X34299900Y14470413D01*
X34299900Y14470410D01*
X34299900Y14282390D01*
X34336581Y14097983D01*
X34408533Y13924275D01*
X34434123Y13885977D01*
X34512991Y13767943D01*
X34512996Y13767937D01*
X34645936Y13634997D01*
X34645942Y13634992D01*
X34802275Y13530533D01*
X34975983Y13458581D01*
X35160390Y13421900D01*
X35160391Y13421900D01*
X35348409Y13421900D01*
X35348410Y13421900D01*
X35532817Y13458581D01*
X35706525Y13530533D01*
X35734052Y13548926D01*
X38214700Y13548926D01*
X38214700Y13375074D01*
X38241897Y13203362D01*
X38295620Y13038019D01*
X38326587Y12977243D01*
X38374549Y12883113D01*
X38476736Y12742465D01*
X38599664Y12619537D01*
X38599667Y12619535D01*
X38740316Y12517347D01*
X38895219Y12438420D01*
X39060562Y12384697D01*
X39232274Y12357500D01*
X39232277Y12357500D01*
X39406123Y12357500D01*
X39406126Y12357500D01*
X39577838Y12384697D01*
X39743181Y12438420D01*
X39898084Y12517347D01*
X40038733Y12619535D01*
X40161665Y12742467D01*
X40263853Y12883116D01*
X40342780Y13038019D01*
X40396503Y13203362D01*
X40423700Y13375074D01*
X40423700Y13548926D01*
X40396503Y13720638D01*
X40342780Y13885981D01*
X40263853Y14040884D01*
X40161665Y14181533D01*
X40161663Y14181536D01*
X40038735Y14304464D01*
X39898087Y14406651D01*
X39898086Y14406652D01*
X39898084Y14406653D01*
X39743181Y14485580D01*
X39743178Y14485581D01*
X39743176Y14485582D01*
X39577842Y14539302D01*
X39577840Y14539303D01*
X39577838Y14539303D01*
X39406126Y14566500D01*
X39232274Y14566500D01*
X39060562Y14539303D01*
X39060560Y14539303D01*
X39060557Y14539302D01*
X38895223Y14485582D01*
X38895217Y14485579D01*
X38740312Y14406651D01*
X38599664Y14304464D01*
X38476736Y14181536D01*
X38374549Y14040888D01*
X38295621Y13885983D01*
X38295618Y13885977D01*
X38241898Y13720643D01*
X38241897Y13720640D01*
X38241897Y13720638D01*
X38214700Y13548926D01*
X35734052Y13548926D01*
X35862858Y13634992D01*
X35862863Y13634997D01*
X35870839Y13642972D01*
X35995803Y13767937D01*
X35995808Y13767942D01*
X36100267Y13924275D01*
X36172219Y14097983D01*
X36208900Y14282390D01*
X36208900Y14470410D01*
X36172219Y14654817D01*
X36100267Y14828525D01*
X35995808Y14984858D01*
X35995803Y14984864D01*
X35862863Y15117804D01*
X35862857Y15117809D01*
X35810983Y15152470D01*
X35706525Y15222267D01*
X35532817Y15294219D01*
X35504805Y15299791D01*
X35348412Y15330900D01*
X35348410Y15330900D01*
X35160390Y15330900D01*
X35160387Y15330900D01*
X34975982Y15294219D01*
X34975977Y15294217D01*
X34802275Y15222267D01*
X34645942Y15117809D01*
X34645936Y15117804D01*
X34512996Y14984864D01*
X34512991Y14984858D01*
X34408533Y14828525D01*
X34336583Y14654823D01*
X34336581Y14654818D01*
X34299900Y14470413D01*
X33820207Y14470413D01*
X33794045Y14635600D01*
X33740205Y14801302D01*
X33661106Y14956542D01*
X33558696Y15097497D01*
X33558694Y15097500D01*
X33435499Y15220695D01*
X33294545Y15323104D01*
X33294544Y15323105D01*
X33294542Y15323106D01*
X33139302Y15402205D01*
X33139301Y15402206D01*
X33139298Y15402207D01*
X32973604Y15456044D01*
X32973602Y15456045D01*
X32973600Y15456045D01*
X32801515Y15483300D01*
X32627285Y15483300D01*
X32455200Y15456045D01*
X32455198Y15456045D01*
X32455195Y15456044D01*
X32289501Y15402207D01*
X32134254Y15323104D01*
X31993300Y15220695D01*
X31870105Y15097500D01*
X31767696Y14956546D01*
X31688593Y14801299D01*
X31634756Y14635605D01*
X31634755Y14635602D01*
X31634755Y14635600D01*
X31607500Y14463515D01*
X18415500Y14463515D01*
X18415500Y16165313D01*
X19162300Y16165313D01*
X19162300Y15991088D01*
X19189556Y15818996D01*
X19243393Y15653302D01*
X19243394Y15653299D01*
X19243395Y15653298D01*
X19313449Y15515809D01*
X19322496Y15498055D01*
X19424905Y15357101D01*
X19548100Y15233906D01*
X19640691Y15166635D01*
X19689058Y15131494D01*
X19844298Y15052395D01*
X20010000Y14998555D01*
X20182085Y14971300D01*
X20182087Y14971300D01*
X20356313Y14971300D01*
X20356315Y14971300D01*
X20528400Y14998555D01*
X20694102Y15052395D01*
X20849342Y15131494D01*
X20990297Y15233904D01*
X21113496Y15357103D01*
X21215906Y15498058D01*
X21295005Y15653298D01*
X21348845Y15819000D01*
X21376100Y15991085D01*
X21376100Y16165315D01*
X21348845Y16337400D01*
X21295005Y16503102D01*
X21215906Y16658342D01*
X21113496Y16799297D01*
X21113494Y16799300D01*
X21109524Y16803270D01*
X26934700Y16803270D01*
X26934700Y15353137D01*
X26934701Y15353127D01*
X26949465Y15278900D01*
X27005716Y15194716D01*
X27089897Y15138467D01*
X27089899Y15138466D01*
X27164133Y15123700D01*
X28614266Y15123701D01*
X28614269Y15123702D01*
X28614273Y15123702D01*
X28663526Y15133499D01*
X28688501Y15138466D01*
X28772684Y15194716D01*
X28828934Y15278899D01*
X28843700Y15353133D01*
X28843699Y16803266D01*
X28843698Y16803270D01*
X28843698Y16803274D01*
X28828934Y16877501D01*
X28828933Y16877503D01*
X28772684Y16961684D01*
X28772683Y16961685D01*
X28688502Y17017934D01*
X28614267Y17032700D01*
X27164136Y17032700D01*
X27164126Y17032699D01*
X27089899Y17017935D01*
X27005715Y16961684D01*
X26949466Y16877503D01*
X26934700Y16803270D01*
X21109524Y16803270D01*
X20990299Y16922495D01*
X20849345Y17024904D01*
X20849344Y17024905D01*
X20849342Y17024906D01*
X20694102Y17104005D01*
X20694101Y17104006D01*
X20694098Y17104007D01*
X20528404Y17157844D01*
X20528402Y17157845D01*
X20528400Y17157845D01*
X20356315Y17185100D01*
X20182085Y17185100D01*
X20010000Y17157845D01*
X20009998Y17157845D01*
X20009995Y17157844D01*
X19844301Y17104007D01*
X19689054Y17024904D01*
X19548100Y16922495D01*
X19424905Y16799300D01*
X19322496Y16658346D01*
X19243393Y16503099D01*
X19189556Y16337405D01*
X19162300Y16165313D01*
X18415500Y16165313D01*
X18415500Y18366462D01*
X34255300Y18366462D01*
X34255300Y18366459D01*
X34255300Y18158741D01*
X34295824Y17955014D01*
X34375314Y17763107D01*
X34405428Y17718039D01*
X34490716Y17590397D01*
X34490721Y17590391D01*
X34637590Y17443522D01*
X34637596Y17443517D01*
X34810307Y17328114D01*
X35002214Y17248624D01*
X35205941Y17208100D01*
X35205942Y17208100D01*
X35413658Y17208100D01*
X35413659Y17208100D01*
X35617386Y17248624D01*
X35809293Y17328114D01*
X35982004Y17443517D01*
X35982009Y17443522D01*
X36033368Y17494880D01*
X36128878Y17590391D01*
X36128883Y17590396D01*
X36244286Y17763107D01*
X36323776Y17955014D01*
X36364300Y18158741D01*
X36364300Y18366416D01*
X39255800Y18366416D01*
X39255800Y18158785D01*
X39296304Y17955161D01*
X39296305Y17955158D01*
X39375759Y17763340D01*
X39406027Y17718039D01*
X39909800Y18221812D01*
X39909800Y18209939D01*
X39937059Y18108206D01*
X39989720Y18016994D01*
X40064194Y17942520D01*
X40155406Y17889859D01*
X40257139Y17862600D01*
X40269010Y17862600D01*
X39765238Y17358830D01*
X39810543Y17328558D01*
X40002357Y17249106D01*
X40002360Y17249105D01*
X40205984Y17208601D01*
X40205991Y17208600D01*
X40413609Y17208600D01*
X40413615Y17208601D01*
X40617239Y17249105D01*
X40617242Y17249106D01*
X40809057Y17328559D01*
X40854360Y17358829D01*
X40854361Y17358830D01*
X40350591Y17862600D01*
X40362461Y17862600D01*
X40464194Y17889859D01*
X40555406Y17942520D01*
X40629880Y18016994D01*
X40682541Y18108206D01*
X40709800Y18209939D01*
X40709800Y18221809D01*
X41213570Y17718039D01*
X41213571Y17718040D01*
X41243841Y17763343D01*
X41323294Y17955158D01*
X41323295Y17955161D01*
X41363799Y18158785D01*
X41363800Y18158792D01*
X41363800Y18366409D01*
X41363799Y18366416D01*
X41323295Y18570040D01*
X41323294Y18570043D01*
X41243842Y18761857D01*
X41213570Y18807162D01*
X40709800Y18303392D01*
X40709800Y18315261D01*
X40682541Y18416994D01*
X40629880Y18508206D01*
X40555406Y18582680D01*
X40464194Y18635341D01*
X40362461Y18662600D01*
X40350590Y18662600D01*
X40854361Y19166373D01*
X40809060Y19196641D01*
X40617242Y19276095D01*
X40617239Y19276096D01*
X40413615Y19316600D01*
X40205984Y19316600D01*
X40002360Y19276096D01*
X40002357Y19276095D01*
X39810541Y19196642D01*
X39765238Y19166372D01*
X39765237Y19166372D01*
X40269009Y18662600D01*
X40257139Y18662600D01*
X40155406Y18635341D01*
X40064194Y18582680D01*
X39989720Y18508206D01*
X39937059Y18416994D01*
X39909800Y18315261D01*
X39909800Y18303391D01*
X39406028Y18807163D01*
X39406028Y18807162D01*
X39375758Y18761859D01*
X39296305Y18570043D01*
X39296304Y18570040D01*
X39255800Y18366416D01*
X36364300Y18366416D01*
X36364300Y18366459D01*
X36323776Y18570186D01*
X36244286Y18762093D01*
X36128883Y18934804D01*
X36128878Y18934810D01*
X35982009Y19081679D01*
X35982003Y19081684D01*
X35855259Y19166372D01*
X35809293Y19197086D01*
X35617386Y19276576D01*
X35413661Y19317100D01*
X35413659Y19317100D01*
X35205941Y19317100D01*
X35205938Y19317100D01*
X35002213Y19276576D01*
X35002208Y19276574D01*
X34810307Y19197086D01*
X34637596Y19081684D01*
X34637590Y19081679D01*
X34490721Y18934810D01*
X34490716Y18934804D01*
X34375314Y18762093D01*
X34295826Y18570192D01*
X34295824Y18570187D01*
X34255300Y18366462D01*
X18415500Y18366462D01*
X18415500Y20476656D01*
X18435502Y20544777D01*
X18452405Y20565751D01*
X19083649Y21196995D01*
X19145961Y21231021D01*
X19172744Y21233900D01*
X24194736Y21233900D01*
X24262857Y21213898D01*
X24309350Y21160242D01*
X24318439Y21126515D01*
X24318893Y21126605D01*
X24334865Y21046300D01*
X24391116Y20962116D01*
X24475297Y20905867D01*
X24475299Y20905866D01*
X24549533Y20891100D01*
X26199666Y20891101D01*
X26199669Y20891102D01*
X26199673Y20891102D01*
X26248926Y20900899D01*
X26273901Y20905866D01*
X26358084Y20962116D01*
X26414334Y21046299D01*
X26429100Y21120533D01*
X26429099Y22049462D01*
X26860100Y22049462D01*
X26860100Y21841739D01*
X26888442Y21699255D01*
X26900624Y21638014D01*
X26980114Y21446107D01*
X27016419Y21391774D01*
X27095516Y21273397D01*
X27095521Y21273391D01*
X27242390Y21126522D01*
X27242396Y21126517D01*
X27415107Y21011114D01*
X27607014Y20931624D01*
X27810741Y20891100D01*
X27810742Y20891100D01*
X28018458Y20891100D01*
X28018459Y20891100D01*
X28222186Y20931624D01*
X28414093Y21011114D01*
X28586804Y21126517D01*
X28733683Y21273396D01*
X28849086Y21446107D01*
X28928576Y21638014D01*
X28969100Y21841741D01*
X28969100Y22049459D01*
X28928576Y22253186D01*
X28849086Y22445093D01*
X28733683Y22617804D01*
X28733678Y22617810D01*
X28732418Y22619070D01*
X32646900Y22619070D01*
X32646900Y21068937D01*
X32646901Y21068927D01*
X32661665Y20994700D01*
X32717916Y20910516D01*
X32802097Y20854267D01*
X32802099Y20854266D01*
X32876333Y20839500D01*
X33976466Y20839501D01*
X33976469Y20839502D01*
X33976473Y20839502D01*
X34025726Y20849299D01*
X34050701Y20854266D01*
X34134884Y20910516D01*
X34134884Y20910518D01*
X34134886Y20910518D01*
X34143659Y20919290D01*
X34145335Y20917614D01*
X34186873Y20952334D01*
X34257315Y20961190D01*
X34307175Y20941575D01*
X34327168Y20928216D01*
X34327172Y20928214D01*
X34469021Y20869457D01*
X34469025Y20869457D01*
X34469028Y20869455D01*
X34583254Y20846735D01*
X34619620Y20839501D01*
X34619623Y20839501D01*
X34619626Y20839500D01*
X34619627Y20839500D01*
X34773173Y20839500D01*
X34773174Y20839500D01*
X34923772Y20869455D01*
X34923775Y20869457D01*
X34923778Y20869457D01*
X35065627Y20928214D01*
X35065626Y20928214D01*
X35065632Y20928216D01*
X35193302Y21013523D01*
X35242659Y21062881D01*
X35304969Y21096904D01*
X35375784Y21091840D01*
X35420848Y21062879D01*
X35469811Y21013916D01*
X35469817Y21013911D01*
X35597404Y20928660D01*
X35712399Y20881028D01*
X35712400Y20881029D01*
X35712400Y21567670D01*
X35736145Y21543925D01*
X35821655Y21494556D01*
X35917030Y21469000D01*
X36015770Y21469000D01*
X36111145Y21494556D01*
X36196655Y21543925D01*
X36220400Y21567670D01*
X36220400Y20881028D01*
X36335395Y20928660D01*
X36462982Y21013911D01*
X36462988Y21013916D01*
X36571484Y21122412D01*
X36571489Y21122418D01*
X36656740Y21250005D01*
X36715461Y21391771D01*
X36715462Y21391774D01*
X36745399Y21542272D01*
X36745400Y21542275D01*
X36745400Y21590000D01*
X36242730Y21590000D01*
X36266475Y21613745D01*
X36315844Y21699255D01*
X36341400Y21794630D01*
X36341400Y21893370D01*
X36315844Y21988745D01*
X36286475Y22039613D01*
X39228300Y22039613D01*
X39228300Y21851588D01*
X39235335Y21816222D01*
X39264981Y21667183D01*
X39336933Y21493475D01*
X39404888Y21391774D01*
X39441391Y21337143D01*
X39441396Y21337137D01*
X39574336Y21204197D01*
X39574342Y21204192D01*
X39730675Y21099733D01*
X39904383Y21027781D01*
X40088790Y20991100D01*
X40088791Y20991100D01*
X40276809Y20991100D01*
X40276810Y20991100D01*
X40461217Y21027781D01*
X40634925Y21099733D01*
X40791258Y21204192D01*
X40924208Y21337142D01*
X41028667Y21493475D01*
X41100619Y21667183D01*
X41137300Y21851590D01*
X41137300Y22039610D01*
X41137299Y22039613D01*
X41768300Y22039613D01*
X41768300Y21851588D01*
X41775335Y21816222D01*
X41804981Y21667183D01*
X41876933Y21493475D01*
X41944888Y21391774D01*
X41981391Y21337143D01*
X41981396Y21337137D01*
X42114336Y21204197D01*
X42114342Y21204192D01*
X42270675Y21099733D01*
X42444383Y21027781D01*
X42628790Y20991100D01*
X42628791Y20991100D01*
X42816809Y20991100D01*
X42816810Y20991100D01*
X43001217Y21027781D01*
X43174925Y21099733D01*
X43331258Y21204192D01*
X43464208Y21337142D01*
X43568667Y21493475D01*
X43640619Y21667183D01*
X43677300Y21851590D01*
X43677300Y22039610D01*
X43640619Y22224017D01*
X43568667Y22397725D01*
X43464208Y22554058D01*
X43464203Y22554064D01*
X43331263Y22687004D01*
X43331257Y22687009D01*
X43279383Y22721670D01*
X43174925Y22791467D01*
X43001217Y22863419D01*
X42816812Y22900100D01*
X42816810Y22900100D01*
X42628790Y22900100D01*
X42628787Y22900100D01*
X42444382Y22863419D01*
X42444377Y22863417D01*
X42270675Y22791467D01*
X42114342Y22687009D01*
X42114336Y22687004D01*
X41981396Y22554064D01*
X41981391Y22554058D01*
X41876933Y22397725D01*
X41804983Y22224023D01*
X41804981Y22224018D01*
X41768300Y22039613D01*
X41137299Y22039613D01*
X41100619Y22224017D01*
X41028667Y22397725D01*
X40924208Y22554058D01*
X40924203Y22554064D01*
X40791263Y22687004D01*
X40791257Y22687009D01*
X40739383Y22721670D01*
X40634925Y22791467D01*
X40461217Y22863419D01*
X40276812Y22900100D01*
X40276810Y22900100D01*
X40088790Y22900100D01*
X40088787Y22900100D01*
X39904382Y22863419D01*
X39904377Y22863417D01*
X39730675Y22791467D01*
X39574342Y22687009D01*
X39574336Y22687004D01*
X39441396Y22554064D01*
X39441391Y22554058D01*
X39336933Y22397725D01*
X39264983Y22224023D01*
X39264981Y22224018D01*
X39228300Y22039613D01*
X36286475Y22039613D01*
X36266475Y22074255D01*
X36242730Y22098000D01*
X36745400Y22098000D01*
X36745400Y22145726D01*
X36745399Y22145729D01*
X36715462Y22296227D01*
X36715461Y22296230D01*
X36656740Y22437996D01*
X36571489Y22565583D01*
X36571484Y22565589D01*
X36462988Y22674085D01*
X36462982Y22674090D01*
X36335395Y22759341D01*
X36220400Y22806973D01*
X36220400Y22120330D01*
X36196655Y22144075D01*
X36111145Y22193444D01*
X36015770Y22219000D01*
X35917030Y22219000D01*
X35821655Y22193444D01*
X35736145Y22144075D01*
X35712400Y22120330D01*
X35712400Y22806973D01*
X35597404Y22759341D01*
X35469817Y22674090D01*
X35420848Y22625121D01*
X35358535Y22591096D01*
X35287719Y22596162D01*
X35242658Y22625122D01*
X35193307Y22674473D01*
X35193301Y22674478D01*
X35065631Y22759785D01*
X35065627Y22759787D01*
X34923778Y22818544D01*
X34773179Y22848500D01*
X34773174Y22848500D01*
X34619626Y22848500D01*
X34619620Y22848500D01*
X34469021Y22818544D01*
X34327172Y22759787D01*
X34327166Y22759784D01*
X34307172Y22746424D01*
X34239418Y22725211D01*
X34170952Y22743996D01*
X34144485Y22769537D01*
X34143659Y22768710D01*
X34134885Y22777484D01*
X34050702Y22833734D01*
X33976467Y22848500D01*
X32876336Y22848500D01*
X32876326Y22848499D01*
X32802099Y22833735D01*
X32717915Y22777484D01*
X32661666Y22693303D01*
X32646900Y22619070D01*
X28732418Y22619070D01*
X28586809Y22764679D01*
X28586803Y22764684D01*
X28506196Y22818544D01*
X28414093Y22880086D01*
X28222186Y22959576D01*
X28018461Y23000100D01*
X28018459Y23000100D01*
X27810741Y23000100D01*
X27810738Y23000100D01*
X27607013Y22959576D01*
X27607008Y22959574D01*
X27415107Y22880086D01*
X27242396Y22764684D01*
X27242390Y22764679D01*
X27095521Y22617810D01*
X27095516Y22617804D01*
X26980114Y22445093D01*
X26900626Y22253192D01*
X26900624Y22253187D01*
X26860100Y22049462D01*
X26429099Y22049462D01*
X26429099Y22770666D01*
X26429098Y22770670D01*
X26429098Y22770674D01*
X26414334Y22844901D01*
X26401962Y22863417D01*
X26358084Y22929084D01*
X26358083Y22929085D01*
X26273902Y22985334D01*
X26199667Y23000100D01*
X24549536Y23000100D01*
X24549526Y23000099D01*
X24475299Y22985335D01*
X24391115Y22929084D01*
X24334866Y22844903D01*
X24320100Y22770670D01*
X24320100Y22681700D01*
X24300098Y22613579D01*
X24246442Y22567086D01*
X24194100Y22555700D01*
X18781704Y22555700D01*
X18654022Y22530302D01*
X18654017Y22530300D01*
X18533745Y22480482D01*
X18425505Y22408158D01*
X18425498Y22408153D01*
X17241247Y21223902D01*
X17241242Y21223895D01*
X17168918Y21115655D01*
X17119100Y20995383D01*
X17119098Y20995378D01*
X17093700Y20867696D01*
X635500Y20867696D01*
X635500Y24130500D01*
X655502Y24198621D01*
X709158Y24245114D01*
X761500Y24256500D01*
X954849Y24256500D01*
X1022970Y24236498D01*
G37*
%TD.AperFunction*%
%TD*%
M02*
