%TF.GenerationSoftware,KiCad,Pcbnew,10.0.3*%
%TF.CreationDate,2026-07-10T08:55:56+10:00*%
%TF.ProjectId,load mini 7 tht,6c6f6164-206d-4696-9e69-203720746874,rev?*%
%TF.SameCoordinates,Original*%
%TF.FileFunction,Legend,Top*%
%TF.FilePolarity,Positive*%
%FSLAX46Y46*%
G04 Gerber Fmt 4.6, Leading zero omitted, Abs format (unit mm)*
G04 Created by KiCad (PCBNEW 10.0.3) date 2026-07-10 08:55:56*
%MOMM*%
%LPD*%
G01*
G04 APERTURE LIST*
G04 Aperture macros list*
%AMRoundRect*
0 Rectangle with rounded corners*
0 $1 Rounding radius*
0 $2 $3 $4 $5 $6 $7 $8 $9 X,Y pos of 4 corners*
0 Add a 4 corners polygon primitive as box body*
4,1,4,$2,$3,$4,$5,$6,$7,$8,$9,$2,$3,0*
0 Add four circle primitives for the rounded corners*
1,1,$1+$1,$2,$3*
1,1,$1+$1,$4,$5*
1,1,$1+$1,$6,$7*
1,1,$1+$1,$8,$9*
0 Add four rect primitives between the rounded corners*
20,1,$1+$1,$2,$3,$4,$5,0*
20,1,$1+$1,$4,$5,$6,$7,0*
20,1,$1+$1,$6,$7,$8,$9,0*
20,1,$1+$1,$8,$9,$2,$3,0*%
G04 Aperture macros list end*
%ADD10C,0.177800*%
%ADD11C,0.150000*%
%ADD12C,0.152400*%
%ADD13C,0.228600*%
%ADD14C,0.120000*%
%ADD15R,1.700000X1.700000*%
%ADD16R,1.050000X1.500000*%
%ADD17O,1.050000X1.500000*%
%ADD18C,1.400000*%
%ADD19O,1.400000X1.400000*%
%ADD20RoundRect,0.250001X-0.799999X-0.799999X0.799999X-0.799999X0.799999X0.799999X-0.799999X0.799999X0*%
%ADD21C,3.500000*%
%ADD22O,1.700000X1.700000*%
%ADD23C,1.600000*%
%ADD24R,1.400000X1.400000*%
%ADD25R,1.600000X1.600000*%
%ADD26O,1.600000X1.600000*%
G04 APERTURE END LIST*
D10*
X41686238Y10813571D02*
X41066962Y10813571D01*
X41686238Y13430695D02*
X41066962Y13430695D01*
X41376600Y13740333D02*
X41376600Y13121057D01*
X12039601Y22487797D02*
X12251267Y21598797D01*
X12251267Y21598797D02*
X12420601Y22233797D01*
X12420601Y22233797D02*
X12589934Y21598797D01*
X12589934Y21598797D02*
X12801601Y22487797D01*
X13140267Y21598797D02*
X13140267Y22191464D01*
X13140267Y22487797D02*
X13097934Y22445464D01*
X13097934Y22445464D02*
X13140267Y22403130D01*
X13140267Y22403130D02*
X13182601Y22445464D01*
X13182601Y22445464D02*
X13140267Y22487797D01*
X13140267Y22487797D02*
X13140267Y22403130D01*
X13859934Y22064464D02*
X13563600Y22064464D01*
X13563600Y21598797D02*
X13563600Y22487797D01*
X13563600Y22487797D02*
X13986934Y22487797D01*
X14325600Y21598797D02*
X14325600Y22191464D01*
X14325600Y22487797D02*
X14283267Y22445464D01*
X14283267Y22445464D02*
X14325600Y22403130D01*
X14325600Y22403130D02*
X14367934Y22445464D01*
X14367934Y22445464D02*
X14325600Y22487797D01*
X14325600Y22487797D02*
X14325600Y22403130D01*
X15426266Y21598797D02*
X15426266Y22487797D01*
X15426266Y22487797D02*
X15637933Y22487797D01*
X15637933Y22487797D02*
X15764933Y22445464D01*
X15764933Y22445464D02*
X15849600Y22360797D01*
X15849600Y22360797D02*
X15891933Y22276130D01*
X15891933Y22276130D02*
X15934266Y22106797D01*
X15934266Y22106797D02*
X15934266Y21979797D01*
X15934266Y21979797D02*
X15891933Y21810464D01*
X15891933Y21810464D02*
X15849600Y21725797D01*
X15849600Y21725797D02*
X15764933Y21641130D01*
X15764933Y21641130D02*
X15637933Y21598797D01*
X15637933Y21598797D02*
X15426266Y21598797D01*
X16823266Y21683464D02*
X16780933Y21641130D01*
X16780933Y21641130D02*
X16653933Y21598797D01*
X16653933Y21598797D02*
X16569266Y21598797D01*
X16569266Y21598797D02*
X16442266Y21641130D01*
X16442266Y21641130D02*
X16357600Y21725797D01*
X16357600Y21725797D02*
X16315266Y21810464D01*
X16315266Y21810464D02*
X16272933Y21979797D01*
X16272933Y21979797D02*
X16272933Y22106797D01*
X16272933Y22106797D02*
X16315266Y22276130D01*
X16315266Y22276130D02*
X16357600Y22360797D01*
X16357600Y22360797D02*
X16442266Y22445464D01*
X16442266Y22445464D02*
X16569266Y22487797D01*
X16569266Y22487797D02*
X16653933Y22487797D01*
X16653933Y22487797D02*
X16780933Y22445464D01*
X16780933Y22445464D02*
X16823266Y22403130D01*
X18304933Y21598797D02*
X17881599Y21598797D01*
X17881599Y21598797D02*
X17881599Y22487797D01*
X18728266Y21598797D02*
X18643600Y21641130D01*
X18643600Y21641130D02*
X18601266Y21683464D01*
X18601266Y21683464D02*
X18558933Y21768130D01*
X18558933Y21768130D02*
X18558933Y22022130D01*
X18558933Y22022130D02*
X18601266Y22106797D01*
X18601266Y22106797D02*
X18643600Y22149130D01*
X18643600Y22149130D02*
X18728266Y22191464D01*
X18728266Y22191464D02*
X18855266Y22191464D01*
X18855266Y22191464D02*
X18939933Y22149130D01*
X18939933Y22149130D02*
X18982266Y22106797D01*
X18982266Y22106797D02*
X19024600Y22022130D01*
X19024600Y22022130D02*
X19024600Y21768130D01*
X19024600Y21768130D02*
X18982266Y21683464D01*
X18982266Y21683464D02*
X18939933Y21641130D01*
X18939933Y21641130D02*
X18855266Y21598797D01*
X18855266Y21598797D02*
X18728266Y21598797D01*
X19786599Y21598797D02*
X19786599Y22064464D01*
X19786599Y22064464D02*
X19744266Y22149130D01*
X19744266Y22149130D02*
X19659599Y22191464D01*
X19659599Y22191464D02*
X19490266Y22191464D01*
X19490266Y22191464D02*
X19405599Y22149130D01*
X19786599Y21641130D02*
X19701933Y21598797D01*
X19701933Y21598797D02*
X19490266Y21598797D01*
X19490266Y21598797D02*
X19405599Y21641130D01*
X19405599Y21641130D02*
X19363266Y21725797D01*
X19363266Y21725797D02*
X19363266Y21810464D01*
X19363266Y21810464D02*
X19405599Y21895130D01*
X19405599Y21895130D02*
X19490266Y21937464D01*
X19490266Y21937464D02*
X19701933Y21937464D01*
X19701933Y21937464D02*
X19786599Y21979797D01*
X20590932Y21598797D02*
X20590932Y22487797D01*
X20590932Y21641130D02*
X20506266Y21598797D01*
X20506266Y21598797D02*
X20336932Y21598797D01*
X20336932Y21598797D02*
X20252266Y21641130D01*
X20252266Y21641130D02*
X20209932Y21683464D01*
X20209932Y21683464D02*
X20167599Y21768130D01*
X20167599Y21768130D02*
X20167599Y22022130D01*
X20167599Y22022130D02*
X20209932Y22106797D01*
X20209932Y22106797D02*
X20252266Y22149130D01*
X20252266Y22149130D02*
X20336932Y22191464D01*
X20336932Y22191464D02*
X20506266Y22191464D01*
X20506266Y22191464D02*
X20590932Y22149130D01*
X11510434Y20167557D02*
X11510434Y21056557D01*
X12018434Y20167557D02*
X11637434Y20675557D01*
X12018434Y21056557D02*
X11510434Y20548557D01*
X12738101Y20209890D02*
X12653434Y20167557D01*
X12653434Y20167557D02*
X12484101Y20167557D01*
X12484101Y20167557D02*
X12399434Y20209890D01*
X12399434Y20209890D02*
X12357101Y20294557D01*
X12357101Y20294557D02*
X12357101Y20633224D01*
X12357101Y20633224D02*
X12399434Y20717890D01*
X12399434Y20717890D02*
X12484101Y20760224D01*
X12484101Y20760224D02*
X12653434Y20760224D01*
X12653434Y20760224D02*
X12738101Y20717890D01*
X12738101Y20717890D02*
X12780434Y20633224D01*
X12780434Y20633224D02*
X12780434Y20548557D01*
X12780434Y20548557D02*
X12357101Y20463890D01*
X13288434Y20167557D02*
X13203768Y20209890D01*
X13203768Y20209890D02*
X13161434Y20294557D01*
X13161434Y20294557D02*
X13161434Y21056557D01*
X13542435Y20760224D02*
X13754101Y20167557D01*
X13754101Y20167557D02*
X13965768Y20760224D01*
X14304434Y20167557D02*
X14304434Y20760224D01*
X14304434Y21056557D02*
X14262101Y21014224D01*
X14262101Y21014224D02*
X14304434Y20971890D01*
X14304434Y20971890D02*
X14346768Y21014224D01*
X14346768Y21014224D02*
X14304434Y21056557D01*
X14304434Y21056557D02*
X14304434Y20971890D01*
X14727767Y20760224D02*
X14727767Y20167557D01*
X14727767Y20675557D02*
X14770101Y20717890D01*
X14770101Y20717890D02*
X14854767Y20760224D01*
X14854767Y20760224D02*
X14981767Y20760224D01*
X14981767Y20760224D02*
X15066434Y20717890D01*
X15066434Y20717890D02*
X15108767Y20633224D01*
X15108767Y20633224D02*
X15108767Y20167557D01*
X16209433Y20167557D02*
X16209433Y21056557D01*
X16209433Y21056557D02*
X16505767Y20421557D01*
X16505767Y20421557D02*
X16802100Y21056557D01*
X16802100Y21056557D02*
X16802100Y20167557D01*
X17564100Y20209890D02*
X17479433Y20167557D01*
X17479433Y20167557D02*
X17310100Y20167557D01*
X17310100Y20167557D02*
X17225433Y20209890D01*
X17225433Y20209890D02*
X17183100Y20294557D01*
X17183100Y20294557D02*
X17183100Y20633224D01*
X17183100Y20633224D02*
X17225433Y20717890D01*
X17225433Y20717890D02*
X17310100Y20760224D01*
X17310100Y20760224D02*
X17479433Y20760224D01*
X17479433Y20760224D02*
X17564100Y20717890D01*
X17564100Y20717890D02*
X17606433Y20633224D01*
X17606433Y20633224D02*
X17606433Y20548557D01*
X17606433Y20548557D02*
X17183100Y20463890D01*
X18368433Y20167557D02*
X18368433Y20633224D01*
X18368433Y20633224D02*
X18326100Y20717890D01*
X18326100Y20717890D02*
X18241433Y20760224D01*
X18241433Y20760224D02*
X18072100Y20760224D01*
X18072100Y20760224D02*
X17987433Y20717890D01*
X18368433Y20209890D02*
X18283767Y20167557D01*
X18283767Y20167557D02*
X18072100Y20167557D01*
X18072100Y20167557D02*
X17987433Y20209890D01*
X17987433Y20209890D02*
X17945100Y20294557D01*
X17945100Y20294557D02*
X17945100Y20379224D01*
X17945100Y20379224D02*
X17987433Y20463890D01*
X17987433Y20463890D02*
X18072100Y20506224D01*
X18072100Y20506224D02*
X18283767Y20506224D01*
X18283767Y20506224D02*
X18368433Y20548557D01*
X18749433Y20209890D02*
X18834100Y20167557D01*
X18834100Y20167557D02*
X19003433Y20167557D01*
X19003433Y20167557D02*
X19088100Y20209890D01*
X19088100Y20209890D02*
X19130433Y20294557D01*
X19130433Y20294557D02*
X19130433Y20336890D01*
X19130433Y20336890D02*
X19088100Y20421557D01*
X19088100Y20421557D02*
X19003433Y20463890D01*
X19003433Y20463890D02*
X18876433Y20463890D01*
X18876433Y20463890D02*
X18791766Y20506224D01*
X18791766Y20506224D02*
X18749433Y20590890D01*
X18749433Y20590890D02*
X18749433Y20633224D01*
X18749433Y20633224D02*
X18791766Y20717890D01*
X18791766Y20717890D02*
X18876433Y20760224D01*
X18876433Y20760224D02*
X19003433Y20760224D01*
X19003433Y20760224D02*
X19088100Y20717890D01*
X19892433Y20760224D02*
X19892433Y20167557D01*
X19511433Y20760224D02*
X19511433Y20294557D01*
X19511433Y20294557D02*
X19553767Y20209890D01*
X19553767Y20209890D02*
X19638433Y20167557D01*
X19638433Y20167557D02*
X19765433Y20167557D01*
X19765433Y20167557D02*
X19850100Y20209890D01*
X19850100Y20209890D02*
X19892433Y20252224D01*
X20315766Y20167557D02*
X20315766Y20760224D01*
X20315766Y20590890D02*
X20358100Y20675557D01*
X20358100Y20675557D02*
X20400433Y20717890D01*
X20400433Y20717890D02*
X20485100Y20760224D01*
X20485100Y20760224D02*
X20569766Y20760224D01*
X21204766Y20209890D02*
X21120099Y20167557D01*
X21120099Y20167557D02*
X20950766Y20167557D01*
X20950766Y20167557D02*
X20866099Y20209890D01*
X20866099Y20209890D02*
X20823766Y20294557D01*
X20823766Y20294557D02*
X20823766Y20633224D01*
X20823766Y20633224D02*
X20866099Y20717890D01*
X20866099Y20717890D02*
X20950766Y20760224D01*
X20950766Y20760224D02*
X21120099Y20760224D01*
X21120099Y20760224D02*
X21204766Y20717890D01*
X21204766Y20717890D02*
X21247099Y20633224D01*
X21247099Y20633224D02*
X21247099Y20548557D01*
X21247099Y20548557D02*
X20823766Y20463890D01*
D11*
X24009579Y3787781D02*
X24009579Y4787781D01*
X24581007Y3787781D02*
X24152436Y4359210D01*
X24581007Y4787781D02*
X24009579Y4216353D01*
X25254179Y19180181D02*
X25254179Y20180181D01*
X25825607Y19180181D02*
X25397036Y19751610D01*
X25825607Y20180181D02*
X25254179Y19608753D01*
D10*
X44412505Y3580245D02*
X44315743Y3628626D01*
X44315743Y3628626D02*
X44170600Y3628626D01*
X44170600Y3628626D02*
X44025457Y3580245D01*
X44025457Y3580245D02*
X43928695Y3483483D01*
X43928695Y3483483D02*
X43880314Y3386721D01*
X43880314Y3386721D02*
X43831933Y3193197D01*
X43831933Y3193197D02*
X43831933Y3048054D01*
X43831933Y3048054D02*
X43880314Y2854530D01*
X43880314Y2854530D02*
X43928695Y2757768D01*
X43928695Y2757768D02*
X44025457Y2661006D01*
X44025457Y2661006D02*
X44170600Y2612626D01*
X44170600Y2612626D02*
X44267362Y2612626D01*
X44267362Y2612626D02*
X44412505Y2661006D01*
X44412505Y2661006D02*
X44460886Y2709387D01*
X44460886Y2709387D02*
X44460886Y3048054D01*
X44460886Y3048054D02*
X44267362Y3048054D01*
X44896314Y2612626D02*
X44896314Y3628626D01*
X44896314Y3628626D02*
X45476886Y2612626D01*
X45476886Y2612626D02*
X45476886Y3628626D01*
X45960695Y2612626D02*
X45960695Y3628626D01*
X45960695Y3628626D02*
X46202600Y3628626D01*
X46202600Y3628626D02*
X46347743Y3580245D01*
X46347743Y3580245D02*
X46444505Y3483483D01*
X46444505Y3483483D02*
X46492886Y3386721D01*
X46492886Y3386721D02*
X46541267Y3193197D01*
X46541267Y3193197D02*
X46541267Y3048054D01*
X46541267Y3048054D02*
X46492886Y2854530D01*
X46492886Y2854530D02*
X46444505Y2757768D01*
X46444505Y2757768D02*
X46347743Y2661006D01*
X46347743Y2661006D02*
X46202600Y2612626D01*
X46202600Y2612626D02*
X45960695Y2612626D01*
X46248562Y19173426D02*
X45909895Y19657235D01*
X45667990Y19173426D02*
X45667990Y20189426D01*
X45667990Y20189426D02*
X46055038Y20189426D01*
X46055038Y20189426D02*
X46151800Y20141045D01*
X46151800Y20141045D02*
X46200181Y20092664D01*
X46200181Y20092664D02*
X46248562Y19995902D01*
X46248562Y19995902D02*
X46248562Y19850759D01*
X46248562Y19850759D02*
X46200181Y19753997D01*
X46200181Y19753997D02*
X46151800Y19705616D01*
X46151800Y19705616D02*
X46055038Y19657235D01*
X46055038Y19657235D02*
X45667990Y19657235D01*
X46683990Y19705616D02*
X47022657Y19705616D01*
X47167800Y19173426D02*
X46683990Y19173426D01*
X46683990Y19173426D02*
X46683990Y20189426D01*
X46683990Y20189426D02*
X47167800Y20189426D01*
X48087038Y19173426D02*
X47603228Y19173426D01*
X47603228Y19173426D02*
X47603228Y20189426D01*
X48377323Y19463711D02*
X48861133Y19463711D01*
X48280561Y19173426D02*
X48619228Y20189426D01*
X48619228Y20189426D02*
X48957895Y19173426D01*
X49490085Y19657235D02*
X49490085Y19173426D01*
X49151418Y20189426D02*
X49490085Y19657235D01*
X49490085Y19657235D02*
X49828752Y20189426D01*
X37952438Y22962864D02*
X37855676Y23011245D01*
X37855676Y23011245D02*
X37758914Y23108006D01*
X37758914Y23108006D02*
X37613771Y23253149D01*
X37613771Y23253149D02*
X37517009Y23301530D01*
X37517009Y23301530D02*
X37420247Y23301530D01*
X37468628Y23059626D02*
X37371866Y23108006D01*
X37371866Y23108006D02*
X37275104Y23204768D01*
X37275104Y23204768D02*
X37226723Y23398292D01*
X37226723Y23398292D02*
X37226723Y23736959D01*
X37226723Y23736959D02*
X37275104Y23930483D01*
X37275104Y23930483D02*
X37371866Y24027245D01*
X37371866Y24027245D02*
X37468628Y24075626D01*
X37468628Y24075626D02*
X37662152Y24075626D01*
X37662152Y24075626D02*
X37758914Y24027245D01*
X37758914Y24027245D02*
X37855676Y23930483D01*
X37855676Y23930483D02*
X37904057Y23736959D01*
X37904057Y23736959D02*
X37904057Y23398292D01*
X37904057Y23398292D02*
X37855676Y23204768D01*
X37855676Y23204768D02*
X37758914Y23108006D01*
X37758914Y23108006D02*
X37662152Y23059626D01*
X37662152Y23059626D02*
X37468628Y23059626D01*
X38871676Y23059626D02*
X38291104Y23059626D01*
X38581390Y23059626D02*
X38581390Y24075626D01*
X38581390Y24075626D02*
X38484628Y23930483D01*
X38484628Y23930483D02*
X38387866Y23833721D01*
X38387866Y23833721D02*
X38291104Y23785340D01*
X41969267Y23186626D02*
X41630600Y23670435D01*
X41388695Y23186626D02*
X41388695Y24202626D01*
X41388695Y24202626D02*
X41775743Y24202626D01*
X41775743Y24202626D02*
X41872505Y24154245D01*
X41872505Y24154245D02*
X41920886Y24105864D01*
X41920886Y24105864D02*
X41969267Y24009102D01*
X41969267Y24009102D02*
X41969267Y23863959D01*
X41969267Y23863959D02*
X41920886Y23767197D01*
X41920886Y23767197D02*
X41872505Y23718816D01*
X41872505Y23718816D02*
X41775743Y23670435D01*
X41775743Y23670435D02*
X41388695Y23670435D01*
X42840124Y24202626D02*
X42646600Y24202626D01*
X42646600Y24202626D02*
X42549838Y24154245D01*
X42549838Y24154245D02*
X42501457Y24105864D01*
X42501457Y24105864D02*
X42404695Y23960721D01*
X42404695Y23960721D02*
X42356314Y23767197D01*
X42356314Y23767197D02*
X42356314Y23380149D01*
X42356314Y23380149D02*
X42404695Y23283387D01*
X42404695Y23283387D02*
X42453076Y23235006D01*
X42453076Y23235006D02*
X42549838Y23186626D01*
X42549838Y23186626D02*
X42743362Y23186626D01*
X42743362Y23186626D02*
X42840124Y23235006D01*
X42840124Y23235006D02*
X42888505Y23283387D01*
X42888505Y23283387D02*
X42936886Y23380149D01*
X42936886Y23380149D02*
X42936886Y23622054D01*
X42936886Y23622054D02*
X42888505Y23718816D01*
X42888505Y23718816D02*
X42840124Y23767197D01*
X42840124Y23767197D02*
X42743362Y23815578D01*
X42743362Y23815578D02*
X42549838Y23815578D01*
X42549838Y23815578D02*
X42453076Y23767197D01*
X42453076Y23767197D02*
X42404695Y23718816D01*
X42404695Y23718816D02*
X42356314Y23622054D01*
D12*
X42244629Y19950010D02*
X41809200Y19950010D01*
X42026915Y19950010D02*
X42026915Y20712010D01*
X42026915Y20712010D02*
X41954343Y20603153D01*
X41954343Y20603153D02*
X41881772Y20530581D01*
X41881772Y20530581D02*
X41809200Y20494295D01*
X42716343Y20712010D02*
X42788914Y20712010D01*
X42788914Y20712010D02*
X42861486Y20675724D01*
X42861486Y20675724D02*
X42897772Y20639438D01*
X42897772Y20639438D02*
X42934057Y20566867D01*
X42934057Y20566867D02*
X42970343Y20421724D01*
X42970343Y20421724D02*
X42970343Y20240295D01*
X42970343Y20240295D02*
X42934057Y20095153D01*
X42934057Y20095153D02*
X42897772Y20022581D01*
X42897772Y20022581D02*
X42861486Y19986295D01*
X42861486Y19986295D02*
X42788914Y19950010D01*
X42788914Y19950010D02*
X42716343Y19950010D01*
X42716343Y19950010D02*
X42643772Y19986295D01*
X42643772Y19986295D02*
X42607486Y20022581D01*
X42607486Y20022581D02*
X42571200Y20095153D01*
X42571200Y20095153D02*
X42534914Y20240295D01*
X42534914Y20240295D02*
X42534914Y20421724D01*
X42534914Y20421724D02*
X42571200Y20566867D01*
X42571200Y20566867D02*
X42607486Y20639438D01*
X42607486Y20639438D02*
X42643772Y20675724D01*
X42643772Y20675724D02*
X42716343Y20712010D01*
X43296914Y19950010D02*
X43296914Y20712010D01*
X43369486Y20240295D02*
X43587200Y19950010D01*
X43587200Y20458010D02*
X43296914Y20167724D01*
D10*
X35365267Y5508226D02*
X35026600Y5992035D01*
X34784695Y5508226D02*
X34784695Y6524226D01*
X34784695Y6524226D02*
X35171743Y6524226D01*
X35171743Y6524226D02*
X35268505Y6475845D01*
X35268505Y6475845D02*
X35316886Y6427464D01*
X35316886Y6427464D02*
X35365267Y6330702D01*
X35365267Y6330702D02*
X35365267Y6185559D01*
X35365267Y6185559D02*
X35316886Y6088797D01*
X35316886Y6088797D02*
X35268505Y6040416D01*
X35268505Y6040416D02*
X35171743Y5992035D01*
X35171743Y5992035D02*
X34784695Y5992035D01*
X35752314Y6427464D02*
X35800695Y6475845D01*
X35800695Y6475845D02*
X35897457Y6524226D01*
X35897457Y6524226D02*
X36139362Y6524226D01*
X36139362Y6524226D02*
X36236124Y6475845D01*
X36236124Y6475845D02*
X36284505Y6427464D01*
X36284505Y6427464D02*
X36332886Y6330702D01*
X36332886Y6330702D02*
X36332886Y6233940D01*
X36332886Y6233940D02*
X36284505Y6088797D01*
X36284505Y6088797D02*
X35703933Y5508226D01*
X35703933Y5508226D02*
X36332886Y5508226D01*
D12*
X32424915Y3592410D02*
X32932915Y3592410D01*
X32932915Y3592410D02*
X32606343Y2830410D01*
X33223200Y2830410D02*
X33223200Y3592410D01*
X33295772Y3120695D02*
X33513486Y2830410D01*
X33513486Y3338410D02*
X33223200Y3048124D01*
X34202914Y3592410D02*
X33840057Y3592410D01*
X33840057Y3592410D02*
X33803771Y3229553D01*
X33803771Y3229553D02*
X33840057Y3265838D01*
X33840057Y3265838D02*
X33912629Y3302124D01*
X33912629Y3302124D02*
X34094057Y3302124D01*
X34094057Y3302124D02*
X34166629Y3265838D01*
X34166629Y3265838D02*
X34202914Y3229553D01*
X34202914Y3229553D02*
X34239200Y3156981D01*
X34239200Y3156981D02*
X34239200Y2975553D01*
X34239200Y2975553D02*
X34202914Y2902981D01*
X34202914Y2902981D02*
X34166629Y2866695D01*
X34166629Y2866695D02*
X34094057Y2830410D01*
X34094057Y2830410D02*
X33912629Y2830410D01*
X33912629Y2830410D02*
X33840057Y2866695D01*
X33840057Y2866695D02*
X33803771Y2902981D01*
D13*
X4466771Y2168772D02*
X5434391Y2168772D01*
X6039152Y1684962D02*
X6039152Y2954962D01*
X6643914Y1684962D02*
X6643914Y2954962D01*
X6643914Y2954962D02*
X7369629Y1684962D01*
X7369629Y1684962D02*
X7369629Y2954962D01*
D10*
X39911867Y5432826D02*
X39573200Y5916635D01*
X39331295Y5432826D02*
X39331295Y6448826D01*
X39331295Y6448826D02*
X39718343Y6448826D01*
X39718343Y6448826D02*
X39815105Y6400445D01*
X39815105Y6400445D02*
X39863486Y6352064D01*
X39863486Y6352064D02*
X39911867Y6255302D01*
X39911867Y6255302D02*
X39911867Y6110159D01*
X39911867Y6110159D02*
X39863486Y6013397D01*
X39863486Y6013397D02*
X39815105Y5965016D01*
X39815105Y5965016D02*
X39718343Y5916635D01*
X39718343Y5916635D02*
X39331295Y5916635D01*
X40250533Y6448826D02*
X40879486Y6448826D01*
X40879486Y6448826D02*
X40540819Y6061778D01*
X40540819Y6061778D02*
X40685962Y6061778D01*
X40685962Y6061778D02*
X40782724Y6013397D01*
X40782724Y6013397D02*
X40831105Y5965016D01*
X40831105Y5965016D02*
X40879486Y5868254D01*
X40879486Y5868254D02*
X40879486Y5626349D01*
X40879486Y5626349D02*
X40831105Y5529587D01*
X40831105Y5529587D02*
X40782724Y5481206D01*
X40782724Y5481206D02*
X40685962Y5432826D01*
X40685962Y5432826D02*
X40395676Y5432826D01*
X40395676Y5432826D02*
X40298914Y5481206D01*
X40298914Y5481206D02*
X40250533Y5529587D01*
D12*
X41053658Y3490810D02*
X40908515Y3490810D01*
X40908515Y3490810D02*
X40835943Y3454524D01*
X40835943Y3454524D02*
X40799658Y3418238D01*
X40799658Y3418238D02*
X40727086Y3309381D01*
X40727086Y3309381D02*
X40690800Y3164238D01*
X40690800Y3164238D02*
X40690800Y2873953D01*
X40690800Y2873953D02*
X40727086Y2801381D01*
X40727086Y2801381D02*
X40763372Y2765095D01*
X40763372Y2765095D02*
X40835943Y2728810D01*
X40835943Y2728810D02*
X40981086Y2728810D01*
X40981086Y2728810D02*
X41053658Y2765095D01*
X41053658Y2765095D02*
X41089943Y2801381D01*
X41089943Y2801381D02*
X41126229Y2873953D01*
X41126229Y2873953D02*
X41126229Y3055381D01*
X41126229Y3055381D02*
X41089943Y3127953D01*
X41089943Y3127953D02*
X41053658Y3164238D01*
X41053658Y3164238D02*
X40981086Y3200524D01*
X40981086Y3200524D02*
X40835943Y3200524D01*
X40835943Y3200524D02*
X40763372Y3164238D01*
X40763372Y3164238D02*
X40727086Y3127953D01*
X40727086Y3127953D02*
X40690800Y3055381D01*
X41452800Y2728810D02*
X41452800Y3490810D01*
X41525372Y3019095D02*
X41743086Y2728810D01*
X41743086Y3236810D02*
X41452800Y2946524D01*
X42178514Y3164238D02*
X42105943Y3200524D01*
X42105943Y3200524D02*
X42069657Y3236810D01*
X42069657Y3236810D02*
X42033371Y3309381D01*
X42033371Y3309381D02*
X42033371Y3345667D01*
X42033371Y3345667D02*
X42069657Y3418238D01*
X42069657Y3418238D02*
X42105943Y3454524D01*
X42105943Y3454524D02*
X42178514Y3490810D01*
X42178514Y3490810D02*
X42323657Y3490810D01*
X42323657Y3490810D02*
X42396229Y3454524D01*
X42396229Y3454524D02*
X42432514Y3418238D01*
X42432514Y3418238D02*
X42468800Y3345667D01*
X42468800Y3345667D02*
X42468800Y3309381D01*
X42468800Y3309381D02*
X42432514Y3236810D01*
X42432514Y3236810D02*
X42396229Y3200524D01*
X42396229Y3200524D02*
X42323657Y3164238D01*
X42323657Y3164238D02*
X42178514Y3164238D01*
X42178514Y3164238D02*
X42105943Y3127953D01*
X42105943Y3127953D02*
X42069657Y3091667D01*
X42069657Y3091667D02*
X42033371Y3019095D01*
X42033371Y3019095D02*
X42033371Y2873953D01*
X42033371Y2873953D02*
X42069657Y2801381D01*
X42069657Y2801381D02*
X42105943Y2765095D01*
X42105943Y2765095D02*
X42178514Y2728810D01*
X42178514Y2728810D02*
X42323657Y2728810D01*
X42323657Y2728810D02*
X42396229Y2765095D01*
X42396229Y2765095D02*
X42432514Y2801381D01*
X42432514Y2801381D02*
X42468800Y2873953D01*
X42468800Y2873953D02*
X42468800Y3019095D01*
X42468800Y3019095D02*
X42432514Y3091667D01*
X42432514Y3091667D02*
X42396229Y3127953D01*
X42396229Y3127953D02*
X42323657Y3164238D01*
D13*
X4568371Y5596562D02*
X4568371Y6866562D01*
X5294086Y5596562D02*
X4749800Y6322277D01*
X5294086Y6866562D02*
X4568371Y6140848D01*
X5838371Y6080372D02*
X6805991Y6080372D01*
X7410752Y5596562D02*
X7410752Y6866562D01*
X8015514Y5596562D02*
X8015514Y6866562D01*
X8015514Y6866562D02*
X8741229Y5596562D01*
X8741229Y5596562D02*
X8741229Y6866562D01*
D10*
X32596667Y11426426D02*
X32258000Y11910235D01*
X32016095Y11426426D02*
X32016095Y12442426D01*
X32016095Y12442426D02*
X32403143Y12442426D01*
X32403143Y12442426D02*
X32499905Y12394045D01*
X32499905Y12394045D02*
X32548286Y12345664D01*
X32548286Y12345664D02*
X32596667Y12248902D01*
X32596667Y12248902D02*
X32596667Y12103759D01*
X32596667Y12103759D02*
X32548286Y12006997D01*
X32548286Y12006997D02*
X32499905Y11958616D01*
X32499905Y11958616D02*
X32403143Y11910235D01*
X32403143Y11910235D02*
X32016095Y11910235D01*
X33467524Y12103759D02*
X33467524Y11426426D01*
X33225619Y12490806D02*
X32983714Y11765092D01*
X32983714Y11765092D02*
X33612667Y11765092D01*
X30869467Y5559026D02*
X30530800Y6042835D01*
X30288895Y5559026D02*
X30288895Y6575026D01*
X30288895Y6575026D02*
X30675943Y6575026D01*
X30675943Y6575026D02*
X30772705Y6526645D01*
X30772705Y6526645D02*
X30821086Y6478264D01*
X30821086Y6478264D02*
X30869467Y6381502D01*
X30869467Y6381502D02*
X30869467Y6236359D01*
X30869467Y6236359D02*
X30821086Y6139597D01*
X30821086Y6139597D02*
X30772705Y6091216D01*
X30772705Y6091216D02*
X30675943Y6042835D01*
X30675943Y6042835D02*
X30288895Y6042835D01*
X31788705Y6575026D02*
X31304895Y6575026D01*
X31304895Y6575026D02*
X31256514Y6091216D01*
X31256514Y6091216D02*
X31304895Y6139597D01*
X31304895Y6139597D02*
X31401657Y6187978D01*
X31401657Y6187978D02*
X31643562Y6187978D01*
X31643562Y6187978D02*
X31740324Y6139597D01*
X31740324Y6139597D02*
X31788705Y6091216D01*
X31788705Y6091216D02*
X31837086Y5994454D01*
X31837086Y5994454D02*
X31837086Y5752549D01*
X31837086Y5752549D02*
X31788705Y5655787D01*
X31788705Y5655787D02*
X31740324Y5607406D01*
X31740324Y5607406D02*
X31643562Y5559026D01*
X31643562Y5559026D02*
X31401657Y5559026D01*
X31401657Y5559026D02*
X31304895Y5607406D01*
X31304895Y5607406D02*
X31256514Y5655787D01*
D12*
X38031057Y15447410D02*
X38031057Y16209410D01*
X38466486Y15447410D02*
X38139914Y15882838D01*
X38466486Y16209410D02*
X38031057Y15773981D01*
X38938200Y16209410D02*
X39083343Y16209410D01*
X39083343Y16209410D02*
X39155914Y16173124D01*
X39155914Y16173124D02*
X39228486Y16100553D01*
X39228486Y16100553D02*
X39264771Y15955410D01*
X39264771Y15955410D02*
X39264771Y15701410D01*
X39264771Y15701410D02*
X39228486Y15556267D01*
X39228486Y15556267D02*
X39155914Y15483695D01*
X39155914Y15483695D02*
X39083343Y15447410D01*
X39083343Y15447410D02*
X38938200Y15447410D01*
X38938200Y15447410D02*
X38865629Y15483695D01*
X38865629Y15483695D02*
X38793057Y15556267D01*
X38793057Y15556267D02*
X38756771Y15701410D01*
X38756771Y15701410D02*
X38756771Y15955410D01*
X38756771Y15955410D02*
X38793057Y16100553D01*
X38793057Y16100553D02*
X38865629Y16173124D01*
X38865629Y16173124D02*
X38938200Y16209410D01*
X39591343Y16209410D02*
X39591343Y15592553D01*
X39591343Y15592553D02*
X39627629Y15519981D01*
X39627629Y15519981D02*
X39663915Y15483695D01*
X39663915Y15483695D02*
X39736486Y15447410D01*
X39736486Y15447410D02*
X39881629Y15447410D01*
X39881629Y15447410D02*
X39954200Y15483695D01*
X39954200Y15483695D02*
X39990486Y15519981D01*
X39990486Y15519981D02*
X40026772Y15592553D01*
X40026772Y15592553D02*
X40026772Y16209410D01*
X40280772Y16209410D02*
X40716201Y16209410D01*
X40498486Y15447410D02*
X40498486Y16209410D01*
D13*
X4568371Y18296562D02*
X4568371Y19566562D01*
X5294086Y18296562D02*
X4749800Y19022277D01*
X5294086Y19566562D02*
X4568371Y18840848D01*
X5838371Y18780372D02*
X6805991Y18780372D01*
X6322181Y18296562D02*
X6322181Y19264181D01*
X7410752Y18296562D02*
X7410752Y19566562D01*
X8015514Y18296562D02*
X8015514Y19566562D01*
X8015514Y19566562D02*
X8741229Y18296562D01*
X8741229Y18296562D02*
X8741229Y19566562D01*
D10*
X32495067Y17923987D02*
X32446686Y17875606D01*
X32446686Y17875606D02*
X32301543Y17827226D01*
X32301543Y17827226D02*
X32204781Y17827226D01*
X32204781Y17827226D02*
X32059638Y17875606D01*
X32059638Y17875606D02*
X31962876Y17972368D01*
X31962876Y17972368D02*
X31914495Y18069130D01*
X31914495Y18069130D02*
X31866114Y18262654D01*
X31866114Y18262654D02*
X31866114Y18407797D01*
X31866114Y18407797D02*
X31914495Y18601321D01*
X31914495Y18601321D02*
X31962876Y18698083D01*
X31962876Y18698083D02*
X32059638Y18794845D01*
X32059638Y18794845D02*
X32204781Y18843226D01*
X32204781Y18843226D02*
X32301543Y18843226D01*
X32301543Y18843226D02*
X32446686Y18794845D01*
X32446686Y18794845D02*
X32495067Y18746464D01*
X33462686Y17827226D02*
X32882114Y17827226D01*
X33172400Y17827226D02*
X33172400Y18843226D01*
X33172400Y18843226D02*
X33075638Y18698083D01*
X33075638Y18698083D02*
X32978876Y18601321D01*
X32978876Y18601321D02*
X32882114Y18552940D01*
D12*
X42204000Y18045010D02*
X41768571Y18045010D01*
X41986286Y18045010D02*
X41986286Y18807010D01*
X41986286Y18807010D02*
X41913714Y18698153D01*
X41913714Y18698153D02*
X41841143Y18625581D01*
X41841143Y18625581D02*
X41768571Y18589295D01*
X42530571Y18553010D02*
X42530571Y18045010D01*
X42530571Y18480438D02*
X42566857Y18516724D01*
X42566857Y18516724D02*
X42639428Y18553010D01*
X42639428Y18553010D02*
X42748285Y18553010D01*
X42748285Y18553010D02*
X42820857Y18516724D01*
X42820857Y18516724D02*
X42857143Y18444153D01*
X42857143Y18444153D02*
X42857143Y18045010D01*
D10*
X32520467Y15642826D02*
X32181800Y16126635D01*
X31939895Y15642826D02*
X31939895Y16658826D01*
X31939895Y16658826D02*
X32326943Y16658826D01*
X32326943Y16658826D02*
X32423705Y16610445D01*
X32423705Y16610445D02*
X32472086Y16562064D01*
X32472086Y16562064D02*
X32520467Y16465302D01*
X32520467Y16465302D02*
X32520467Y16320159D01*
X32520467Y16320159D02*
X32472086Y16223397D01*
X32472086Y16223397D02*
X32423705Y16175016D01*
X32423705Y16175016D02*
X32326943Y16126635D01*
X32326943Y16126635D02*
X31939895Y16126635D01*
X33488086Y15642826D02*
X32907514Y15642826D01*
X33197800Y15642826D02*
X33197800Y16658826D01*
X33197800Y16658826D02*
X33101038Y16513683D01*
X33101038Y16513683D02*
X33004276Y16416921D01*
X33004276Y16416921D02*
X32907514Y16368540D01*
D12*
X34808886Y12812610D02*
X34446029Y12812610D01*
X34446029Y12812610D02*
X34409743Y12449753D01*
X34409743Y12449753D02*
X34446029Y12486038D01*
X34446029Y12486038D02*
X34518601Y12522324D01*
X34518601Y12522324D02*
X34700029Y12522324D01*
X34700029Y12522324D02*
X34772601Y12486038D01*
X34772601Y12486038D02*
X34808886Y12449753D01*
X34808886Y12449753D02*
X34845172Y12377181D01*
X34845172Y12377181D02*
X34845172Y12195753D01*
X34845172Y12195753D02*
X34808886Y12123181D01*
X34808886Y12123181D02*
X34772601Y12086895D01*
X34772601Y12086895D02*
X34700029Y12050610D01*
X34700029Y12050610D02*
X34518601Y12050610D01*
X34518601Y12050610D02*
X34446029Y12086895D01*
X34446029Y12086895D02*
X34409743Y12123181D01*
X35498315Y12812610D02*
X35353172Y12812610D01*
X35353172Y12812610D02*
X35280600Y12776324D01*
X35280600Y12776324D02*
X35244315Y12740038D01*
X35244315Y12740038D02*
X35171743Y12631181D01*
X35171743Y12631181D02*
X35135457Y12486038D01*
X35135457Y12486038D02*
X35135457Y12195753D01*
X35135457Y12195753D02*
X35171743Y12123181D01*
X35171743Y12123181D02*
X35208029Y12086895D01*
X35208029Y12086895D02*
X35280600Y12050610D01*
X35280600Y12050610D02*
X35425743Y12050610D01*
X35425743Y12050610D02*
X35498315Y12086895D01*
X35498315Y12086895D02*
X35534600Y12123181D01*
X35534600Y12123181D02*
X35570886Y12195753D01*
X35570886Y12195753D02*
X35570886Y12377181D01*
X35570886Y12377181D02*
X35534600Y12449753D01*
X35534600Y12449753D02*
X35498315Y12486038D01*
X35498315Y12486038D02*
X35425743Y12522324D01*
X35425743Y12522324D02*
X35280600Y12522324D01*
X35280600Y12522324D02*
X35208029Y12486038D01*
X35208029Y12486038D02*
X35171743Y12449753D01*
X35171743Y12449753D02*
X35135457Y12377181D01*
X36042600Y12812610D02*
X36115171Y12812610D01*
X36115171Y12812610D02*
X36187743Y12776324D01*
X36187743Y12776324D02*
X36224029Y12740038D01*
X36224029Y12740038D02*
X36260314Y12667467D01*
X36260314Y12667467D02*
X36296600Y12522324D01*
X36296600Y12522324D02*
X36296600Y12340895D01*
X36296600Y12340895D02*
X36260314Y12195753D01*
X36260314Y12195753D02*
X36224029Y12123181D01*
X36224029Y12123181D02*
X36187743Y12086895D01*
X36187743Y12086895D02*
X36115171Y12050610D01*
X36115171Y12050610D02*
X36042600Y12050610D01*
X36042600Y12050610D02*
X35970029Y12086895D01*
X35970029Y12086895D02*
X35933743Y12123181D01*
X35933743Y12123181D02*
X35897457Y12195753D01*
X35897457Y12195753D02*
X35861171Y12340895D01*
X35861171Y12340895D02*
X35861171Y12522324D01*
X35861171Y12522324D02*
X35897457Y12667467D01*
X35897457Y12667467D02*
X35933743Y12740038D01*
X35933743Y12740038D02*
X35970029Y12776324D01*
X35970029Y12776324D02*
X36042600Y12812610D01*
X36623171Y12050610D02*
X36623171Y12812610D01*
X36695743Y12340895D02*
X36913457Y12050610D01*
X36913457Y12558610D02*
X36623171Y12268324D01*
D10*
X44481448Y5025626D02*
X43900876Y5025626D01*
X44191162Y5025626D02*
X44191162Y6041626D01*
X44191162Y6041626D02*
X44094400Y5896483D01*
X44094400Y5896483D02*
X43997638Y5799721D01*
X43997638Y5799721D02*
X43900876Y5751340D01*
X44868495Y5944864D02*
X44916876Y5993245D01*
X44916876Y5993245D02*
X45013638Y6041626D01*
X45013638Y6041626D02*
X45255543Y6041626D01*
X45255543Y6041626D02*
X45352305Y5993245D01*
X45352305Y5993245D02*
X45400686Y5944864D01*
X45400686Y5944864D02*
X45449067Y5848102D01*
X45449067Y5848102D02*
X45449067Y5751340D01*
X45449067Y5751340D02*
X45400686Y5606197D01*
X45400686Y5606197D02*
X44820114Y5025626D01*
X44820114Y5025626D02*
X45449067Y5025626D01*
X45739352Y6041626D02*
X46078019Y5025626D01*
X46078019Y5025626D02*
X46416686Y6041626D01*
D13*
X4517571Y23098372D02*
X5485191Y23098372D01*
X5001381Y22614562D02*
X5001381Y23582181D01*
X6089952Y22614562D02*
X6089952Y23884562D01*
X6694714Y22614562D02*
X6694714Y23884562D01*
X6694714Y23884562D02*
X7420429Y22614562D01*
X7420429Y22614562D02*
X7420429Y23884562D01*
D11*
X22325105Y11914981D02*
X22325105Y12914981D01*
X22896533Y11914981D02*
X22467962Y12486410D01*
X22896533Y12914981D02*
X22325105Y12343553D01*
X23848914Y11914981D02*
X23277486Y11914981D01*
X23563200Y11914981D02*
X23563200Y12914981D01*
X23563200Y12914981D02*
X23467962Y12772124D01*
X23467962Y12772124D02*
X23372724Y12676886D01*
X23372724Y12676886D02*
X23277486Y12629267D01*
X25906505Y23817152D02*
X25906505Y24817152D01*
X25906505Y24817152D02*
X26144600Y24817152D01*
X26144600Y24817152D02*
X26287457Y24769533D01*
X26287457Y24769533D02*
X26382695Y24674295D01*
X26382695Y24674295D02*
X26430314Y24579057D01*
X26430314Y24579057D02*
X26477933Y24388581D01*
X26477933Y24388581D02*
X26477933Y24245724D01*
X26477933Y24245724D02*
X26430314Y24055248D01*
X26430314Y24055248D02*
X26382695Y23960010D01*
X26382695Y23960010D02*
X26287457Y23864771D01*
X26287457Y23864771D02*
X26144600Y23817152D01*
X26144600Y23817152D02*
X25906505Y23817152D01*
X26858886Y24721914D02*
X26906505Y24769533D01*
X26906505Y24769533D02*
X27001743Y24817152D01*
X27001743Y24817152D02*
X27239838Y24817152D01*
X27239838Y24817152D02*
X27335076Y24769533D01*
X27335076Y24769533D02*
X27382695Y24721914D01*
X27382695Y24721914D02*
X27430314Y24626676D01*
X27430314Y24626676D02*
X27430314Y24531438D01*
X27430314Y24531438D02*
X27382695Y24388581D01*
X27382695Y24388581D02*
X26811267Y23817152D01*
X26811267Y23817152D02*
X27430314Y23817152D01*
X27651105Y19439696D02*
X28127295Y19439696D01*
X27555867Y19153981D02*
X27889200Y20153981D01*
X27889200Y20153981D02*
X28222533Y19153981D01*
X29298790Y2309906D02*
X28298790Y2309906D01*
X28298790Y2309906D02*
X28298790Y2548001D01*
X28298790Y2548001D02*
X28346409Y2690858D01*
X28346409Y2690858D02*
X28441647Y2786096D01*
X28441647Y2786096D02*
X28536885Y2833715D01*
X28536885Y2833715D02*
X28727361Y2881334D01*
X28727361Y2881334D02*
X28870218Y2881334D01*
X28870218Y2881334D02*
X29060694Y2833715D01*
X29060694Y2833715D02*
X29155932Y2786096D01*
X29155932Y2786096D02*
X29251171Y2690858D01*
X29251171Y2690858D02*
X29298790Y2548001D01*
X29298790Y2548001D02*
X29298790Y2309906D01*
X29298790Y3833715D02*
X29298790Y3262287D01*
X29298790Y3548001D02*
X28298790Y3548001D01*
X28298790Y3548001D02*
X28441647Y3452763D01*
X28441647Y3452763D02*
X28536885Y3357525D01*
X28536885Y3357525D02*
X28584504Y3262287D01*
X23942705Y1659696D02*
X24418895Y1659696D01*
X23847467Y1373981D02*
X24180800Y2373981D01*
X24180800Y2373981D02*
X24514133Y1373981D01*
D10*
X16823267Y3242787D02*
X16774886Y3194406D01*
X16774886Y3194406D02*
X16629743Y3146026D01*
X16629743Y3146026D02*
X16532981Y3146026D01*
X16532981Y3146026D02*
X16387838Y3194406D01*
X16387838Y3194406D02*
X16291076Y3291168D01*
X16291076Y3291168D02*
X16242695Y3387930D01*
X16242695Y3387930D02*
X16194314Y3581454D01*
X16194314Y3581454D02*
X16194314Y3726597D01*
X16194314Y3726597D02*
X16242695Y3920121D01*
X16242695Y3920121D02*
X16291076Y4016883D01*
X16291076Y4016883D02*
X16387838Y4113645D01*
X16387838Y4113645D02*
X16532981Y4162026D01*
X16532981Y4162026D02*
X16629743Y4162026D01*
X16629743Y4162026D02*
X16774886Y4113645D01*
X16774886Y4113645D02*
X16823267Y4065264D01*
X17210314Y4065264D02*
X17258695Y4113645D01*
X17258695Y4113645D02*
X17355457Y4162026D01*
X17355457Y4162026D02*
X17597362Y4162026D01*
X17597362Y4162026D02*
X17694124Y4113645D01*
X17694124Y4113645D02*
X17742505Y4065264D01*
X17742505Y4065264D02*
X17790886Y3968502D01*
X17790886Y3968502D02*
X17790886Y3871740D01*
X17790886Y3871740D02*
X17742505Y3726597D01*
X17742505Y3726597D02*
X17161933Y3146026D01*
X17161933Y3146026D02*
X17790886Y3146026D01*
D12*
X19975286Y3160610D02*
X19539857Y3160610D01*
X19757572Y3160610D02*
X19757572Y3922610D01*
X19757572Y3922610D02*
X19685000Y3813753D01*
X19685000Y3813753D02*
X19612429Y3741181D01*
X19612429Y3741181D02*
X19539857Y3704895D01*
X20447000Y3922610D02*
X20519571Y3922610D01*
X20519571Y3922610D02*
X20592143Y3886324D01*
X20592143Y3886324D02*
X20628429Y3850038D01*
X20628429Y3850038D02*
X20664714Y3777467D01*
X20664714Y3777467D02*
X20701000Y3632324D01*
X20701000Y3632324D02*
X20701000Y3450895D01*
X20701000Y3450895D02*
X20664714Y3305753D01*
X20664714Y3305753D02*
X20628429Y3233181D01*
X20628429Y3233181D02*
X20592143Y3196895D01*
X20592143Y3196895D02*
X20519571Y3160610D01*
X20519571Y3160610D02*
X20447000Y3160610D01*
X20447000Y3160610D02*
X20374429Y3196895D01*
X20374429Y3196895D02*
X20338143Y3233181D01*
X20338143Y3233181D02*
X20301857Y3305753D01*
X20301857Y3305753D02*
X20265571Y3450895D01*
X20265571Y3450895D02*
X20265571Y3632324D01*
X20265571Y3632324D02*
X20301857Y3777467D01*
X20301857Y3777467D02*
X20338143Y3850038D01*
X20338143Y3850038D02*
X20374429Y3886324D01*
X20374429Y3886324D02*
X20447000Y3922610D01*
X21172714Y3922610D02*
X21245285Y3922610D01*
X21245285Y3922610D02*
X21317857Y3886324D01*
X21317857Y3886324D02*
X21354143Y3850038D01*
X21354143Y3850038D02*
X21390428Y3777467D01*
X21390428Y3777467D02*
X21426714Y3632324D01*
X21426714Y3632324D02*
X21426714Y3450895D01*
X21426714Y3450895D02*
X21390428Y3305753D01*
X21390428Y3305753D02*
X21354143Y3233181D01*
X21354143Y3233181D02*
X21317857Y3196895D01*
X21317857Y3196895D02*
X21245285Y3160610D01*
X21245285Y3160610D02*
X21172714Y3160610D01*
X21172714Y3160610D02*
X21100143Y3196895D01*
X21100143Y3196895D02*
X21063857Y3233181D01*
X21063857Y3233181D02*
X21027571Y3305753D01*
X21027571Y3305753D02*
X20991285Y3450895D01*
X20991285Y3450895D02*
X20991285Y3632324D01*
X20991285Y3632324D02*
X21027571Y3777467D01*
X21027571Y3777467D02*
X21063857Y3850038D01*
X21063857Y3850038D02*
X21100143Y3886324D01*
X21100143Y3886324D02*
X21172714Y3922610D01*
X21753285Y3668610D02*
X21753285Y3160610D01*
X21753285Y3596038D02*
X21789571Y3632324D01*
X21789571Y3632324D02*
X21862142Y3668610D01*
X21862142Y3668610D02*
X21970999Y3668610D01*
X21970999Y3668610D02*
X22043571Y3632324D01*
X22043571Y3632324D02*
X22079857Y3559753D01*
X22079857Y3559753D02*
X22079857Y3160610D01*
%TO.C,J7*%
D14*
X46777600Y23469600D02*
X46777600Y23529600D01*
X49437600Y23529600D02*
X46777600Y23529600D01*
X49437600Y23469600D02*
X46777600Y23469600D01*
X49437600Y23469600D02*
X49437600Y23529600D01*
X49437600Y22199600D02*
X49437600Y20869600D01*
X49437600Y20869600D02*
X48107600Y20869600D01*
%TO.C,Q1*%
X32896400Y19994000D02*
X36496400Y19994000D01*
X32857922Y20005522D02*
G75*
G02*
X34696400Y24444001I1838478J1838478D01*
G01*
X34696400Y24444000D02*
G75*
G02*
X36534878Y20005522I0J-2600000D01*
G01*
%TO.C,R6*%
X41102800Y21945600D02*
X41722800Y21945600D01*
X41102800Y21945600D02*
G75*
G02*
X39262800Y21945600I-920000J0D01*
G01*
X39262800Y21945600D02*
G75*
G02*
X41102800Y21945600I920000J0D01*
G01*
%TO.C,R2*%
X35560000Y2621800D02*
X35560000Y3241800D01*
X36480000Y1701800D02*
G75*
G02*
X34640000Y1701800I-920000J0D01*
G01*
X34640000Y1701800D02*
G75*
G02*
X36480000Y1701800I920000J0D01*
G01*
%TO.C,R3*%
X40055800Y2698000D02*
X40055800Y3318000D01*
X40975800Y1778000D02*
G75*
G02*
X39135800Y1778000I-920000J0D01*
G01*
X39135800Y1778000D02*
G75*
G02*
X40975800Y1778000I920000J0D01*
G01*
%TO.C,H2*%
X4000001Y12420600D02*
X4000001Y12420600D01*
X4000001Y12420600D01*
X4000001Y12420600D01*
X4000001Y12420600D01*
X4000001Y12420600D01*
X4000001Y12420599D01*
X4000001Y12420599D01*
X4000001Y12420599D01*
X4000001Y12420599D01*
X4000001Y12420599D01*
X4000001Y12420599D01*
X4000001Y12420599D01*
X4000000Y12420599D01*
X4000000Y12420599D01*
X4000000Y12420599D01*
X4000000Y12420599D01*
X4000000Y12420599D01*
X4000000Y12420599D01*
X4000000Y12420599D01*
X4000000Y12420599D01*
X4000000Y12420599D01*
X4000000Y12420599D01*
X4000000Y12420599D01*
X4000000Y12420599D01*
X3999999Y12420599D01*
X3999999Y12420599D01*
X3999999Y12420599D01*
X3999999Y12420599D01*
X3999999Y12420599D01*
X3999999Y12420599D01*
X3999999Y12420600D01*
X3999999Y12420600D01*
X3999999Y12420600D01*
X3999999Y12420600D01*
X3999999Y12420600D01*
X3999999Y12420600D01*
X3999999Y12420600D02*
X3999999Y12420600D01*
X3999999Y12420600D01*
X3999999Y12420600D01*
X3999999Y12420600D01*
X3999999Y12420600D01*
X3999999Y12420600D01*
X3999999Y12420601D01*
X3999999Y12420601D01*
X3999999Y12420601D01*
X3999999Y12420601D01*
X3999999Y12420601D01*
X4000000Y12420601D01*
X4000000Y12420601D01*
X4000000Y12420601D01*
X4000000Y12420601D01*
X4000000Y12420601D01*
X4000000Y12420601D01*
X4000000Y12420601D01*
X4000000Y12420601D01*
X4000000Y12420601D01*
X4000000Y12420601D01*
X4000000Y12420601D01*
X4000000Y12420601D01*
X4000001Y12420601D01*
X4000001Y12420601D01*
X4000001Y12420601D01*
X4000001Y12420601D01*
X4000001Y12420601D01*
X4000001Y12420601D01*
X4000001Y12420600D01*
X4000001Y12420600D01*
X4000001Y12420600D01*
X4000001Y12420600D01*
X4000001Y12420600D01*
X4000001Y12420600D01*
X4000001Y12420600D01*
%TO.C,R4*%
X33660600Y10058400D02*
X34280600Y10058400D01*
X33660600Y10058400D02*
G75*
G02*
X31820600Y10058400I-920000J0D01*
G01*
X31820600Y10058400D02*
G75*
G02*
X33660600Y10058400I920000J0D01*
G01*
%TO.C,R5*%
X31030333Y2647200D02*
X31030333Y3267200D01*
X31950333Y1727200D02*
G75*
G02*
X30110333Y1727200I-920000J0D01*
G01*
X30110333Y1727200D02*
G75*
G02*
X31950333Y1727200I920000J0D01*
G01*
%TO.C,J3*%
X37989200Y12192000D02*
X37989200Y14792000D01*
X40649200Y14792000D02*
X37989200Y14792000D01*
X40649200Y12192000D02*
X37989200Y12192000D01*
X40649200Y12192000D02*
X40649200Y14792000D01*
X40649200Y10922000D02*
X40649200Y9592000D01*
X40649200Y9592000D02*
X39319200Y9592000D01*
%TO.C,C1*%
X35539800Y19317600D02*
X35539800Y19332600D01*
X35539800Y17192600D02*
X35539800Y17207600D01*
X40079800Y19332600D02*
X35539800Y19332600D01*
X40079800Y19317600D02*
X40079800Y19332600D01*
X40079800Y17192600D02*
X35539800Y17192600D01*
X40079800Y17192600D02*
X40079800Y17207600D01*
%TO.C,R1*%
X33634400Y14376400D02*
X34254400Y14376400D01*
X33634400Y14376400D02*
G75*
G02*
X31794400Y14376400I-920000J0D01*
G01*
X31794400Y14376400D02*
G75*
G02*
X33634400Y14376400I920000J0D01*
G01*
%TO.C,H1*%
X47000001Y12446000D02*
X47000001Y12446000D01*
X47000001Y12446000D01*
X47000001Y12446000D01*
X47000001Y12446000D01*
X47000001Y12446000D01*
X47000001Y12445999D01*
X47000001Y12445999D01*
X47000001Y12445999D01*
X47000001Y12445999D01*
X47000001Y12445999D01*
X47000001Y12445999D01*
X47000001Y12445999D01*
X47000000Y12445999D01*
X47000000Y12445999D01*
X47000000Y12445999D01*
X47000000Y12445999D01*
X47000000Y12445999D01*
X47000000Y12445999D01*
X47000000Y12445999D01*
X47000000Y12445999D01*
X47000000Y12445999D01*
X47000000Y12445999D01*
X47000000Y12445999D01*
X47000000Y12445999D01*
X46999999Y12445999D01*
X46999999Y12445999D01*
X46999999Y12445999D01*
X46999999Y12445999D01*
X46999999Y12445999D01*
X46999999Y12445999D01*
X46999999Y12446000D01*
X46999999Y12446000D01*
X46999999Y12446000D01*
X46999999Y12446000D01*
X46999999Y12446000D01*
X46999999Y12446000D01*
X46999999Y12446000D02*
X46999999Y12446000D01*
X46999999Y12446000D01*
X46999999Y12446000D01*
X46999999Y12446000D01*
X46999999Y12446000D01*
X46999999Y12446000D01*
X46999999Y12446001D01*
X46999999Y12446001D01*
X46999999Y12446001D01*
X46999999Y12446001D01*
X46999999Y12446001D01*
X47000000Y12446001D01*
X47000000Y12446001D01*
X47000000Y12446001D01*
X47000000Y12446001D01*
X47000000Y12446001D01*
X47000000Y12446001D01*
X47000000Y12446001D01*
X47000000Y12446001D01*
X47000000Y12446001D01*
X47000000Y12446001D01*
X47000000Y12446001D01*
X47000000Y12446001D01*
X47000001Y12446001D01*
X47000001Y12446001D01*
X47000001Y12446001D01*
X47000001Y12446001D01*
X47000001Y12446001D01*
X47000001Y12446001D01*
X47000001Y12446000D01*
X47000001Y12446000D01*
X47000001Y12446000D01*
X47000001Y12446000D01*
X47000001Y12446000D01*
X47000001Y12446000D01*
X47000001Y12446000D01*
%TO.C,J5*%
X46803000Y4445000D02*
X46803000Y7045000D01*
X49463000Y7045000D02*
X46803000Y7045000D01*
X49463000Y4445000D02*
X46803000Y4445000D01*
X49463000Y4445000D02*
X49463000Y7045000D01*
X49463000Y3175000D02*
X49463000Y1845000D01*
X49463000Y1845000D02*
X48133000Y1845000D01*
%TO.C,K1*%
X8699200Y17458200D02*
X8699200Y7078200D01*
X8699200Y7078200D02*
X29289200Y7078200D01*
X26879200Y12608200D02*
X26879200Y11908200D01*
X26879200Y11908200D02*
X28079200Y11908200D01*
X27279200Y12608200D02*
X27679200Y11908200D01*
X27449200Y12608200D02*
X27449200Y13708200D01*
X27449200Y11908200D02*
X27449200Y10808200D01*
X28079200Y12608200D02*
X26879200Y12608200D01*
X28079200Y11908200D02*
X28079200Y12608200D01*
X28139200Y17618200D02*
X29439200Y17618200D01*
X28229200Y13778200D02*
X28229200Y10778200D01*
X28229200Y10778200D02*
X29289200Y10778200D01*
X29289200Y17458200D02*
X8699200Y17458200D01*
X29289200Y13778200D02*
X28249200Y13778200D01*
X29289200Y7078200D02*
X29289200Y17458200D01*
X29439200Y17618200D02*
X29439200Y16408200D01*
%TO.C,D2*%
X26700971Y21945600D02*
X26814600Y21945600D01*
X26700971Y21945600D02*
G75*
G02*
X24048229Y21945600I-1326371J0D01*
G01*
X24048229Y21945600D02*
G75*
G02*
X26700971Y21945600I1326371J0D01*
G01*
%TO.C,D1*%
X26517600Y2991629D02*
X26517600Y2878000D01*
X27843971Y4318000D02*
G75*
G02*
X25191229Y4318000I-1326371J0D01*
G01*
X25191229Y4318000D02*
G75*
G02*
X27843971Y4318000I1326371J0D01*
G01*
%TO.C,C2*%
X17277200Y2833000D02*
X17277200Y2848000D01*
X17277200Y708000D02*
X17277200Y723000D01*
X21817200Y2848000D02*
X17277200Y2848000D01*
X21817200Y2833000D02*
X21817200Y2848000D01*
X21817200Y708000D02*
X17277200Y708000D01*
X21817200Y708000D02*
X21817200Y723000D01*
%TD*%
%LPC*%
D15*
%TO.C,J7*%
X48107600Y22199600D03*
%TD*%
D16*
%TO.C,Q1*%
X33426400Y21844000D03*
D17*
X34696400Y21844000D03*
X35966400Y21844000D03*
%TD*%
D18*
%TO.C,R6*%
X40182800Y21945600D03*
D19*
X42722800Y21945600D03*
%TD*%
D18*
%TO.C,R2*%
X35560000Y1701800D03*
D19*
X35560000Y4241800D03*
%TD*%
D20*
%TO.C,J6*%
X2514600Y2209800D03*
%TD*%
D18*
%TO.C,R3*%
X40055800Y1778000D03*
D19*
X40055800Y4318000D03*
%TD*%
D21*
%TO.C,H2*%
X4000000Y12420600D03*
%TD*%
D20*
%TO.C,J4*%
X2514600Y6121400D03*
%TD*%
D18*
%TO.C,R4*%
X32740600Y10058400D03*
D19*
X35280600Y10058400D03*
%TD*%
D18*
%TO.C,R5*%
X31030333Y1727200D03*
D19*
X31030333Y4267200D03*
%TD*%
D15*
%TO.C,J3*%
X39319200Y10922000D03*
D22*
X39319200Y13462000D03*
%TD*%
D20*
%TO.C,J1*%
X2514600Y18796000D03*
%TD*%
D23*
%TO.C,C1*%
X40309800Y18262600D03*
X35309800Y18262600D03*
%TD*%
D18*
%TO.C,R1*%
X32714400Y14376400D03*
D19*
X35254400Y14376400D03*
%TD*%
D21*
%TO.C,H1*%
X47000000Y12446000D03*
%TD*%
D15*
%TO.C,J5*%
X48133000Y3175000D03*
D22*
X48133000Y5715000D03*
%TD*%
D20*
%TO.C,J2*%
X2514600Y23139400D03*
%TD*%
D24*
%TO.C,K1*%
X27889200Y16078200D03*
D18*
X20269200Y16078200D03*
X15189200Y16078200D03*
X10109200Y16078200D03*
X10109200Y8458200D03*
X15189200Y8458200D03*
X20269200Y8458200D03*
X27889200Y8458200D03*
%TD*%
D25*
%TO.C,D2*%
X25374600Y21945600D03*
D26*
X27914600Y21945600D03*
%TD*%
D25*
%TO.C,D1*%
X26517600Y4318000D03*
D26*
X26517600Y1778000D03*
%TD*%
D23*
%TO.C,C2*%
X22047200Y1778000D03*
X17047200Y1778000D03*
%TD*%
%LPD*%
M02*
