M48
; DRILL file KiCad 10.0.3 date 2026-07-10T08:55:56
; FORMAT={-:-/ absolute / inch / decimal}
; #@! TF.CreationDate,2026-07-10T08:55:56+10:00
; #@! TF.GenerationSoftware,Kicad,Pcbnew,10.0.3
; #@! TF.FileFunction,Plated,1,2,PTH
FMAT,2
INCH
; #@! TA.AperFunction,Plated,PTH,ComponentDrill
T1C0.0276
; #@! TA.AperFunction,Plated,PTH,ComponentDrill
T2C0.0295
; #@! TA.AperFunction,Plated,PTH,ComponentDrill
T3C0.0315
; #@! TA.AperFunction,Plated,PTH,ComponentDrill
T4C0.0394
; #@! TA.AperFunction,Plated,PTH,ComponentDrill
T5C0.0433
%
G90
G05
T1
X0.398Y0.633
X0.398Y0.333
X0.598Y0.633
X0.598Y0.333
X0.798Y0.633
X0.798Y0.333
X1.098Y0.633
X1.098Y0.333
X1.2217Y0.168
X1.2217Y0.068
X1.288Y0.566
X1.289Y0.396
X1.388Y0.566
X1.389Y0.396
X1.4Y0.167
X1.4Y0.067
X1.577Y0.17
X1.577Y0.07
X1.582Y0.864
X1.682Y0.864
T2
X1.316Y0.86
X1.366Y0.86
X1.416Y0.86
T3
X0.6711Y0.07
X0.868Y0.07
X0.999Y0.864
X1.044Y0.17
X1.044Y0.07
X1.099Y0.864
X1.3901Y0.719
X1.587Y0.719
T4
X1.548Y0.53
X1.548Y0.43
X1.894Y0.874
X1.895Y0.225
X1.895Y0.125
T5
X0.099Y0.911
X0.099Y0.74
X0.099Y0.241
X0.099Y0.087
M30
