%TF.GenerationSoftware,KiCad,Pcbnew,10.0.3*%
%TF.CreationDate,2026-07-10T08:55:56+10:00*%
%TF.ProjectId,load mini 7 tht,6c6f6164-206d-4696-9e69-203720746874,rev?*%
%TF.SameCoordinates,Original*%
%TF.FileFunction,Legend,Bot*%
%TF.FilePolarity,Positive*%
%FSLAX46Y46*%
G04 Gerber Fmt 4.6, Leading zero omitted, Abs format (unit mm)*
G04 Created by KiCad (PCBNEW 10.0.3) date 2026-07-10 08:55:56*
%MOMM*%
%LPD*%
G01*
G04 APERTURE LIST*
G04 Aperture macros list*
%AMRoundRect*
0 Rectangle with rounded corners*
0 $1 Rounding radius*
0 $2 $3 $4 $5 $6 $7 $8 $9 X,Y pos of 4 corners*
0 Add a 4 corners polygon primitive as box body*
4,1,4,$2,$3,$4,$5,$6,$7,$8,$9,$2,$3,0*
0 Add four circle primitives for the rounded corners*
1,1,$1+$1,$2,$3*
1,1,$1+$1,$4,$5*
1,1,$1+$1,$6,$7*
1,1,$1+$1,$8,$9*
0 Add four rect primitives between the rounded corners*
20,1,$1+$1,$2,$3,$4,$5,0*
20,1,$1+$1,$4,$5,$6,$7,0*
20,1,$1+$1,$6,$7,$8,$9,0*
20,1,$1+$1,$8,$9,$2,$3,0*%
G04 Aperture macros list end*
%ADD10C,0.177800*%
%ADD11R,1.700000X1.700000*%
%ADD12R,1.050000X1.500000*%
%ADD13O,1.050000X1.500000*%
%ADD14C,1.400000*%
%ADD15O,1.400000X1.400000*%
%ADD16RoundRect,0.250001X-0.799999X-0.799999X0.799999X-0.799999X0.799999X0.799999X-0.799999X0.799999X0*%
%ADD17C,3.500000*%
%ADD18O,1.700000X1.700000*%
%ADD19C,1.600000*%
%ADD20R,1.400000X1.400000*%
%ADD21R,1.600000X1.600000*%
%ADD22O,1.600000X1.600000*%
G04 APERTURE END LIST*
D10*
X23317199Y23300597D02*
X23105532Y22411597D01*
X23105532Y22411597D02*
X22936199Y23046597D01*
X22936199Y23046597D02*
X22766865Y22411597D01*
X22766865Y22411597D02*
X22555199Y23300597D01*
X22216532Y22411597D02*
X22216532Y23004264D01*
X22216532Y23300597D02*
X22258865Y23258264D01*
X22258865Y23258264D02*
X22216532Y23215930D01*
X22216532Y23215930D02*
X22174199Y23258264D01*
X22174199Y23258264D02*
X22216532Y23300597D01*
X22216532Y23300597D02*
X22216532Y23215930D01*
X21496866Y22877264D02*
X21793199Y22877264D01*
X21793199Y22411597D02*
X21793199Y23300597D01*
X21793199Y23300597D02*
X21369866Y23300597D01*
X21031199Y22411597D02*
X21031199Y23004264D01*
X21031199Y23300597D02*
X21073532Y23258264D01*
X21073532Y23258264D02*
X21031199Y23215930D01*
X21031199Y23215930D02*
X20988866Y23258264D01*
X20988866Y23258264D02*
X21031199Y23300597D01*
X21031199Y23300597D02*
X21031199Y23215930D01*
X19930533Y22411597D02*
X19930533Y23300597D01*
X19930533Y23300597D02*
X19718866Y23300597D01*
X19718866Y23300597D02*
X19591866Y23258264D01*
X19591866Y23258264D02*
X19507200Y23173597D01*
X19507200Y23173597D02*
X19464866Y23088930D01*
X19464866Y23088930D02*
X19422533Y22919597D01*
X19422533Y22919597D02*
X19422533Y22792597D01*
X19422533Y22792597D02*
X19464866Y22623264D01*
X19464866Y22623264D02*
X19507200Y22538597D01*
X19507200Y22538597D02*
X19591866Y22453930D01*
X19591866Y22453930D02*
X19718866Y22411597D01*
X19718866Y22411597D02*
X19930533Y22411597D01*
X18533533Y22496264D02*
X18575866Y22453930D01*
X18575866Y22453930D02*
X18702866Y22411597D01*
X18702866Y22411597D02*
X18787533Y22411597D01*
X18787533Y22411597D02*
X18914533Y22453930D01*
X18914533Y22453930D02*
X18999200Y22538597D01*
X18999200Y22538597D02*
X19041533Y22623264D01*
X19041533Y22623264D02*
X19083866Y22792597D01*
X19083866Y22792597D02*
X19083866Y22919597D01*
X19083866Y22919597D02*
X19041533Y23088930D01*
X19041533Y23088930D02*
X18999200Y23173597D01*
X18999200Y23173597D02*
X18914533Y23258264D01*
X18914533Y23258264D02*
X18787533Y23300597D01*
X18787533Y23300597D02*
X18702866Y23300597D01*
X18702866Y23300597D02*
X18575866Y23258264D01*
X18575866Y23258264D02*
X18533533Y23215930D01*
X17051867Y22411597D02*
X17475200Y22411597D01*
X17475200Y22411597D02*
X17475200Y23300597D01*
X16628533Y22411597D02*
X16713200Y22453930D01*
X16713200Y22453930D02*
X16755533Y22496264D01*
X16755533Y22496264D02*
X16797866Y22580930D01*
X16797866Y22580930D02*
X16797866Y22834930D01*
X16797866Y22834930D02*
X16755533Y22919597D01*
X16755533Y22919597D02*
X16713200Y22961930D01*
X16713200Y22961930D02*
X16628533Y23004264D01*
X16628533Y23004264D02*
X16501533Y23004264D01*
X16501533Y23004264D02*
X16416866Y22961930D01*
X16416866Y22961930D02*
X16374533Y22919597D01*
X16374533Y22919597D02*
X16332200Y22834930D01*
X16332200Y22834930D02*
X16332200Y22580930D01*
X16332200Y22580930D02*
X16374533Y22496264D01*
X16374533Y22496264D02*
X16416866Y22453930D01*
X16416866Y22453930D02*
X16501533Y22411597D01*
X16501533Y22411597D02*
X16628533Y22411597D01*
X15570200Y22411597D02*
X15570200Y22877264D01*
X15570200Y22877264D02*
X15612533Y22961930D01*
X15612533Y22961930D02*
X15697200Y23004264D01*
X15697200Y23004264D02*
X15866533Y23004264D01*
X15866533Y23004264D02*
X15951200Y22961930D01*
X15570200Y22453930D02*
X15654867Y22411597D01*
X15654867Y22411597D02*
X15866533Y22411597D01*
X15866533Y22411597D02*
X15951200Y22453930D01*
X15951200Y22453930D02*
X15993533Y22538597D01*
X15993533Y22538597D02*
X15993533Y22623264D01*
X15993533Y22623264D02*
X15951200Y22707930D01*
X15951200Y22707930D02*
X15866533Y22750264D01*
X15866533Y22750264D02*
X15654867Y22750264D01*
X15654867Y22750264D02*
X15570200Y22792597D01*
X14765867Y22411597D02*
X14765867Y23300597D01*
X14765867Y22453930D02*
X14850534Y22411597D01*
X14850534Y22411597D02*
X15019867Y22411597D01*
X15019867Y22411597D02*
X15104534Y22453930D01*
X15104534Y22453930D02*
X15146867Y22496264D01*
X15146867Y22496264D02*
X15189200Y22580930D01*
X15189200Y22580930D02*
X15189200Y22834930D01*
X15189200Y22834930D02*
X15146867Y22919597D01*
X15146867Y22919597D02*
X15104534Y22961930D01*
X15104534Y22961930D02*
X15019867Y23004264D01*
X15019867Y23004264D02*
X14850534Y23004264D01*
X14850534Y23004264D02*
X14765867Y22961930D01*
X23846365Y20980357D02*
X23846365Y21869357D01*
X23338365Y20980357D02*
X23719365Y21488357D01*
X23338365Y21869357D02*
X23846365Y21361357D01*
X22618698Y21022690D02*
X22703365Y20980357D01*
X22703365Y20980357D02*
X22872698Y20980357D01*
X22872698Y20980357D02*
X22957365Y21022690D01*
X22957365Y21022690D02*
X22999698Y21107357D01*
X22999698Y21107357D02*
X22999698Y21446024D01*
X22999698Y21446024D02*
X22957365Y21530690D01*
X22957365Y21530690D02*
X22872698Y21573024D01*
X22872698Y21573024D02*
X22703365Y21573024D01*
X22703365Y21573024D02*
X22618698Y21530690D01*
X22618698Y21530690D02*
X22576365Y21446024D01*
X22576365Y21446024D02*
X22576365Y21361357D01*
X22576365Y21361357D02*
X22999698Y21276690D01*
X22068365Y20980357D02*
X22153032Y21022690D01*
X22153032Y21022690D02*
X22195365Y21107357D01*
X22195365Y21107357D02*
X22195365Y21869357D01*
X21814365Y21573024D02*
X21602698Y20980357D01*
X21602698Y20980357D02*
X21391031Y21573024D01*
X21052365Y20980357D02*
X21052365Y21573024D01*
X21052365Y21869357D02*
X21094698Y21827024D01*
X21094698Y21827024D02*
X21052365Y21784690D01*
X21052365Y21784690D02*
X21010032Y21827024D01*
X21010032Y21827024D02*
X21052365Y21869357D01*
X21052365Y21869357D02*
X21052365Y21784690D01*
X20629032Y21573024D02*
X20629032Y20980357D01*
X20629032Y21488357D02*
X20586699Y21530690D01*
X20586699Y21530690D02*
X20502032Y21573024D01*
X20502032Y21573024D02*
X20375032Y21573024D01*
X20375032Y21573024D02*
X20290365Y21530690D01*
X20290365Y21530690D02*
X20248032Y21446024D01*
X20248032Y21446024D02*
X20248032Y20980357D01*
X19147366Y20980357D02*
X19147366Y21869357D01*
X19147366Y21869357D02*
X18851033Y21234357D01*
X18851033Y21234357D02*
X18554699Y21869357D01*
X18554699Y21869357D02*
X18554699Y20980357D01*
X17792699Y21022690D02*
X17877366Y20980357D01*
X17877366Y20980357D02*
X18046699Y20980357D01*
X18046699Y20980357D02*
X18131366Y21022690D01*
X18131366Y21022690D02*
X18173699Y21107357D01*
X18173699Y21107357D02*
X18173699Y21446024D01*
X18173699Y21446024D02*
X18131366Y21530690D01*
X18131366Y21530690D02*
X18046699Y21573024D01*
X18046699Y21573024D02*
X17877366Y21573024D01*
X17877366Y21573024D02*
X17792699Y21530690D01*
X17792699Y21530690D02*
X17750366Y21446024D01*
X17750366Y21446024D02*
X17750366Y21361357D01*
X17750366Y21361357D02*
X18173699Y21276690D01*
X16988366Y20980357D02*
X16988366Y21446024D01*
X16988366Y21446024D02*
X17030699Y21530690D01*
X17030699Y21530690D02*
X17115366Y21573024D01*
X17115366Y21573024D02*
X17284699Y21573024D01*
X17284699Y21573024D02*
X17369366Y21530690D01*
X16988366Y21022690D02*
X17073033Y20980357D01*
X17073033Y20980357D02*
X17284699Y20980357D01*
X17284699Y20980357D02*
X17369366Y21022690D01*
X17369366Y21022690D02*
X17411699Y21107357D01*
X17411699Y21107357D02*
X17411699Y21192024D01*
X17411699Y21192024D02*
X17369366Y21276690D01*
X17369366Y21276690D02*
X17284699Y21319024D01*
X17284699Y21319024D02*
X17073033Y21319024D01*
X17073033Y21319024D02*
X16988366Y21361357D01*
X16607366Y21022690D02*
X16522700Y20980357D01*
X16522700Y20980357D02*
X16353366Y20980357D01*
X16353366Y20980357D02*
X16268700Y21022690D01*
X16268700Y21022690D02*
X16226366Y21107357D01*
X16226366Y21107357D02*
X16226366Y21149690D01*
X16226366Y21149690D02*
X16268700Y21234357D01*
X16268700Y21234357D02*
X16353366Y21276690D01*
X16353366Y21276690D02*
X16480366Y21276690D01*
X16480366Y21276690D02*
X16565033Y21319024D01*
X16565033Y21319024D02*
X16607366Y21403690D01*
X16607366Y21403690D02*
X16607366Y21446024D01*
X16607366Y21446024D02*
X16565033Y21530690D01*
X16565033Y21530690D02*
X16480366Y21573024D01*
X16480366Y21573024D02*
X16353366Y21573024D01*
X16353366Y21573024D02*
X16268700Y21530690D01*
X15464366Y21573024D02*
X15464366Y20980357D01*
X15845366Y21573024D02*
X15845366Y21107357D01*
X15845366Y21107357D02*
X15803033Y21022690D01*
X15803033Y21022690D02*
X15718366Y20980357D01*
X15718366Y20980357D02*
X15591366Y20980357D01*
X15591366Y20980357D02*
X15506699Y21022690D01*
X15506699Y21022690D02*
X15464366Y21065024D01*
X15041033Y20980357D02*
X15041033Y21573024D01*
X15041033Y21403690D02*
X14998700Y21488357D01*
X14998700Y21488357D02*
X14956366Y21530690D01*
X14956366Y21530690D02*
X14871700Y21573024D01*
X14871700Y21573024D02*
X14787033Y21573024D01*
X14152033Y21022690D02*
X14236700Y20980357D01*
X14236700Y20980357D02*
X14406033Y20980357D01*
X14406033Y20980357D02*
X14490700Y21022690D01*
X14490700Y21022690D02*
X14533033Y21107357D01*
X14533033Y21107357D02*
X14533033Y21446024D01*
X14533033Y21446024D02*
X14490700Y21530690D01*
X14490700Y21530690D02*
X14406033Y21573024D01*
X14406033Y21573024D02*
X14236700Y21573024D01*
X14236700Y21573024D02*
X14152033Y21530690D01*
X14152033Y21530690D02*
X14109700Y21446024D01*
X14109700Y21446024D02*
X14109700Y21361357D01*
X14109700Y21361357D02*
X14533033Y21276690D01*
%LPC*%
D11*
%TO.C,J7*%
X48107600Y22199600D03*
%TD*%
D12*
%TO.C,Q1*%
X33426400Y21844000D03*
D13*
X34696400Y21844000D03*
X35966400Y21844000D03*
%TD*%
D14*
%TO.C,R6*%
X40182800Y21945600D03*
D15*
X42722800Y21945600D03*
%TD*%
D14*
%TO.C,R2*%
X35560000Y1701800D03*
D15*
X35560000Y4241800D03*
%TD*%
D16*
%TO.C,J6*%
X2514600Y2209800D03*
%TD*%
D14*
%TO.C,R3*%
X40055800Y1778000D03*
D15*
X40055800Y4318000D03*
%TD*%
D17*
%TO.C,H2*%
X4000000Y12420600D03*
%TD*%
D16*
%TO.C,J4*%
X2514600Y6121400D03*
%TD*%
D14*
%TO.C,R4*%
X32740600Y10058400D03*
D15*
X35280600Y10058400D03*
%TD*%
D14*
%TO.C,R5*%
X31030333Y1727200D03*
D15*
X31030333Y4267200D03*
%TD*%
D11*
%TO.C,J3*%
X39319200Y10922000D03*
D18*
X39319200Y13462000D03*
%TD*%
D16*
%TO.C,J1*%
X2514600Y18796000D03*
%TD*%
D19*
%TO.C,C1*%
X40309800Y18262600D03*
X35309800Y18262600D03*
%TD*%
D14*
%TO.C,R1*%
X32714400Y14376400D03*
D15*
X35254400Y14376400D03*
%TD*%
D17*
%TO.C,H1*%
X47000000Y12446000D03*
%TD*%
D11*
%TO.C,J5*%
X48133000Y3175000D03*
D18*
X48133000Y5715000D03*
%TD*%
D16*
%TO.C,J2*%
X2514600Y23139400D03*
%TD*%
D20*
%TO.C,K1*%
X27889200Y16078200D03*
D14*
X20269200Y16078200D03*
X15189200Y16078200D03*
X10109200Y16078200D03*
X10109200Y8458200D03*
X15189200Y8458200D03*
X20269200Y8458200D03*
X27889200Y8458200D03*
%TD*%
D21*
%TO.C,D2*%
X25374600Y21945600D03*
D22*
X27914600Y21945600D03*
%TD*%
D21*
%TO.C,D1*%
X26517600Y4318000D03*
D22*
X26517600Y1778000D03*
%TD*%
D19*
%TO.C,C2*%
X22047200Y1778000D03*
X17047200Y1778000D03*
%TD*%
%LPD*%
M02*
